<mxfile host="app.diagrams.net" modified="2023-02-02T18:11:47.645Z" agent="5.0 (Macintosh; Intel Mac OS X 10_15_7) AppleWebKit/537.36 (KHTML, like Gecko) Chrome/109.0.0.0 Safari/537.36" etag="IOHyjY2ZlG_m8wD8LC_t" version="20.8.15" type="github">
  <diagram name="Page-1" id="22PkKsvqv0a_MVF8aLr6">
    <mxGraphModel dx="1166" dy="506" grid="1" gridSize="10" guides="1" tooltips="1" connect="1" arrows="1" fold="1" page="1" pageScale="1" pageWidth="850" pageHeight="1100" math="0" shadow="0">
      <root>
        <mxCell id="0" />
        <mxCell id="1" parent="0" />
        <mxCell id="hVr08XyOdzgONjnNXrjA-1" value="" style="shape=image;verticalLabelPosition=bottom;labelBackgroundColor=default;verticalAlign=top;aspect=fixed;imageAspect=0;image=https://lockchoice.com/pub/media/catalog/product/cache/74428eb1690bddb95d390f884a5965ea/b/s/bs-35_wifi_mobil_app_card_passcode_4in1_waterproofaccess_control.jpg;clipPath=inset(26.33% 66% 27.33% 11%);" vertex="1" parent="1">
          <mxGeometry x="50" y="30" width="69.49" height="140" as="geometry" />
        </mxCell>
        <mxCell id="hVr08XyOdzgONjnNXrjA-5" style="edgeStyle=orthogonalEdgeStyle;rounded=0;orthogonalLoop=1;jettySize=auto;html=1;exitX=0.25;exitY=0;exitDx=0;exitDy=0;" edge="1" parent="1" source="hVr08XyOdzgONjnNXrjA-2" target="hVr08XyOdzgONjnNXrjA-1">
          <mxGeometry relative="1" as="geometry" />
        </mxCell>
        <mxCell id="hVr08XyOdzgONjnNXrjA-6" style="edgeStyle=orthogonalEdgeStyle;rounded=0;orthogonalLoop=1;jettySize=auto;html=1;exitX=0.75;exitY=0;exitDx=0;exitDy=0;entryX=0;entryY=0.25;entryDx=0;entryDy=0;" edge="1" parent="1" source="hVr08XyOdzgONjnNXrjA-2" target="hVr08XyOdzgONjnNXrjA-4">
          <mxGeometry relative="1" as="geometry" />
        </mxCell>
        <mxCell id="hVr08XyOdzgONjnNXrjA-2" value="" style="shape=image;verticalLabelPosition=bottom;labelBackgroundColor=default;verticalAlign=top;aspect=fixed;imageAspect=0;image=data:image/jpeg,/9j/4AAQSkZJRgABAQAASABIAAD/4QBARXhpZgAATU0AKgAAAAgAAYdpAAQAAAABAAAAGgAAAAAAAqACAAQAAAABAAACaqADAAQAAAABAAADtgAAAAD/7QA4UGhvdG9zaG9wIDMuMAA4QklNBAQAAAAAAAA4QklNBCUAAAAAABDUHYzZjwCyBOmACZjs+EJ+/+IQCElDQ19QUk9GSUxFAAEBAAAP+GFwcGwCEAAAbW50clJHQiBYWVogB+cAAQAFAAsAEgAzYWNzcEFQUEwAAAAAQVBQTAAAAAAAAAAAAAAAAAAAAAAAAPbWAAEAAAAA0y1hcHBsAAAAAAAAAAAAAAAAAAAAAAAAAAAAAAAAAAAAAAAAAAAAAAAAAAAAAAAAAAAAAAASZGVzYwAAAVwAAABiZHNjbQAAAcAAAAScY3BydAAABlwAAAAjd3RwdAAABoAAAAAUclhZWgAABpQAAAAUZ1hZWgAABqgAAAAUYlhZWgAABrwAAAAUclRSQwAABtAAAAgMYWFyZwAADtwAAAAgdmNndAAADvwAAAAwbmRpbgAADywAAAA+Y2hhZAAAD2wAAAAsbW1vZAAAD5gAAAAodmNncAAAD8AAAAA4YlRSQwAABtAAAAgMZ1RSQwAABtAAAAgMYWFiZwAADtwAAAAgYWFnZwAADtwAAAAgZGVzYwAAAAAAAAAIRGlzcGxheQAAAAAAAAAAAAAAAAAAAAAAAAAAAAAAAAAAAAAAAAAAAAAAAAAAAAAAAAAAAAAAAAAAAAAAAAAAAAAAAAAAAAAAAAAAAAAAAAAAAAAAAAAAAG1sdWMAAAAAAAAAJgAAAAxockhSAAAAFAAAAdhrb0tSAAAADAAAAexuYk5PAAAAEgAAAfhpZAAAAAAAEgAAAgpodUhVAAAAFAAAAhxjc0NaAAAAFgAAAjBkYURLAAAAHAAAAkZubE5MAAAAFgAAAmJmaUZJAAAAEAAAAnhpdElUAAAAGAAAAohlc0VTAAAAFgAAAqByb1JPAAAAEgAAArZmckNBAAAAFgAAAshhcgAAAAAAFAAAAt51a1VBAAAAHAAAAvJoZUlMAAAAFgAAAw56aFRXAAAACgAAAyR2aVZOAAAADgAAAy5za1NLAAAAFgAAAzx6aENOAAAACgAAAyRydVJVAAAAJAAAA1JlbkdCAAAAFAAAA3ZmckZSAAAAFgAAA4ptcwAAAAAAEgAAA6BoaUlOAAAAEgAAA7J0aFRIAAAADAAAA8RjYUVTAAAAGAAAA9BlbkFVAAAAFAAAA3Zlc1hMAAAAEgAAArZkZURFAAAAEAAAA+hlblVTAAAAEgAAA/hwdEJSAAAAGAAABApwbFBMAAAAEgAABCJlbEdSAAAAIgAABDRzdlNFAAAAEAAABFZ0clRSAAAAFAAABGZwdFBUAAAAFgAABHpqYUpQAAAADAAABJAATABDAEQAIAB1ACAAYgBvAGoAac7st+wAIABMAEMARABGAGEAcgBnAGUALQBMAEMARABMAEMARAAgAFcAYQByAG4AYQBTAHoA7QBuAGUAcwAgAEwAQwBEAEIAYQByAGUAdgBuAP0AIABMAEMARABMAEMARAAtAGYAYQByAHYAZQBzAGsA5gByAG0ASwBsAGUAdQByAGUAbgAtAEwAQwBEAFYA5AByAGkALQBMAEMARABMAEMARAAgAGEAIABjAG8AbABvAHIAaQBMAEMARAAgAGEAIABjAG8AbABvAHIATABDAEQAIABjAG8AbABvAHIAQQBDAEwAIABjAG8AdQBsAGUAdQByIA8ATABDAEQAIAZFBkQGSAZGBikEGgQ+BDsETAQ+BEAEPgQyBDgEOQAgAEwAQwBEIA8ATABDAEQAIAXmBdEF4gXVBeAF2V9pgnIATABDAEQATABDAEQAIABNAOAAdQBGAGEAcgBlAGIAbgD9ACAATABDAEQEJgQyBDUEQgQ9BD4EOQAgBBYEGgAtBDQEOARBBD8EOwQ1BDkAQwBvAGwAbwB1AHIAIABMAEMARABMAEMARAAgAGMAbwB1AGwAZQB1AHIAVwBhAHIAbgBhACAATABDAEQJMAkCCRcJQAkoACAATABDAEQATABDAEQAIA4qDjUATABDAEQAIABlAG4AIABjAG8AbABvAHIARgBhAHIAYgAtAEwAQwBEAEMAbwBsAG8AcgAgAEwAQwBEAEwAQwBEACAAQwBvAGwAbwByAGkAZABvAEsAbwBsAG8AcgAgAEwAQwBEA4gDswPHA8EDyQO8A7cAIAO/A7gDzAO9A7cAIABMAEMARABGAOQAcgBnAC0ATABDAEQAUgBlAG4AawBsAGkAIABMAEMARABMAEMARAAgAGEAIABjAG8AcgBlAHMwqzDpMPwATABDAER0ZXh0AAAAAENvcHlyaWdodCBBcHBsZSBJbmMuLCAyMDIzAABYWVogAAAAAAAA8xYAAQAAAAEWylhZWiAAAAAAAACDNwAAPYT///+8WFlaIAAAAAAAAEulAACzWQAACtRYWVogAAAAAAAAJ/kAAA8jAADInmN1cnYAAAAAAAAEAAAAAAUACgAPABQAGQAeACMAKAAtADIANgA7AEAARQBKAE8AVABZAF4AYwBoAG0AcgB3AHwAgQCGAIsAkACVAJoAnwCjAKgArQCyALcAvADBAMYAywDQANUA2wDgAOUA6wDwAPYA+wEBAQcBDQETARkBHwElASsBMgE4AT4BRQFMAVIBWQFgAWcBbgF1AXwBgwGLAZIBmgGhAakBsQG5AcEByQHRAdkB4QHpAfIB+gIDAgwCFAIdAiYCLwI4AkECSwJUAl0CZwJxAnoChAKOApgCogKsArYCwQLLAtUC4ALrAvUDAAMLAxYDIQMtAzgDQwNPA1oDZgNyA34DigOWA6IDrgO6A8cD0wPgA+wD+QQGBBMEIAQtBDsESARVBGMEcQR+BIwEmgSoBLYExATTBOEE8AT+BQ0FHAUrBToFSQVYBWcFdwWGBZYFpgW1BcUF1QXlBfYGBgYWBicGNwZIBlkGagZ7BowGnQavBsAG0QbjBvUHBwcZBysHPQdPB2EHdAeGB5kHrAe/B9IH5Qf4CAsIHwgyCEYIWghuCIIIlgiqCL4I0gjnCPsJEAklCToJTwlkCXkJjwmkCboJzwnlCfsKEQonCj0KVApqCoEKmAquCsUK3ArzCwsLIgs5C1ELaQuAC5gLsAvIC+EL+QwSDCoMQwxcDHUMjgynDMAM2QzzDQ0NJg1ADVoNdA2ODakNww3eDfgOEw4uDkkOZA5/DpsOtg7SDu4PCQ8lD0EPXg96D5YPsw/PD+wQCRAmEEMQYRB+EJsQuRDXEPURExExEU8RbRGMEaoRyRHoEgcSJhJFEmQShBKjEsMS4xMDEyMTQxNjE4MTpBPFE+UUBhQnFEkUahSLFK0UzhTwFRIVNBVWFXgVmxW9FeAWAxYmFkkWbBaPFrIW1hb6Fx0XQRdlF4kXrhfSF/cYGxhAGGUYihivGNUY+hkgGUUZaxmRGbcZ3RoEGioaURp3Gp4axRrsGxQbOxtjG4obshvaHAIcKhxSHHscoxzMHPUdHh1HHXAdmR3DHeweFh5AHmoelB6+HukfEx8+H2kflB+/H+ogFSBBIGwgmCDEIPAhHCFIIXUhoSHOIfsiJyJVIoIiryLdIwojOCNmI5QjwiPwJB8kTSR8JKsk2iUJJTglaCWXJccl9yYnJlcmhya3JugnGCdJJ3onqyfcKA0oPyhxKKIo1CkGKTgpaymdKdAqAio1KmgqmyrPKwIrNitpK50r0SwFLDksbiyiLNctDC1BLXYtqy3hLhYuTC6CLrcu7i8kL1ovkS/HL/4wNTBsMKQw2zESMUoxgjG6MfIyKjJjMpsy1DMNM0YzfzO4M/E0KzRlNJ402DUTNU01hzXCNf02NzZyNq426TckN2A3nDfXOBQ4UDiMOMg5BTlCOX85vDn5OjY6dDqyOu87LTtrO6o76DwnPGU8pDzjPSI9YT2hPeA+ID5gPqA+4D8hP2E/oj/iQCNAZECmQOdBKUFqQaxB7kIwQnJCtUL3QzpDfUPARANER0SKRM5FEkVVRZpF3kYiRmdGq0bwRzVHe0fASAVIS0iRSNdJHUljSalJ8Eo3Sn1KxEsMS1NLmkviTCpMcky6TQJNSk2TTdxOJU5uTrdPAE9JT5NP3VAnUHFQu1EGUVBRm1HmUjFSfFLHUxNTX1OqU/ZUQlSPVNtVKFV1VcJWD1ZcVqlW91dEV5JX4FgvWH1Yy1kaWWlZuFoHWlZaplr1W0VblVvlXDVchlzWXSddeF3JXhpebF69Xw9fYV+zYAVgV2CqYPxhT2GiYfViSWKcYvBjQ2OXY+tkQGSUZOllPWWSZedmPWaSZuhnPWeTZ+loP2iWaOxpQ2maafFqSGqfavdrT2una/9sV2yvbQhtYG25bhJua27Ebx5veG/RcCtwhnDgcTpxlXHwcktypnMBc11zuHQUdHB0zHUodYV14XY+dpt2+HdWd7N4EXhueMx5KnmJeed6RnqlewR7Y3vCfCF8gXzhfUF9oX4BfmJ+wn8jf4R/5YBHgKiBCoFrgc2CMIKSgvSDV4O6hB2EgITjhUeFq4YOhnKG14c7h5+IBIhpiM6JM4mZif6KZIrKizCLlov8jGOMyo0xjZiN/45mjs6PNo+ekAaQbpDWkT+RqJIRknqS45NNk7aUIJSKlPSVX5XJljSWn5cKl3WX4JhMmLiZJJmQmfyaaJrVm0Kbr5wcnImc951kndKeQJ6unx2fi5/6oGmg2KFHobaiJqKWowajdqPmpFakx6U4pammGqaLpv2nbqfgqFKoxKk3qamqHKqPqwKrdavprFys0K1ErbiuLa6hrxavi7AAsHWw6rFgsdayS7LCszizrrQltJy1E7WKtgG2ebbwt2i34LhZuNG5SrnCuju6tbsuu6e8IbybvRW9j74KvoS+/796v/XAcMDswWfB48JfwtvDWMPUxFHEzsVLxcjGRsbDx0HHv8g9yLzJOsm5yjjKt8s2y7bMNcy1zTXNtc42zrbPN8+40DnQutE80b7SP9LB00TTxtRJ1MvVTtXR1lXW2Ndc1+DYZNjo2WzZ8dp22vvbgNwF3IrdEN2W3hzeot8p36/gNuC94UThzOJT4tvjY+Pr5HPk/OWE5g3mlucf56noMui86Ubp0Opb6uXrcOv77IbtEe2c7ijutO9A78zwWPDl8XLx//KM8xnzp/Q09ML1UPXe9m32+/eK+Bn4qPk4+cf6V/rn+3f8B/yY/Sn9uv5L/tz/bf//cGFyYQAAAAAAAwAAAAJmZgAA8qcAAA1ZAAAT0AAAClt2Y2d0AAAAAAAAAAEAAQAAAAAAAAABAAAAAQAAAAAAAAABAAAAAQAAAAAAAAABAABuZGluAAAAAAAAADYAAK4AAABSAAAAQ8AAALDAAAAmgAAADgAAAFAAAABUQAACMzMAAjMzAAIzMwAAAAAAAAAAc2YzMgAAAAAAAQxyAAAF+P//8x0AAAe6AAD9cv//+53///2kAAAD2QAAwHFtbW9kAAAAAAAABhAAAKA9AAAAANUYZIAAAAAAAAAAAAAAAAAAAAAAdmNncAAAAAAAAwAAAAJmZgADAAAAAmZmAAMAAAACZmYAAAACMzM0AAAAAAIzMzQAAAAAAjMzNAD/wAARCAO2AmoDASIAAhEBAxEB/8QAHwAAAQUBAQEBAQEAAAAAAAAAAAECAwQFBgcICQoL/8QAtRAAAgEDAwIEAwUFBAQAAAF9AQIDAAQRBRIhMUEGE1FhByJxFDKBkaEII0KxwRVS0fAkM2JyggkKFhcYGRolJicoKSo0NTY3ODk6Q0RFRkdISUpTVFVWV1hZWmNkZWZnaGlqc3R1dnd4eXqDhIWGh4iJipKTlJWWl5iZmqKjpKWmp6ipqrKztLW2t7i5usLDxMXGx8jJytLT1NXW19jZ2uHi4+Tl5ufo6erx8vP09fb3+Pn6/8QAHwEAAwEBAQEBAQEBAQAAAAAAAAECAwQFBgcICQoL/8QAtREAAgECBAQDBAcFBAQAAQJ3AAECAxEEBSExBhJBUQdhcRMiMoEIFEKRobHBCSMzUvAVYnLRChYkNOEl8RcYGRomJygpKjU2Nzg5OkNERUZHSElKU1RVVldYWVpjZGVmZ2hpanN0dXZ3eHl6goOEhYaHiImKkpOUlZaXmJmaoqOkpaanqKmqsrO0tba3uLm6wsPExcbHyMnK0tPU1dbX2Nna4uPk5ebn6Onq8vP09fb3+Pn6/9sAQwABAQEBAQECAQECAwICAgMEAwMDAwQFBAQEBAQFBgUFBQUFBQYGBgYGBgYGBwcHBwcHCAgICAgJCQkJCQkJCQkJ/9sAQwEBAQECAgIEAgIECQYFBgkJCQkJCQkJCQkJCQkJCQkJCQkJCQkJCQkJCQkJCQkJCQkJCQkJCQkJCQkJCQkJCQkJ/90ABAAn/9oADAMBAAIRAxEAPwD+/iiiigAooooAKKKKACiiigAooooAKKKKAEOccV5P8etVvdD+CHjDWdNcx3Frot9LGw6q6wOQR7g16zXi37SH/Jvvjf8A7AWof+k70mNbn4n/APBt78OvCVj+wV/wuKKyRvE/i/XtYu9X1FhuuLqQ302N8h+YgdgTgcV/QrGpVcGvwo/4Nyf+UYHhn/sK6v8A+l0tfu3U0/hKqfEwpD0NLSHoasg8b0P41eDPEHxd1j4KWZlGt6JbRXdwrLhPLlClSrZ5++O1ZPjD9oPwb4W8df8ACrrGG51nxAlt9smsrFVaSG3yP3khdkUA7lxzk5HFeReE/hx4/wBP/bV8V/E28sdnh/UdFtrS3usj5po/J3Db7bGrzLUfhd8UfhR+2b4q+Onh3SH8QaH4506ztrhYGAuLKeyiiiXG8qPLdYySA3JIyKQH2h4C+LPhPx14di8TWztYRyyyweVebYpQ8LmNhtJ5+YYBBIPau6PiPQhdtp32yAXKjJi8xd+MZztznpz0r8rP2zfhZ+0J8Vms7fwNoCjdpyGO4jlxJbXK3sE2xl4VcxI+WQk5471jXn7M3xn1vxT8S/G9tZGw8Q6tpmlDQ7+SYuFmgtIku41PJBkZXUkgdaZSR+ivhb46eDfGfxT8QfCPSPMfU/DkUE9w3yGNluEWRNjKxJOGGcgV4BoP/BQj4Cax4ng8L3ZvNO+067ceG4bm5jUQvqNt5u+EFWY5xA+CRjjrXjv7GXwh+Kng34xeI/iB408M/wBgQato+l27DerNJdWltDFNyOuWRiM/Wvkbwj+xV+0F4Y8f3Pxn1HRBqh0/xvqOqLoF5MXtriyvZ7gx3cEbZRbmNZVOSAcbgG9U2VZH75rrGkxTraPcxLM/IjLqHPfhSc9KSHxFod1vW2u4ZPL+/tkVtv1wePxr8k7P4D/HHUf2iNX8Q+NNFutRgt5pdS0LVY7+WGKNZbaSMWk6KcvgyYIIK5XOeBXj+hfs9/tfLaeN7rS9M/sO71vTLX7PCJz5Zura8tnmRSveeFJRkjndzii5CR+tXgD49eBviT4p8UeF9Edo5fCVxFb3rylBGWmj8xCjBiCNvrivWG8V+GrdImmv7ZBN/q8yoN/b5eeefSvxAv8A9nf9o5dL8b+J/AXhYaJHqur6VqD6IJvLkvraKxNvcwhkyoKyvuBJ5216z4Z/ZH8TSfFH4XX2oeH7pPDWj2l9LewXd49ybWe4maeNWLkl9pOFHRRwOKZTSP2FjmjlGUOalqhaIYjsChVxxj2q/QQRspLZr+Zz/g4K8EeG/CXiz9nj9onw1apY+MdO+IFjYR6nCAk5tp4Z1kiZxhihB6E46V/TPX843/BxZ/yT/wCBH/ZS9M/9FzUpGlNan2F/wW68aeJvBf8AwS4+J+u+G7l7S6nsbO3MsZKuI7m9t4pACDkbkdh+NfQn/BOP9n/4T/Ar9i/4b+G/hhottpdtdeHNMvLjyo1DTT3FrHLLLIwGWZ3YsSfWvlX/AILyf8ooPiN/176Z/wCnG0r9E/2QP+TTfhh/2Kejf+kMNK2o/sXPf/sNl/zyX8qPsNl/zyX8qt0VRndmdNZ2SIW8pePYV4z8IPjL8PfjamtSeDo3P9g382m3QlQKRNC7I2OuRlTzXuUudvA3V8OfsefC/wCInw5ufiE/jrT/ALCuseIbq9syGDeZBJJIVb2yGHFAXZ3d7+058NG1LWrDwrYXevx+HJPK1KewjR4reXujF2Ull7hQcEHvXu2jeJPCes2Fne28kKG+gjuI4pCqy7ZUEigoec7Tkivzw/ZW+Evxc/Za1fxj8N59DfXNJ1zxDf65YapC4IxqVzJdSRXG8q2YmlKqAGGF49K8++Nvwb/aR8UftU6R478PaKsWmaTq9rcyXNvOcT2n9mSQSowIGAkzj8s0DbP1ZTWPCVzHK1pc2svkZ8wLIh24OPm54545714R8PP2jfhv8SPh54i+Jvh+2mbT/DNzqFrdqVTeW06SSOYoAxBGYmI5Ga/Nrw5+yj+0D4R+C09/4a0rHiA+NNT1LU7WScl9U0e4v55IIVc5yFR4nw5A+Svfv2W/gl8Svh5+zZ8RvA2taCNN1DXb3XrnTrMMDlNRluHiUkcDHmqDjp2pB6nv/wAHf2xvgf8AGfxBpnhfRFnsL/W9LOsafDexKjXNoHVDIm1nHDOOCQe/Svqkal4XLSp51tuhG6Qb1yo9W54/GvxN/Zo/ZN+PfwM1nwv4j1PSW1WXUfD50e6a8mM1xoNwkQCyWjPnEDugyqsvDfdrf+G/wG/aH0Xwh4w1DxR4Ylk8XpDJYrcNqErWmqwNfxyrIkZ43+Sv8SjHK520IL6n7CX+u+E7bR5tbEsElvAjOzIyEHYCSAc4zxxzXmXwc+Nnw6+NXgCP4keHSLbTpbq5s1+1eWjGS1maCQcMQfnQ45r8j/Cv7PP7XHhzwPY2raa15p9p4quNRvNIac/6Tp13bXKCFf4f3E00Z2EhRs4OAM5vh79ln9o7wz8PvCvhfUvC8l74ffUdZj1DRrS6NvNai81Ca6trsFMKNkZRTtbPNCfcr5n7tf2t4UF6umGe2+0sARFvXeQRkELnPTmtwWVkQCIl59q/OD4L/s5654a/am1/4h+MNNkksYtL0y30e6mnacrJb2cMEqgv8xbKsWJ6nJr9Jbff5Q39e9MhtkX2Gy/55L+VMfTbB1IaJSCMYwMGr1FAXZ/Ml8XvBXh34A/8HC3wouPhBaR6EvxL8M348Qw2iiKK8a3DNG8iLhS4MSncRnvX9NMQKpg1/OJ+2D/ysH/s2/8AYt6r/wCgzV/R/Siy57IhuBmFvof5V/OH/wAEAt//AAnf7VYPT/haGof+jJq/o+m/1TfQ1/OL/wAEA/8Ake/2rP8Asp+of+jJqHuOC0Z+w/7X37ZHwG/Yk+FNx8Wfjrqy2Nsv7u1tkG+5vJ24WGCMcs7H6D3r8ZNG/wCChn/BYn9qO3Hi79kz4A2Ph3wnMS1le+Lrw29xcxfwv5MMdxt3DnkiuW0LwLoX/BSH/gtz4ym+MCf2l4O/Z4sLVdF0qYb7dtVuooWaeSM/KWUTSbSQccdK/pvs4I4LVIY1CqgCqo4AAHAA7VOrFoj+b1/+CtX7eP7IusWif8FJvgbJpPhWeRY5PFHhib7da2+7jfOjiF1QHqQhxX78/CH4t/Dr44+AdN+KPwo1WDWdE1aFZ7e6t23I6uM/UEdweQa6vxj4Q8N+PfC1/wCDPGFlFqGl6nC9vc206h45I3GGVlYYP5V/Ot/wSk0LUP2Kv+CiXxy/4JvaRdPN4KtIYvFvhy3diRZpftDJLbxg/djV7hsAccDintuPSWxn/wDBYgY/4KZ/sdZHXxFef+kN7X9KpXjBHFfzX/8ABYckf8FMv2Od3H/FQ3n/AKQ3tf0qPkqQKFuxT+FHyv4L+O/iHxF+1J4p/Z/1HTIoLTQtMg1CC8SRmebzfKyrKVAGDJ2PavOPjl+0h8VvAv7T/g39nrwJpOn3SeK7K4u/td5PJGYjAH+Xakbgg7etdr4S+CXjjQf2ufE3x6vJ7RtG1rSYNPhhVm89XjMRLMCoXH7s/wAVeffHP9nr4xeMv2q/BP7QfgGXTGtPCthc2r217JIjyNOHwRsjcYG71qiGP+DX7ZWm+LfFnjj4b/GWyi8L+I/h9PCmoRmQvBJDdKjW88L43MHWVBgqDlsYr6M0n9o34M6xoGoeI7PXrc22kSrBd7gyPFI5ARCjKGy2RtwOcivz58U/8E8fFfjSw8eeNvEXiBP+E78c3+nXz3UIKW1umlSQNb2y4ALqyW6KxKjueTUnxB/YQ8dfEiXxP8QL7U7fTfFuvaho+pLDavIbLzNLSCLY7FVbEiRE42EAnFJsEkfct9+15+zrpXhKfxxqvie2t9NtboWU0jrLmO4JwI2QIWDE9OOe1e0eEvGHh7x1oVv4k8Lz/abG6G6OTaybgDj7rhWH4ivyu8b/ALCvxE8eWvifVoZtNtta8VeINH1m+hdn+yxLpiwrtj/dnDyLFk4UAkkk5r9abKEQRrH5aoQBkL0B9ulMRp0UUUAFFFFABRRRQAUUUUAFFFFABRRRQB//0P7+KKKKACiiigAooooAKKKKACiiigAooooAK8W/aQ/5N98b/wDYC1D/ANJ3r2mvJvj1pd7rfwQ8YaPpqGW4utGvoo0HVnaBwAPcmhjW5+Pv/BuR/wAowPDP/YV1f/0ulr926/ng/wCDcn4peCYf2CE+D97qENr4m8Ja/rFnqunTuI57eT7dNjcjEHBAyCOK/oGXxFoBGft1uP8Atqn+NRDYuoveNmisT/hI9Bwf9Ot8j/pqn+NNXxJoZbBvbf8A7+r/AI1ZFmbexaNi+lZX/CQaD/z/AFv/AN/E/wAaifxHoadLy3P/AG1T/GgLM13Rdu0Cvnj9pT45ab8BPACeJrhPOu767gsLOM9HmnkVefZVJb8K9wXxJoZGTeW4/wC2q/4189ftL/Crwf8AH74fJ4ZutQt4ryxuoL+yl81cJPbyBxnnoygqfrQFmeNeIfjz8RvBv7WMfwx127jm8O2fgu68RXixwr5rT2s8MTbG4OCHbAyBnFbXgr9szwl8bNN1LT/h3a3un6lBo39t2wv4kVZ7farfLtd+fmAPGM1ta18A/B3jv4qH44+Itc+x6xdeHJ/Dk9tFMpgWC6KPKV+YZO5AQcA1yHhD9lbwN8KWGteDfELXt/B4bbwzbi5mGxbdjH8xO4nI8sHpzQVZH0B+zR8adM+P3wn074jacjRm43xTo3Gy4gYxzL+Dg4r38orHJHNfO37Ovw28DfAL4V6d8N9E1CCRbbzJppDIvz3E7GSZhzwGkYmvdP8AhINB/wCf63/7+J/jQS0anloW34GfWl2CsQ+JdB3YW9t/+/q/41KPEOgkf8ftv/39T/GgLM1woHSlrGbxFoSji9tz/wBtV/xqJfEuhk/NeW4/7ar/AI0BZm9X843/AAcWf8k/+BH/AGUvTP8A0XNX9EB8RaBjP263/wC/q/41/NZ/wcAeP/Cnj3xL+zz8APBV7Fqvi3UPiDZX0en2rCWVba3hnaSVwudqjGMnuRSZdJe8fZ//AAXk/wCUUHxG/wCvfTP/AE42lfoh+yF/yad8L/8AsU9G/wDSGGvgj/guR4d17xJ/wSv+J2maHavdT29lZTNHGMtsgvraSQgf7KqSfYV9X/sAfFv4d/FT9jX4YeIPAer2upWieGNKgd4ZASksVpEkiMOqsrAqQR1FHUf2PmfatFVft1l/z2T/AL6H+NMe/tB92VD/AMCH+NMyLtFUlv7Q9ZU/76H+NP8At1l/z2T/AL6H+NAFjYvpXhf7Qfxq0T4D/D+fxtrADsZoLWCP+/NcypCg/N8n2FezHUbTOBKh/wCBCvmf9q74Lab8f/hkfC0V0kV9Z3Vrf2j7/lEttMku047Mqle/XNA15nz98V/2oPiR8P8A9oXT/g1fXdhp1rd+GJdbe4ljeRhcxzxwmEKkbcZcnPtXsN7+1r4C+H9z4d8KfFC6FvrfiCzjubIQoxju2faNsRIHz4JYqQMAH0rG8R/s6ap47+Mlh+0LF4jGi6tFoD6I9i9tDcxKs0iTO4Z2670445FZvxZ/Y60z4w6VosHirxdMmoeG3jutKvYYY1ktb1GGZ0AccNEZIjHnbtcntikynY2viP8AtY+Fvhjq/jC71ieS9Xwrp1pez6ZBEPtKC6eFEbLbVOTMMjdxmtmy/aZ08fEnwh4M12BrW38e6at5pJYAOs3lea0Eg6Z2B2yCelct4z/Y/wBD8eeIvFnibX/FEr3Hi3R7XS59kUaiNrUwMJ1w/JZoASnA59qJP2c21f4u/DzxRr2oi5tfhrY+VazNtR7m6MBt/MKgkAeW7Z560ITsfb9uihc9/wDCrGxemKz11CzVeJUz/vCnLqNoxwZU/wC+h/jTJLpjRuSKcAB0qt9usv8Ansn/AH0P8aab+z7Sp/30P8aALlFU1v7I9Zk/76FDahYqCTNGABnlh/jQB/OZ+2D/AMrB/wCzb/2Leq/+gzV/R/X80X7QHiXRvir/AMHDXwXsfh3cJq7+CfDF/JrZtmEiWgnVxGJGXgFvMXjOea/paR967qmJpPZCTf6pvoa/nF/4IBnHjv8AasP/AFU/UP8A0ZNX9HE5IhbHoa/nB/4IDTxJ47/arDso/wCLoah1IH/LSan1HDZnnnxI8e2//BKr/gsNq/xq+I8EkHwr+P8AZW9nLqwBMOn6tbxxKvnn+FZPIYA8/eFf0x+GfFGheLtDt/EHhq9hv7O6QSRTW7rIjqwyCCpPBFeVfHv4AfBb9pn4b6h8Jfjdo9pr+hakm2W2uVRwD1DpuB2uDyGHIr8SIf8AgiR8YfghJJpv7FP7SXirwL4fdy0Wi3btqNrbqTnbD5052gdsKMVLbRN0z9zfjV8dPhh+z78P9T+Jvxb1m10bSNKhaeaW4kVSVXsi9WYngAA8mvwd/wCCP9r47/a0/a7+MX/BUnxjpk2l6F4x2eHvCkVyuySXTLFo4xdbeyyG3BHqGBrsPC//AAQr0X4k+L9P8bft6/GDxF8Zjpsqzw6TfzPBpYkU5UtbLM8bgejJiv3k8J+GvCngbQLTwv4Tt7ew06xiWC2toAqRRRxgKqoq4AAAxgCmlfcHZbH86P8AwWKH/GzT9jjP/Qw3n/pDe1/Sq4yhGcZ4zX80v/BYW4jm/wCCmf7HXlsDjxFedD/043tf0vbN6EA4J4zQtxy+FH4c/Bz4/wDxR8Y/Eb4heG/F/iHWpjo3ixdN017K2RoYoDmTbL+8XIAGCSDxX2fd/tj2fhz4/wAP7OGq6LqL69eRxzWDssaw3sJAMrxHzM/Ly5BAwoIFXvBH7Dtn8OtS8VXng/xhqdpH4w1QarfxqMnzA27bG+/KKR8pA6jI71o/EX9h/wAH/EbxZpvjzUNc1C31rQ7yG6029iYia1SNNkkKOGDeXLlty5xhiMEVSRDZ5X8Wf2vLr4YT/FzWfC2m32qar4Im0qKSxumVLdjfLbKptyHbjbMGbKrzmtv9tH4xfEbwb+wze/GzwncNoOvx2+lTgxqJDGbu6t45UwTg/JIwHvg16L4p/Ym8CeMdR+IOoa9ql7IfiIlmL5VYqInsUiWF4sNwR5Kk4xnkV13xX/Zb0L4u/s7J+zn4g1e8j08Q2cL3cZPnsLKSOSM7twIy0Sk89Migat1PgT4Lftf+OrH9oqf4c6rfz32hweCR4gni1KFYbp7xBG7LaMC3mKYyxILKAc+ma+ldP/b38NeJdNik8M6NdtdX3ha98S2iTBFVls2ZGichiQdwI4BrqtJ/YV+HT/EKy+KHjzUbvxDrGl6K+g2Ek5KLbWci7HCIGI3sM/NweTXH/D3/AIJ0/D3wFr0OtDX9TvkttL1DRoYJXYIlnqEjyNH985Kb8BsZ4zU6iPN/CX7efxI1vUPhDa6r4UW2j+I0c9xeSeaCLOKKCaYED+IYjHvzXq2lft+fDzVvEGh21vYXg0bxRqF9o+k6ltQxT32niYzREb8gH7PIFOOeOlaukfsFfD7R7HwJaw6vfvJ8P7ieSwkd2JeGeOWIwSAt8yBJSBnPQHFHgz9gL4U+Cr+yWzu7m40rR9Uvda0rT5iWjs72/wDO8+RCWOcmeQqMALnjpRrYehzfwd/4KCeFPi3470LwZ/wjeq6VF4ju9S0+wu7pYhHJdaVNNDOnySswH7h2Ukcgdq/QtXOeea+Dvh/+wH4D+H3iHwn4h0/W7+d/CGqanqtqkjEh5tVkuJJxJ85yA1y+3OccV95CEA8GmvMTJaKKKYgooooAKKKKACiiigD/0f7+KKKKACiiigAooooAKKKKACiiigAooooAKjYbsrjg8GpKKAPxi/aZ/wCCH37K37QPxXu/jn4U1HXPhx4r1Q51C+8L3s2ni7Pdpo7eSJXY9STkk814MP8Ag338HAYHx4+Jf/g7vv8A5Kr+haik4otVGfyb/ti/8EbdP/Z7+GFt438MfHH4jT3M2pWdmVl1u9K7biZI2P8Ax8nnDGvqxP8Ag348JZwfjt8Sh/3G77/5Jr74/wCCov8Ayb5p/wD2H9L/APSqOv0kqeVD9o7H89X/ABD8eD/+i8fEr/wd33/yVVef/g368IqCy/Hb4ln/ALjd9/8AJVf0O0yT/Vt9DT5EHtJdz+TH9kX/AII62P7QPhrxNrHiT43/ABGgk0XxHqujxiLWr0AxWN3Lbxk4uRyVjFfXP/EPx4Q6f8L3+JRH/Ybvf/kqvuf/AIJj/wDIh/EH/sevEX/pzua/TGhRQ3Ukfzu33/Bv/wCD7S0luF+O3xLPlozD/id3vYZ/5+q+Vf2N/wDgjZY/tDfCy/8AHHij45fEeK5tPEGs6Uqxa1eqvlaffTW0R4uRyUjBPv61/VzrH/ILuP8Ark//AKCa/Oz/AIJZ/wDJu+t/9jn4o/8ATvdUcqIUnuj4OX/g338HYz/wvf4lj/uN33/yVTv+Ifjwf/0Xj4lf+Du+/wDkqv6FaKORFe0l3P5NvA//AARss/E37WXjn4E3Xxx+Iy6b4asLG6t3XWr3ezXMUUj7j9pz1c19ZL/wb8eD8c/Hf4l/+Du+/wDkqvvn4Qf8pJPi3/2B9J/9Jrev0eo5EHtJdz+eaT/g348IY4+O/wASz/3G77/5Kr5A/aR/4I62nwa+IXwq8KaL8cfiNJD458SPo94ZNavSUhWwuroMubn72+BQfxr+tivzI/b5APxu/ZzP/U9Sf+mfUKTikONR31Z8ON/wb7+D+3x3+JeP+w3e/wDyTX1r+x7/AMEdv2Wv2PviBL8ZdObU/GfjiRDEuveI7mTULuFDjKwtO8hjyBj5SOK/WWiqUUiHNvQ5vxF4a0nxboN54Z8Q26XdjfxNBPDKodJI3G1lZTwQR61+Dev/APBvt8GtG8Uahq/7N3xQ8bfCjTNTme5m0nQNSuYrISyMWdo4knjRAWJOAoAzX9BFFDihKTR/PR/w4d8Vf9HRfFH/AMG13/8AJdfIHxi/4JRfEv4eftI/Dj4L6b+0t8TJrLxnJcJcSvq13vj8mGWQbf8ASj1MY7iv61QoFfl7+1ECP2+PgNn/AJ+L7/0luaXIi1NnxOn/AAQd8W/xftQ/FEf9xW7/APkupD/wQd8VY/5Oi+KP/g2u/wD5Lr+hYgHrSbFo5EL2jP5P/wBrj/gkp8Sv2efhfF450H9pf4mXU8mo2Nntl1W7xturiOFj/wAfR5CucV9Rj/gg74rKgj9qH4o8/wDUVu//AJLr9AP+CoX/ACbtaf8AYe0j/wBLoK/RqJQYlPsKORD53a5/PQv/AAQc8WZz/wANRfFHn/qK3f8A8l15P8d/+CLnjr4VfBvxH8RtL/ad+J01zo9lJcxxyard7WZBwD/pR4r+nMKB0r5j/bPGf2VvHf8A2CJ/5UciBTZ+G3wa/wCCJ/jv4jfCHwp8QtR/ac+J8Nxr2j2OoyomrXe1XurdJWUf6UOAWOK9K/4cOeK1J/4yh+KP/g1u/wD5Lr9of2VP+TXvhv8A9ito/wD6RQ17zsFHIgc2fzxt/wAEHfFm35f2oPih/wCDW7/+S6+Sf2Q/+CT3xO/aG8M+JNb8R/tL/Ey0fRfEOqaPGItVu8NHYXk1ujH/AEofMVjFf1pbFr8yf+CYAz8PvH4P/Q8+Iv8A053VHKilN2Z8Qf8ADh3xT/0dF8Uf/Btd/wDyXUTf8EHfFY6ftQ/FE/8AcWu//kuv6Gti0bFo5ER7Rn8nX7PH/BJj4lfGD4i/EnwdrH7THxLt4PBeq29hbPHqt3ukSWASkv8A6UOcn3r6sf8A4IMeJZQY5v2oPig8bcMv9rXfIPUf8ffevvD9hhQfjn8fP+xksv8A0jFfpTsWjlRUpu5+dX7C/wDwTM/Z1/YFsNTu/hZDd6p4j15t2q6/qsz3WoXZyGw80pd9uQPl3EcCv0UjBCAHin0VS00M27jJNxXA5r8FPiP/AMEJfB+sfGLxT8WfgT8XvGXwuHjG8bUdU0/QbuaO2mu35eYqk8Y3MST071+91FJoak1sfygeE/8Aglh8bfEP7W/in9nmf9qD4jpp+g6Rb6hFcLf3PmO8vkgqw+1dB5h79q+q1/4IZfE7P/J1vxNH/b9cf/JdfdXwv/5SefEf/sWLL+drX6UbBUxgi3UZ/Paf+CGPxOA4/at+Jv8A4H3H/wAl18j/ABe/4Jc/Gz4c/tJfDb4K6d+0/wDEeay8ay3MdzM+oXIeIQwTSgp/pR6mMA8jrX9ZWxa/L/8AakQf8N9/AL/r5v8A/wBIrqm4oFUZ84/Aj/gh94H+Gv7QPhv9oj4yfFHxZ8U9X8HtJLo0XiC5llhtJZEaNpFV5pBna7Dp3r9zkBA5p1FNKxm5N7hRRRTEFFFFABRRRQAUUUUAFFFFABRRRQAUUUUAFFFFABRRRQB//9L+/iiiigAooooAKKKKACiiigAooooAKKKKACiiigAooooA/Nv/AIKi/wDJvmn/APYf0v8A9Ko6/SSvzb/4Ki/8m+af/wBh/S//AEqjr9JKBsKZJ/q2+hp9Mk/1bfQ0CPzR/wCCY/8AyIfxB/7HrxF/6c7mv0wPSvzP/wCCY/8AyIfxB/7HrxF/6c7mv0purmC0t3uLlgiRqWYnoAByaSGz5y8dftKfC3wlr+ueCdevDb3Gj2K3V3I64ijSZkjjG49WJkXgZr5n/wCCVM8N3+zbq13bsHjm8Y+J5EYfxK2rXJB/EV86ftLa0vjr4sXcHjTwxosttbNAbKW41S4hjuoGCuj3FvHEyyY4ZA2RkDpX0L/wSh2/8MyalsChf+Eu8S4EfCAf2rc4CDj5R29qXUbtY/TOiiiqJPzh+EH/ACkk+Lf/AGB9J/8ASa3r9Hq/OH4Qf8pJPi3/ANgfSf8A0mt6/Rt3CDJoGzmfGnjLw54A8M3fi7xbdLZadYoHmmYEhVJCjhQSckgcCvyw/bG+I3g7x18bv2d4vDOoR3cqeM1uniGQ6w3GiX0kTspAIDKwI+vNfoL+0VcWkXwY1+e9tYryNLcZimdokOXUAl0DMuDyCATkV/Ploj6O37SPwpMdmpv/APhN4TLqH2+71Bpoxol6EiEl3GhVYxhQqkj5RScioI/qAooopkBRRRQAV+XX7UX/ACfx8Bf+vi+/9Jbmv1Fr8uv2ov8Ak/j4C/8AXxff+ktzQXDc/UWiiigg/OH/AIKg/wDJu1p/2HtI/wDS6Cv0ah/1S/QV+cv/AAVB/wCTdrT/ALD2kf8ApdBX6NQ/6pfoKC38JFdSeWoavgL9q79oH4R+Jf2b/H2h6TrcMlxFb3Om4IdQbtEZmhUso3MAjdOODzX3R4lv10zSJr3CFkU7BI21WcjCqT7nAr+eL9oDwF4o8V6H4k8Z+OvDem6bJaf2hcC2/t2WWGOTZLGs8Vjt8szsrc5UY3NzQKJ+4H7KwI/Zh+G6nt4W0f8A9Ioa96AI6814L+ywxb9mT4cc/wDMr6OT/wCAUNe90CYV+ZH/AATA/wCSfeP/APsefEX/AKc7qv03r8yP+CYHHw+8fn/qefEX/pzuqXUpfCz9N68r8WfGP4deDfFVt4K8Q6mlvqd1bvdRwFXJ8mPO9ywUqAMdyK9MM+Dg1+UH/BQq504a/psb28KyNZSPJKNSu7CWaLO1oP8ARI3MiMDgq3GaZKR1n7AWqafrfxi+OmsaTMlxa3ev2E0UsZyro9kpUg/Q1+ndfkJ/wSrbTm1T4pnSLNdPtRf6OIrZM7YlGmxgICwBOBxkgE9SM1+vdA57hRRRQSFFFFAH5p/C7/lJ98SP+xYsv52tfpZX5p/C7/lJ98SP+xYsv52tfpZSRUgr8v8A9qT/AJP7+AX/AF83/wD6RXVfqBX5f/tSf8n9/AL/AK+b/wD9IrqhiR+oFFFFMQUUUUAFFFFABRRRQAUUUUAFFFFABRRRQAUUUUAFFFFABRRRQB//0/7+KKKKACiiigAooooAKKKKACiiigAooooAKKKKACiiigD82/8AgqL/AMm+af8A9h/S/wD0qjr9JK/Nr/gqMcfs+af/ANh/S/8A0qjr9JaCnsFRTOqxtuOODT2O3nNeD+PPj78LPh/NdjxZq8Vo1rJFbtCwJkaSfGwIgBLcHORnFBNj5I/4JjEHwH8QMf8AQ8+If/Tnc1+i+vzQ2uk3N3cxGeKKF3eNRuLqqklQO5I4xX5v/wDBL+QXHw+8eXUf3JPG/iFx7htSuSD6nI556dK/Tk8AmlHYcj8H/ip8Srz4lfES+1Xw74Nk0rTLeK3htWuNBsLyeUKqhg8kr74kUj5dueg4r6s/4JObv+GX7/eMH/hLPEmRjH/MVuew4H0HTpXl/wC0xf8Ax41b9phNE+GP9pHTbY28t8mlwoCYzCM+fNI8RKAkfKpbtxxXrn/BK4k/s5awT1/4TLxPnPXP9rXPX3qVuU7WP0oJA60ZFRyqWGBXgfxu/aF8E/Aa209/FUdzdXGqTGG1t7VA0kjBWc43MqjAU9TVkHzD8IGA/wCCkfxb/wCwPpP/AKTW9fozKuTg9DX5Q/sofEHTfir+3Z8UfG2lW09pBdaVpqiK5CrKpSGBTuCsw6j1r9WpAVHNCY2j4q/bN0d4/A8vjHVPGNx4f0jTYR9psILeG4a9LyKqKElkQE7mAx09TX5T3+8fFr4GC6vNQWWTxx5g03UbW1tXgQ6NfbZAtpNPGQwI4LA4NftZ8Zf2b/hb8ebm0ufiPaz3f2FCkaJM8ceCd3zKvBOeRX5x/tMfA74cfBX40/AG2+H1i9t9s8dN5skjmR3C6Pf4Xc3IUY6e1K3UuJ+09FFFMzCiiigAr8u/2owf+G+PgL/18X3/AKS3NfqJX5fftS8/t8/AX/rvff8ApLc0FRdj9QScc03etDfdrF13W7DQNKn1nVJPLgt13O2M4Hrgcmgk/Pv/AIKgOp/Z2tMH/mPaR/6XQV+jkP8AqV+gr8gf+Chfxk+Hnjb4PR+CvC+qRX+owano17LHCSwSKS/ttu5sbdx3g7CePwr9erXPkLn0pXLex578W9f8HeFfAl74j8ex+ZpdmEkmHlmU/fULhQCT82Ogr+df4w+OPCXjjR/FPiTSvC3h3S2u31EwuNNcagU2y4n89rYbHkHOPMxhjzniv6WtaWR7ULHySenX9OlfgB8Wfij8b/EF78SPDENzPN4Tt7TVI5Y7FHu4FdJGH+kTXgheMgjAWISKOgOOaHsEbH7Ofsr4P7Mvw5I/6FfSP/SKGvetw6V4H+yrj/hmL4cY/wChW0f/ANIoa9zkBbjoetMlljevrX5j/wDBMFl/4V74/Gf+Z58Rf+nO6r6M+Lv7WHgD4PeLk8EarZ32pai0IuHiskRvLjJADMXZB3HTPWvlz/glRqMGu/CXxjrlsrJHe+MtduERxhlWXUbhwGwcZAPOCaXUpPRn6hyxMVODg4PP+f5V+O3x91v4n6J8WLXw1eeJIfEeozCa8jW00LS7n+zbFZSqmWW5mjb5CVB25bviv2KmAZSrdwQa+Nb39hL9nbUdeufEt/ptzLd3ksk0sj3UhLGV/MZeT9zdzt6e1Mg+fP8Agmzcy3vj/wCM15NeLqDSazppa5VBGJD9gXLBF+VR7Div1ar8wf8Agn9pFhoHxf8AjloekRCG0s9esIYo1GAqrZKFA/Ac1+n1BUtwooooJCiiigD80/hd/wApPviR/wBixZfzta/SyvzT+F3/ACk++JH/AGLFl/O1r9LKSKkFfl/+1J/yf38Av+vm/wD/AEiuq/UCvy//AGpP+T+/gF/183//AKRXVDEj9QKKKKYgooooAKKKKACiiigAooooAKKKKACiiigAooooAKKKKACiiigD/9T+/iiiigAooooAKKKKACiiigAooooAKKKKACiiigAr5l/aQsvj6PDv9r/A/X4NHkskMk8ctpFdNMAeQvmcLhcn8K+mq+c/2l/GPw90D4bXeh+PvEK+G11ofYra63uj+dJyqq0YLLuwQT0AzQNH4w/Hz4t/Fz4m/CvUrbxvqlzrOkWGraMsVzcadBYKt2bqDfGnlMxcfe5xjiv6JwMHAPSv5zPjzL4mtvh5feH/ABN4stNbOj3mg2UFhp0klxbW8UVxbKksk7ogad1UEgbsbm5r+jQEHJFBUzJ1mw/tfTLjS2keEXEbRl4mKuu4YyrDBBHUEdK/ED41fBX9m74e/ER9a+J1z4jvtY8Oz2a6PLcape3F1dPcMgYxKWZNqFiDlhxmv3CvdQtdOtpL29cRxQqXdm6BVGST7Yr8Wv2kYdM+LfxYj+IPg74gWBW2uLRLG3a9u7cRqCgl+WKJgXJBAHQg5JFTJ6Cie+/8EuWH/Ct/HAUMA3jXXyN3X/kI3HB/2h0b3r9O3+7X5jf8Eus/8K28cliGJ8a6/lh/FjUbj5vfPXJ69a/Tl/umnHYJbmRqqj+zLn/rk/8A6Ca/PH/gllj/AIZ21rH/AEOfij/073Nfohqn/ILuf+uT/wDoJr88P+CWXH7O2tD/AKnPxR/6d7mgVz9IpDgV+cn7f/h99TsPC2vX1jPcabpV+013JaTPFcBDDIgWMJgsxLDuOK/Re5cIm418A/tr3UQuPCn2LX49D1lL1n04Xc8kFnJN5UmfOMYbICbsAqecUPYEfH//AATq/tCP9qj4jSXuk3ehLJp9m8Fteyma4NuVhMMsjEtgumCVycE+1fuAgzHz2r8Xv2CtP1rT/wBr/wCJkeveI18VXkun2M81/ESYvMljhYwxE8+XFu2LwMhQcCv2ijGI6Udhy3IjgYX1r8yf29lA+OP7OhH/AEPMv/po1Cv04r8yf29/+S3/ALOn/Y8y/wDpo1ChMcNz9PqKKKogKQ9KWkJwCaAPhT9qTVP2l/CF6vjb4deKIdM8NW5QXluunwXU8abcGRTLgkl8ALnvX54eGPiD8SviP+1P8EPEnxKnuLyQ6vqsdnc3NpFZSTW6wXYVjDEzKvQYycmv0U/a813wPrtpp3wxk8VwaD4kuJVvrC3muJLeO4+zncVmkjB2x8ZIbqQOK/NnwZqet67+1j8HNX8R+JY/E15ca9q5lmtlcWsBEN5mC3MiozIn3S20AkUFKJ/QQHYj1r5q/aW+GVh8QPBb6lf32r240gPcCDSbyaza4Oxl2SNEyll+bJBz06cV9KcKmFrxT43fEnQfAfgq6XUNXttHvr2N4rKS5yVMpUnGADk4B7UMSP5/PiV4V/Z88DeAdQ0D4MpqX2++u9H1DVjLc3Nzbx3EmpWheNmuMZmDtjgdAea/pvgJMS5GMCv5lvijP4wt/Ber2OseJLbXrOa90W4b7Onkg3D6jaZ/dqArbQWGT6Z61/TPbDEKjOcDr1qIO+pdQa6hjhq+X/2xbW3tf2VPHkdsixqdJuGIUYGTyT+Jr6iPU18yftmf8mr+O/8AsET/AMqciFudP+yoP+MX/huf+pW0f/0ihr2m7uHTdt/hx/OvFv2VP+TXvhv/ANito/8A6RQ17VdFUySCSfSqB7n5L/tjz+BtG+NDeI/iDpN1LbvpQitpbK7u4p7m68yPZAIoFMeMAnczjpU//BIORn+AevTGCSyD+JtXP2WU75IS17OfLdjksw7k9xitr9qbxF4w0344vY/D7xDZWN+2khDBql7NbWtsjSRk3McUaSLJID0yoPOM4rO/4JGJdQ/AzxIl9djULgeKdZE12vAuJPt0++b6O2WHpnFRbUvTlP1kkUcVGcNxUsnaogAKp7mZ+b37DAx8dfj5/wBjJZf+kYr9Kq/Nb9hkk/HX4+Z/6GSy/wDSMV+lNMqW4UUUUEhRRRQB+afwu/5SffEj/sWLL+drX6WV+afwu/5SffEj/sWLL+drX6WUkVIK/L/9qT/k/v4Bf9fN/wD+kV1X6gV+X/7Un/J/fwC/6+b/AP8ASK6oYkfqBRRRTEFFFFABRRRQAUUUUAFFFFABRRRQAUUUUAFFFFABRRRQAUUUUAf/1f7+KKKKACiiigAooooAKKKKACiiigAooooAKKKKACvjP9qT9mDXv2h7rSm0vXYNGSwEqv8AaNOg1EOJUZDtSfhWAbgjkV9mUUDTPwF/aI/ZS179lf8AZqi8NN4ji1rSZda0oQQRadBYmOT7XES7mEnzWPPLcjNfvwM7c96/N3/gqL/yb5p//Yf0v/0qjr9JDQNs4XxrPHZeFtT1C6hSWOG1mdkkG5GVUJIYYOVPcYP0Nfzr6Z8ZLafxxD5fiTwVBp0MkVxHa2/h3Ms3myqBaGRrNfLaPfjzFYk7c96/pUubaG5ia2uVDo4KsrDIIPUGuKf4ZfDtbYxpodiAvIHkJxjkduxpNArHwB/wS0kWb4ZeNpkXYr+M9eIX+7nUbj5B/sr0X2A6V+oD/dr8zP8AgmIqp4B8fogwB458QgY7Aalc1+mEjYOKOgS3M3Vf+QXc/wDXJ/8A0E1+eH/BLP8A5N31v/sc/FH/AKd7qv0P1X/kF3P/AFyf/wBBNfnf/wAEsuf2dtaP/U5+KP8A073NHUR+j9wDs4r8yfj3a2nxavde8J+IvEPh3R7zQ7uKexXXLG2uhBF5RDuqXKlXLhj0yQDX6cThih2jNfPHxU/Zd+AHxxv7XVvi54S0zXbuyIMMt3bxyuoHQbmUnaPSmJH5o/8ABPC4tpf2s/iVHYizaCHTrGOObT7dbS2nVI4R50cKKqrvxu4GOa/bdGLR5PWvzC+A+j6b4f8A+ChXxS0HQbaK0srPRNIiigiUJHFGttbBURVwFUADGK/TuPHl8UkipDCDX5lft78fG/8AZ0P/AFPMv/po1Cv02r8yf29s/wDC7P2dCf8AoeZf/TRqFCHDc/T6iiimQFIwypHrS0UAfm9+03+wlrP7RXi6/wBW/wCEnt9K0+/t4YXgk0m2vpAYWRgUmmIaPJTkryckd6+XNW+Efib4J/tZ/ALwJ4j1qPXDBd3/ANnlis4rFI4vst1tjEMOUyBgFurEZPJr9xK/Lr9qL/k/j4C/9fF9/wCktzQkXF30P08dXCcDmvzk/wCCgnjLTvB3hDRRcvolldXF2/kXetWRvokZIZH2pGIZsNJt2lsDAJOc1+kTZxxXOaz4W8OeJWi/t+xgvfJO6PzkV9p6ZG4HBwaCUfzJ+KviBH4o+E11bXeq6Dq93eXmj3jroulf2c1gP7StVMPmeRE0wy2MtyV7V/UTap5cCoOMAdOn4e1fmL/wUq8IeFfD/wAALa90TTre0mfXNIRnijVGK/b4DgkDpmv09gOYVPsKSRUthp6mvmT9s3/k1fx3/wBgif8AkK+mz1NfMn7Zv/Jq/jv/ALBE/wDIUpErc6f9lX/k1/4b/wDYraP/AOkUNey6rNLbWU09uN8iIzKvqQCQPzrxr9lXn9l/4bn/AKlbR/8A0ihr2y4RnJ2daoHufj18W7DS/idpkXxM13xZ4Ug1PS5bmG9i1PS7S6uXVZ2EVqqzIZARhV3KDkjPTmul/wCCQ0zz/AXxBP5KW2/xRrDeVGuxEBvpztRMAKB6ACvtDxB+yL+zT4q+IUXxU8SeCtIvdfgcOt7LaRNLvHRixXO4djnNfLv/AAS/jX/hAPHiqPlXxx4hA9RjU7oYx7dB7Uraj6H6eydqjqSTtUdHUk/N39hj/kuvx8/7GOy/9IxX6VV+av7DH/Jdfj5/2Mdl/wCkYr9KqZU9wooooJPhX4y/t+fDj4H/ABW8R/CXxN4W8TX134T8Mjxlqd1ptra3NvFogkeGS7RRdLcS+XJHIrQxwtP8hZY2Uhj5x8V/+Cn3wr+G1t4s1nRfDWseJtI8M/DWL4pQahpz2Sw6noszso+yCe4jcOqIZGEyxHaMIHYgH4m/bS+HS/FP/goH45sPEWn/ABHsPD958HI9DXVfCmhaxPbXWoHVLmc2H2mKxnsbndFKheGVmiZWKycbgPlD4t+Fv2ptQ+FXjXQ/jB8ONaj8b6h+yqfC9zaeF/DepXWljxBJNcbNLs30+2mtDMqSR5ggkZY+QuEXjChNyoKpLe0/nZYnl/GnTfT4uqnFLu9jD2/J0vD8XQv+E6n3dHF3/Xf4IatFr/8AwUi8d67AhjS98IadOqt1USC0YA47jNfqFX82H/BKyXx/pn/BSH4saR8efDlzZeOLzw5aXh1iLTb610+/0yQ2hsvKW5QmwligEcVxYzOJhMjOTJu8w/0nk45NduJgozfLt/Wny2d7O900meVhakpU48+9lf8Arz3XlY+PtD/b4/ZL17xefA0Hi0WmoLrp8Ln+0LK+sIBrYUMNM+03dvFB9tZWUpb+Z5rhl2qdwz4B+1J/yf38Av8Ar5v/AP0iuq/FLWPiTouv+Lvi74k8QatpPib4E6B+0dFq/j2PRczaxpUVlaaXPpuqyTxTSodKi1K3iF8Ft0kWJJGWbasoFbxx+1d8WvjV/wAFbfDVva+MdOtNZ8F+MdTh0HwqrPJLqnhwaPJNYS29uCsc8GqK5mTUkMojZiu4RxlK5adSLw8Kkt3FTfknClLRbt3qOyV7xi2rtNHdWouNacI7KTivVTqR32WkFduyTavo0z+onxZ+0H8NvBXxu8J/s96/Ldx+JfG1tf3WlItncNbSR6aiyXO67CfZ1dFZT5Zk3kEHbjmvba/l7/Zl/ae+HX7Qv7VH7H/xl8V/EhdX+I2t6R4ttPF2hz6isa6PrsmnwGXTTpBYCwmgmElvGnlpLMkYZzK37w/1CV2VsO6aSlvre2q0bWj6q1nfrv1OaM1LVfjo/mt1rfRhRRRXOUFFFFABRRRQAUUUUAFFFFABRRRQAUUUUAFFFFABRRRQB//W/v4ooooAKKKKACiiigAooooAKKKKACiiigAooooAKKKKAPzb/wCCov8Ayb5p/wD2H9L/APSqOv0kr82/+Cov/Jvmn/8AYf0v/wBKo6/SSgbEIBqORF8tvoalpkn+rb6GgR+aP/BMf/kQ/iD/ANj14i/9OdzX6WSKCQa/NP8A4Jj/APIh/EH/ALHrxF/6c7mv0sf71T0GzN1X/kF3P/XJ/wD0E1+d/wDwSy/5N11r/sc/FH/p3ua/RDVf+QXc/wDXJ/8A0E1+d/8AwSy/5N11r/sc/FH/AKd7mjqI/Sem7FBzinUVQH5wfCBR/wAPI/i2P+oPpP8A6T29fo6QApxX5x/CD/lJJ8W/+wPpP/pNb1+jp6GgbKzHFfmT+3z/AMlv/Z0H/U8yf+mjUK/TcjIxX5kft8f8lv8A2dP+x5k/9NGoUkET9QKKKKYgooooAK/Lr9qL/k/j4C/9fF9/6S3NfqLX5dftRf8AJ/HwF/6+L7/0luaC4bn6i0gAHSlooIPzh/4Khf8AJu1p/wBh7SP/AEugr9Gof9Sv0FfnL/wVB/5N2tP+w9pH/pdBX6NQ/wCqX6Cgt7DD1NfMn7Zv/Jq/jv8A7BE/8hX02epr5k/bN/5NX8d/9gif+QqZErc6f9lT/k174b/9ito//pFDXvRUHrXgv7Kn/Jr3w3/7FbR//SKGve6oHuN2L6V+ZP8AwTAUf8K/8fn/AKnnxF/6c7qv04r8yP8AgmB/yT7x/wD9jz4i/wDTndUupS+Fn6ZydqjqSTtUQz3oe5B+bv7C/wDyXX4+f9jJZf8ApGK/SuvzU/YX/wCS6/Hz/sZLL/0jFfpXTKnuFFFFBIUUUUAfmn8Lv+Un3xI/7Fiy/na1+llfmn8Lv+Un3xI/7Fiy/na1+llJFSAgEYNflx+1Ba20P7fnwAaGNVKTX6LgAYUWd18o9B7V+o9fl/8AtSf8n9/AL/r5v/8A0iuqGJH6cx2ttFI00Uaq7klmAAJJwCSe+QB+Q9KnoopiCiiigAooooAKKKKACiiigAooooAKKKKACiiigAooooAKKKKAP//X/v4ooooAKKKKACiiigAooooAKKKKACiiigAooooAKKKKAPzb/wCCov8Ayb5p/wD2H9L/APSqOv0kr82/+Cov/Jvmn/8AYf0v/wBKo6/SSgbCmSf6tvoafTJP9W30NAj80f8AgmP/AMiH8Qf+x68Rf+nO5r9L2GRmvzQ/4Jj/APIh/EH/ALHrxF/6c7mv0xpIbMjVgw0y4/65P/6Ca/O//gll/wAm7a1n/oc/FH/p3ua/RTWP+QXcf9cn/wDQTX52f8Es/wDk3fW/+xz8Uf8Ap3uqOodD9JqKKKYj84fhB/ykk+Lf/YH0n/0mt6/R09DX5xfCD/lJJ8W/+wPpP/pNb1+j1A2QYavzM/b2XHxt/Z0J/wCh7k/9M+oV+nVfmT+3z/yW39nT/se5P/TPqFRJaDjufptRRRVkhRRRQAV+XX7UX/J/HwF/6+L7/wBJbmv1Fr8u/wBqL/k/f4Df9fF9/wCktzQVE/USiiigk/OH/gqCD/wztaf9h7SP/S6Cv0ah/wBUv0FfnR/wU/8A+TdbX/sPaR/6XQV+i8P+qX6Cgt/CMPU18yftm/8AJq/jv/sET/yFfT5QE5/z/OvmT9s5VH7K/jv/ALBM/wDKk0Stzo/2VP8Ak174b/8AYraP/wCkUNe914J+yp/ya98N/wDsVtH/APSKGve6YPcK/Mj/AIJgf8k+8f8A/Y8+Iv8A053VfpvX5kf8EwP+SfeP/wDsefEX/pzuqXUpfCz9NHBPSo1jYCp6KZB+av7C4/4vp8fP+xksv/SMV+lVfmr+wv8A8lz+Pn/YyWX/AKRiv0qpIctwooopiCiiigD80/hd/wApPviR/wBixZfzta/SyvzV+F//ACk8+I//AGLFl/O1r9KqSKkFfl/+1J/yf38Av+vm/wD/AEiuq/UCvy//AGpP+T+/gF/183//AKRXVDEj9QKKKKYgooooAKKKKACiiigAooooAKKKKACiiigAooooAKKKKACiiigD/9D+/iiiigArD8Q6k+k6Neaoi7jawSTY9dilsfjityuU8cxg+DdXfv8AYrj/ANFtTW4Hwj8JfjR+2V8Z/CI8e+E9G8L2+nXFxPHbpc3tysuyKQoCwW1YAkDPBNem/wBpft2f9Azwh/4H3X/yJVD9glR/wzXpTf8ATzef+jmr7Lqm7MSPkP8AtL9uz/oGeEP/AAPuv/kSj+0v27P+gZ4Q/wDA+6/+RK+uwSetRGXa2GpXGfJP9pft2f8AQM8If+B91/8AIlH9pft2f9Azwh/4H3X/AMiV9btIFAY4APc0u/vRcD5H/tL9uz/oGeEP/A+6/wDkSj+0v27P+gZ4Q/8AA+6/+RK+t1kBGTxnpT1O4ZNFwPkX+0v27P8AoGeEP/A+6/8AkSj+0v27P+gZ4Q/8D7r/AORK+vKKLgfIf9pft2f9Azwh/wCB91/8iUf2l+3X/wBAzwj/AOB11/8AIlfXlIRmi4H4gf8ABSC//bGf4EWX/CV6f4YS3Guabg295cu277THtyGtl4zjNff41X9ut2Zf7M8I8f8AT9dZ/H/RK8h/4KgjP7Pmn9v+J/pf/pVHX6NmJd5YetJS1Kex8j/2l+3Z/wBAzwh/4H3X/wAiVHJqn7dYUj+zPCPQ/wDL9df/ACJX2BUTxhst7Gnck/Dj/gnTf/tiL4J8c/8ACL6f4YeP/hNNe803F5coRN/aNx5gXbbNld2cE9u3p+iH9pft2f8AQM8If+B91/8AIleG/wDBMkf8UD8QP+x68Q/+nK5r9LqmL0HLc+MdU1P9uo6fcCTTPCOPLfOL66zjaf8Ap0r4K/4Jr6h+2MnwE1geE7DwxJbf8Jd4k3m5vLlH83+1LjzAAtsw2h87Tnp2Fftnqij+zLn/AK5P/wCgmvzr/wCCWQx+znrf/Y6eKP8A073NNvUfQ9o/tL9uv/oGeEP/AAOuv/kSg6n+3YOf7M8If+B91/8AIlfXlB54p3JPxD+FWp/thn/goD8Uns9P8MHUzpOl+er3lyIgvkW+3a32Yk8YzxX3+upft2Y/5BnhH/wOuv8A5EryL4RRg/8ABSH4uD00fSf/AEnt6/RqkmNnyC2pft199M8I/wDgddf/ACJX5z/ts6n+2JN8YfgG2v6f4YWdfGkn2MQ3lyytN/ZV8MOTbAhdm715xX7qkZGDX5lft6RCP41/s67e/jmTP/go1Dj6UpS02HDc97Opft15/wCQb4R/8Drr/wCRKT+0v27P+gZ4Q/8AA+6/+RK+vT1pKq5J8h/2l+3Z/wBAzwh/4H3X/wAiUf2l+3Z/0DPCH/gfdf8AyJX15RRcD5D/ALS/bs/6BnhD/wAD7r/5Er84f2kr/wDbAb9tv4JNqmn+GV1ATXv2VY7y4MZP2a4zvJtgRxnoDX7tV+YX7UA/4z2+AvvcX3/pLc0cxUT35NU/brPH9meEP/A66/8AkSn/ANpft2f9Azwh/wCB91/8iV9chADmn0XJPxG/4KOal+2O/wAA7dfFGn+F47f+2tKwbe8uXbd9th2/etlGN2M+1ffMOpft1+Wv/Es8Ijgf8v11/wDIleSf8FO0A/Z1tv8AsPaR/wCl0Ffoyg2xqB/dH8qV9S3sfIh1L9u3HGmeEP8AwOuv/kSvnX9rXUv21n/Zq8arrmneFVtP7Km80xXt0XC45wDagE/jX6jmvmX9slB/wyx47/7BE/8AIUORK3Pmv9mfU/23E/Zy8ADSNN8KG0HhvShCZb26DmMWcW3cBakA464Jr3Ean+3Ywz/ZnhD/AMDrr/5Er0P9lpAf2Yvhuf8AqVtHP/klFXvIAAwKakDPkJtS/brxzpnhH/wOuv8A5Er86P8AgnLqP7YcPgTxuPC2n+GZEPjTXvNNxd3Knzf7RufMC7bZsruzgnHFfuoRng1+ZX/BMSMP8PPHzH/oefEX/pzuqnm1Gtme9f2l+3Z/0DPCH/gfdf8AyJUT6r+3WPvaZ4QwD/z/AF3/APIlfYNM8sMetVck/D79jLUP2xF+M/xuOg6f4Ya4PiC0+1Ca8uVUP9kGNhFs2Rj1xX6Ef2l+3Z/0DPCH/gfdf/IleL/sODHxy+Pft4ksx/5Jiv0kpRZU9z5D/tL9uz/oGeEP/A+6/wDkSj+0v27P+gZ4Q/8AA+6/+RK+vKKdyT5D/tL9uz/oGeEP/A+6/wDkSg6n+3YOf7M8If8Agfdf/IlfXlB54ouB+HXw51H9sH/h4x8QJLTT/DJ1Q+G7Pzka7uRCEzbY2sLYnPT+Gv0HXU/27CP+QZ4R/wDA66/+RK8X+GKAf8FOfiOP+pXsv52tfpKoxxSTKkfIL6n+3WMH+zPCP/gddf8AyJX5xftHaj+2A/7b3wQfVtP8Mrfi4v8A7Ksd5cmJj9kuc72NsCOM9Aea/dpl3V+Yv7UCAft8fAT3uNQz/wCAV1SkwR9ADUv26/8AoGeEP/A+6/8AkSj+0v27P+gZ4Q/8D7r/AORK+vBxxRVXJPkP+0v27P8AoGeEP/A+6/8AkSj+0v27P+gZ4Q/8D7r/AORK+vKKLgfIf9pft2f9Azwh/wCB91/8iUf2l+3Z/wBAzwh/4H3X/wAiV9eVGz4OBRcD5H/tL9uz/oGeEP8AwPuv/kSj+0v27P8AoGeEP/A+6/8AkSvrjeab5oBw2AfQmhsD5J/tL9uz/oGeEP8AwPuv/kSj+0v27P8AoGeEP/A+6/8AkSvrbzT6VIjb1zRcD5F/tL9uz/oGeEP/AAPuv/kSkOpft2Y/5BnhD/wPuv8A5Er69pRycUXA+YP2efi78SvH+ueLPBfxTsLKx1jwpeQW0psJXlgkW4gWdSGdEPCsM/LX1YjblzXxZ+z1GH/aF+Ma9ManpuP/AAXw19qAYGKTVhIWiiikMKKKKACiiigD/9H+/iiiigArl/HH/Il6v/15XH/otq6iuX8cf8iXq/8A15XH/otqa3A+Tf2CP+TatK/6+bz/ANHNX2UelfGv7BH/ACbVpX/Xzef+jmr7JPQ057iWxF5iqMdK/lt/4LTf8HD/AIR/YO8QXH7Pf7OlrB4m+IIjxdzuym008sMjf97dIMj5dvHPIr9+v2x/i43wF/ZY8e/GCP7+haPcToR1EhXYhHuGYV/ki/shfBPxr/wUs/b50L4b+IL+WW/+IGsy3eo3cjFnEbl7iUhjznAKj61cI9WKT7HvPj7/AILUf8FWPjTr02vv8StegDOW8jSDNDAnPA2wELx9K+jP2Vf+Djv/AIKU/s0eLrY+O/EUnjjRkcC60/WgWmaPPO2WQO6n06V/olfsz/8ABMT9ib9lf4d2nw3+HXw/0eSG0iWOW7u7OGa5uGA+Z5JHUsSx5xk1+If/AAX3/wCCKX7OHxU/Zj8R/tQ/Anw7Y+FPGfhCD7bKNPiW3hvYFYI6SRxqqlhndkjtT50xNM/Z3/gmj/wUo+CH/BTD4HxfFj4VyG11C1xFqmlTEefaTdCCATlCRlT6Yziv0kjzt5r/ACqf+Dbf9q3xd+z7/wAFJvCvgzTbqRNE8fiTS9Qt9x2MRGZkYjpkGIDPXmv9VkDFRNDi7i0UUVBQUm5aCAefSvhT4uftkX3ws/ak8O/s3zeENQvovEFhcaimq2/lmFI7ZcuCrSBid3ygBepppXA4z/gp+wP7Plhj/oP6X/6VR1+j5+8frX4d/tGftTeDP2t/2O0+IvgexvNPtrLxlBpUkN8ipKJbHURbucKzcFkJGTnHav3FPU1PLZ6lX0QlI33T9DS0jfdP0NMk/NP/AIJk/wDIgfED/sevEP8A6crmv0tr80v+CZP/ACIHxA/7HrxD/wCnK5r9LaSGyjqn/IMuf+uT/wDoJr86v+CWf/Juetf9jp4o/wDTvc1+iuqf8gy5/wCuT/8AoJr86v8Agln/AMm561/2Onij/wBO9zTfQfQ/SOiiigk/Oj4Rf8pIfi7/ANgfSf8A0ntq/Revzo+EX/KSH4u/9gfSf/Se2r9F6BsK/M39vf8A5LZ+zp/2PMv/AKaNQr9Mq/M39vf/AJLZ+zp/2PMv/po1CpnsOG5+mZ6mkpT1NJVEhRkUVk63ez6bpN1qFtA1xJBE8iRL952VSQoyQMkjAzQBq7lr8wv2oCB+3x8BFz/y8X3/AKS3Nc/4B/4KVaz8RPg9qHxF0D4Y69cajb69eeH7fTI/I8ySexkljmkZzMESNTC/JYdq+eNO/aj8PftVftefBPxPpOnXOjX+janqWn6jY3WwvBPHb3akboneNgdpwVY8enSqcWtxxdz95aKiUfNyealqRH5z/wDBTz/k3W1/7D2kf+l0Ffouv3F/3R/Kvzo/4Kef8m62v/Ye0j/0ugr9F1+4v+6P5UFv4Ra+aP2yf+TWPHn/AGCJ/wCQr6Xr5o/bJ/5NY8ef9gif+QpPYlbnQfss/wDJsPw3/wCxW0f/ANIoa93rwj9ln/k2H4b/APYraP8A+kUNe70IHuFfmb/wTC/5J14+/wCx58Rf+nO6r9Mq/M3/AIJhf8k68ff9jz4i/wDTndUuo1sz9MqUdRSUo6iqJPzb/Yc/5Ll8fP8AsZbP/wBIxX6R1+bn7Dn/ACXL4+f9jLZ/+kYr9I6Cp7hRRRQSGcU3co718z/tc/tCXX7L3wS1P4yxaBdeIotLMQltrQoJAssixBvnZBjc4718v/E/9v8A8Q/DvR9L8SWXw11zVdNbSrXWNWvIvs6w2EFzHHJhmeddzoJBkKDnBq1BvUVzV+GRA/4Kc/Ec/wDUr2X87Wv0lr8q/wBnXxnovxG/4KA+L/H/AIcZm0/W/Bel31sXG1jFcJaSJkHodrDNfqmM96guQtfmN+1D/wAn8fAP/r41D/0iuq/TmvzG/ah/5P4+Af8A18ah/wCkV1SYRP05ooopkhRRRQAVm6nqGn6TZTapqky29vbo0kkjnCoqjLEnsAK0q/CX/g4n/ak8Q/svf8E1fFepeE53tdU8TNHo9vPGdrIJnUyYI5GYww/GmhM/EH/grZ/wdGeIfA3jvWPgB+wNFA50uV7S98R3Kq6+anyutsh3AhWBG47enFfzK6v/AMFeP+CrPi7U28Vy/FDxScsXDWslykA7/KqNsA+nFfQ//BAv/gmh4W/4KSftbXGkfFRnl8I+ELf+1NUiUnddEuqrGTnPzO6u+evPWv8ATE8I/sOfsieBfB0Hw/8ADfw38OwaTBEIFh/s+3IZAMfNlPmJ7k9+a1ckiIps/gR/4J7f8HRn7WnwO8Zad4Q/a5lXx14QmmWK5umVUvrVW4LhjzJt6nc4Nf6I3wJ+OHwy/aL+FWjfGP4R6nFq2g65bpcW88Zzw4yVYdnU8MPUGv4Of+Dmf/gj78Ff2YvDOm/thfs06ZFoGnX98LPWdKt1CQK8gZlliQYVASBkADqa+qv+DPL9p3xX4j8KfET9lfXbl7jT9CC6vp4ckiJZXRZETPQM8hbtRKKauhptbn9vdKOoqNT2qQdRWJZ8e/s7/wDJw3xj/wCwnpv/AKb4a+0a+Lv2d/8Ak4b4x/8AYT03/wBN8NfaNXPcSCiiioGFFFFABRRRQB//0v7+KKKKACuX8cf8iXq//Xlcf+i2rqK5fxx/yJer/wDXlcf+i2prcD5N/YI/5Nq0r/r5vP8A0c1fZVfGv7BH/JtWlf8AXzef+jmr7KPIxTnuJbHyn+278Jbr47/sj/EP4Q2JPn65otxFFju6jzFX6kriv8nP/gn38etS/wCCcX/BQzwr8T/HtnJAfBerzWOqwuuHjTD28pwfQnI7Yr/Yz8oetfyO/wDBbj/g3Ng/a/8AFN/+0/8Asiy22k+N51Mmo6VKDHBfsBy6MgbbKx5PADEkk5qoz7kyif0t/BH9qH4D/tDeA7H4lfCjxVp+qaVqMKTRMs6K6hxna6lgVZehHr3r8U/+C/f/AAVD+BP7Mf7HHin4KaVrVprHjbxpaf2faWNrIsrRI5DPLIVJAG1SMepFfwRa1+wt/wAFXv2WdXuPB9j4R8Y+HHDlWTSZnSF+eo8iTGD15617X+zb/wAEQv8Agp9+2r49gutZ8KajpdtdSAXet+IJThUJ+YkkySMfQYxVeztqJzvodj/wbnfsy+Lvj5/wUy8F+ItJtnbSPBJk1XUZwDtRRE0SqT6s0ike1f6u6nIyDnPevyo/4JT/APBKr4O/8EvPgifAPgeT+1fEWq7ZtZ1iRQJLiXqVU8kRqThRxwBwK/VdPu1nKVy4qw6kPAzS0VIynOZBE7RsFbaSGPQcdTX4m2Gt+LPEX7XZ+M3x/wDHHhG0i8E22o6doUFhdlpbozyl4xdAxIIjGo2ttLc1+0PiRdvhzUGB6W03/oBr8Zf+Ca/7Kn7M/wASf2edT8W/ELwFoOuarc+K/EQmu76wgnnk26nOBukdCxwBxk9KuAmfD+ra3H8K/wBk7xD4Z+LPiTw62o6x8Qv7ctk0m8e5BgvtTa6JbfHGQVD9OgA61/Qf/wANX/s3l8/8JtpOP+u4r4M/a61L/gkL+w/4cg1/9pDwt4M0Q3rYtrZtKt5Lic9fkjSIk4xnnArmf2OfiB/wRx/briu4v2d/C/g/Vb6wybmxk0m3huUUHG4xvECQeCMZ4pbu7BPofo9/w1f+zZ/0O2k/9/xUT/tX/s3ZOPG2k9D/AMt1rnT+wx+xhj/klXhb/wAFVr/8br58/aN+HH/BLv8AZP8Ah7P8UPj/AODvBnhzR4OPNuNMtsu3ZUVYizE9sCnZArniv/BOH9o74DeH/AvjuHWvFum2zTeNdflQSTBS0b6jcMrDPZgQQfSv0U/4av8A2bP+h20n/v8AivyU/ZM/aW/4IZ/tgeNX+GvwU8PeD315gXjsrrR4LeWYdSY98QDdfXNfp/8A8MN/sYnj/hVXhYf9wq1/+N1KSW422buo/tXfs3Np9wi+NdKJMTjicddpr4D/AOCaf7RfwK8LfADWNP8AEPizTrOeTxf4lmVJZQrGOTVblkbB7MpBB7g19PfEr9mn/gnp8G/BmofET4m/D/wdouiaZGZrm7udNtFRFH/bPJJ7AV+Y/wAHf26v+CA3xz+J8Xwk8FaZ4PGqXkhhtGutFhhiuXBwFikaEA56jOOKLXC5+0g/av8A2bSOfGukj/tuKU/tX/s2f9DtpP8A3/WuNg/Yh/YunjEkfwq8KspAII0u1IIPQg+XyD2qprH7GX7Dfh7SrjXde+GfhK0srSNpZppdMtFSNFGWZiY+gpq3UWp8bfCj9pL4EW//AAUH+KniC58WadHZ3Wk6WkUzSgI5W3twQrdCQQQa/QRP2rv2bcc+NtJ/7/ivxLX9v7/g31k+LI+EkVh4Oa9a5+x/aho0X2QzA7dnneTjrx6Zr9fNI/Yt/Ye1zS4NZ0b4Y+E7q1uo1lhlj0y0ZXRwCrKRH0IOafLbcbd9jt3/AGr/ANmwD/kdtJ/7/ivzp/bd/aJ+Buv/ABg+AN9o/ivTriHTvGsk1yySgiKI6VfJvcjou5lXPqRX1L8Yv2cv+CfHwJ+GWsfF/wCJfw38K6doOgQfab24Ok2x8uPcF3YEeerDpX5BQf8ABUb/AINz7iA3FvaeEmjAyWTQkIUHoSRBgU+RPQSk0fvkf2r/ANmzJ/4rbSf+/wCtdn4L+Mnws+JV1LYeANfstXmt13yR20quyrkDJA5xkgV+cP7H0n/BJv8Abu8Iaj46/Zn8FeE/EOl6VcC1uZk0i3QJKQSF+aIHsap+B/hF8Lfg7/wVOt9F+E3h/T/Ddnd+BJ5J4NNt47aORxe2wDOsYUMQO5ocUCZ+uRLAfKa+WP2tPHfxO+H3wy/4SL4Vapoum6mk4TbrsphtZ1IIMfmBJGVh1GF5xX1XsFfkx/wVM8MeHvGOqfAzwp4rs4dS0u/8dLHc2lygkhmQadeMFkRgVYZAOCOoFKA2fO/w51DXfgN+y/N4P+HvjjwfrPibX9a1LVtd0+8vHhtJE1Wea4lt4Z1haRfLabAbYuQvvXyT+zr4d8F/s0/tAfCmDxR4o0NILjXdV1SW1065a4ttNS5iu2EZuJEjdyTIMllGD0zX76zfsOfsXQB5ZPhZ4VVVyWY6Xajgev7vp3r8lPjN+3F/wQM+A3xPl+EPjbTvB/8AaltL5F21ro8MsNvJnBWSRYdoweDjNNaqxN7an7Kp+1f+zdvOfG2k/wDf8VN/w1f+zZ/0O2k/9/xXjnw4/Zh/4J7fFzwfYfEH4bfD/wAHazoupxLNa3dtplq0ciMMgj93x9DzXdf8MM/sYbcn4VeFv/BVa/8Axuk0g1PiT/gpH+0h8CPEf7P9vY6H4t026mGt6U5SKUMdqXsJY4HYAEmv0Cj/AGr/ANm3y1z410kfKP8AluPSvyi/aw/aS/4Ie/sZeMo/hz8a9A8H2+unDSWVto8FxJCpGQ0uyEhRz3Oea+vP2dfhp/wS/wD2rvhzbfFX4B+DPBniPRLrhZ7bTLY7XHDI6mIMrAgg5FHKuocz2PqP/hq/9mz/AKHbSf8Av+K+fv2qP2jfgL4q/Z08ZeGvDvi7TLu9vdMmihhSddzuQMAe5r1b/hhr9i/GR8KvC3/grtf/AI3Xwr+1949/4I5/sLxWo/aK8MeD9Hvb3m2sk0m3luZB/eEccRIGOeccUWQ02fVv7Ov7S/wB8Pfs9eA/DmueL9Mtb7T/AA7pdtcQvOu5JYrSJHQ9sqwIP0r2cftX/s2kc+NtJ/7/AK18IfsjX3/BI79uXwxP4s/Zw8J+Dtfis223UK6VbpPA2cfvI2iBHPcV9jf8MM/sYdvhX4V/8Fdr/wDG6UYrqDbOq/4av/ZsH/M7aV/3/Wvzo/4Jy/tCfBDwn4D8b2viTxTp9k9x4z1+4jWWUKWik1G5ZHHsykEH3r0/9qXQP+CUX7Gfgb/hYH7RPhLwZ4esXOyES6XbNLM+PuxosRYng9q8M/ZA+M//AARe/bn1e68M/AHw14Q1LV7Nd8lhPpFvDcbBgblR4hkcg8fWnyrcObofp3/w1f8As2f9DtpP/f8AFRH9q/8AZvD/AC+NtK/7/rXOf8ML/sY5/wCSVeFsf9gq1/8Ajdfn7+2P8T/+CNn7Beu6R4c/ad8J+EvDt3rsLz2SPo8D+YiHaSNkR78UWXQFfqbn7Fv7SPwH0b40/HG81XxZp0EV74hs5IHeUKsii0CkoT1APB96/Qtv2rv2a1X/AJHbSQP+u61+EWlf8FLP+Dd7WdZsvD9nYeE/teozxQW6NoUamSSZgiAboBnJIGa/YXxD+xZ+xbeeAL/WdM+F/hbZNp0s8Mg0u1Bw0JZSP3fBxg0kl1G22fX+g+ItD8U6RDrvhq8ivrK5G6KeBg8bj1DD8q12bb8x7Yr82/8AgkxaQWf7F+l2Nqojgt9a12GKNRhUjj1K4VEUdAqqAAB0Ar9KfKViAaJKzsCeh+Rv/BQXxN8SPHV3P8A/DfivwrpvhrXI7eLVhqdyYr+x8uaO482JFicSblj2hXdR82e1fJ/7WGt/FD4g+L/Bnw6+HnizwjrPwp8M2dmt1p93qs1pPqdxbRogWcRQuDECN+xmKkqOK+j/AIC/s/8AwN+Mv7aHx/1D4t+EdI8Sz2eo6THA+pWcNy0aHT4SVQyq20E84Hevov40fAj/AIJtfs7eA7/4n/GfwT4N0HQrFC891d6bahfZQPLJY56AA1fNZkcrZ8o/Aj9oX4J6P+3r4uv9T1/SNNtj4R022VLeUC1ikjS1DQwthQVQqQvA4Ffpmn7V37NwX5vG2k5/67ivyB/Zs/a4/wCCFP7VPxFHwp+FOieEJNdmJFtb3WjwQG5A5/dF4QGGBwCR7V+qyfsM/sYlQf8AhVXhb/wVWv8A8bqbLqVzXOof9rD9m0DI8baT/wB/xX5v/tJ/tHfAvUf25PgbrVj4r06W0sri+M8qSgrGGs7oAsegBJA/Gu//AGwY/wDglD+wp4J0/wCIf7Svgnwn4f0rUrr7HbzPpFu+6Yqz7fliJ+6pP4V+eD/8FQ/+DdKONZ5LPwisbfdc6CgB/wB0mDGe/wBKTj2BOx++B/aw/ZtB/wCR20r/AL/rWN4y/bR/ZU+H+kWmveMfH2jWFpfsyW8rzgrIy53AbcnIwa81+Fn7MX7AHxj+H2kfE/wD8NfCt5o2uW0V5ZzjSbYCSKVQ6Ngx55BB5r+LP9vvw78JP2d/2mZvjXqHhjw/4k8NeEfFl1ZjwbqMLrZyRT28/wA6LHBJEgV2BwcfNVU4XdhSlY/uh+E37X/7Mvx01+Xwt8IPG2l+INRiTzXt7SXdIE/vbSBxz2r6PVscV/Eh/wAEaPG3wY/al/4KbW/xr+H/AIN8NfB1dA8PS20Ph3Rkkjk1IyMuZv8Aj3iRgoJ5yelf23ZHcUqkbOwRdyavwH/4ORP2bPEn7SH/AATS8S2/hKF7i+8LTRaukKAlnWN1R8AdcIzH8K/fisPX/D+meJtJutC1qNZrS8jeGaJxlXjkUqysDwQQSKlOxR/l3/8ABt7/AMFD/h9+wd+2Jf6N8YJhp/hzx9ajTZ7xx8ttOHR0Z/QZjCN7mv8ATj0P4r/DXxFo8XiPRfEGnXWnzossc8dzEUKMMgg7h29cV/CX/wAFcf8Ag1/+J2l+NdW+Ov7A0Mes6Tqcz3V34cc7JoJHJZvs+QUZd2TgsuM9OK/nTm/Zk/4KwfDpW+GsPh7x3ptupMTWME8wg9MbY5NhFauKZF7aH9Pv/B1N/wAFNvgn8QPhtpn7Enwc1SDXdT+3LeazcWzB4bdIgdse4cFy+3OOOvNa/wDwZ0/s5+KdJsPiV+03rEDw6ZqaJpFk7AgSlHjd2X1AaMjPrX5Hf8E+P+DbX9tf9rLx1aeKP2itMm8A+DjMJr24v2ze3SdSsSJuyW6EsykcnrX+kL+zH+zb8Kv2TfgxovwI+DenJp2h6FbrDEqgBpGH35HI6u7ZZie560OSSsgSu7nv6injqKaBinDqKxLPj39nf/k4b4x/9hPTf/TfDX2jXxd+zv8A8nDfGP8A7Cem/wDpvhr7Rq57iQUUUVAwooooAKKKKAP/0/7+KKKKACuX8cf8iXq//Xlcf+i2rqK5fxx/yJer/wDXlcf+i2prcD5N/YI/5Nq0r/r5vP8A0c1fZVfGv7BH/JtWlf8AXzef+jmr7Kpz3EtgqF1JapqKkZGu/p/9eht7DmpKKAuQhSakUY4p1FABQTjmikwwXPWgDF8Tf8i3qP8A16zf+gGvzj/4JPjP7LF7/wBjZ4j/APTpcV+jfiYP/wAI5qGOn2Wb/wBANfj9/wAE0P2ifgh8Pv2c9Q8NeNfE9jpeow+K/ERe3uHKSKG1OcjII7jke1WloxdT8RP2z5fgl4B/4ODY/G3/AAUhtUm+G1xoMCeFbjVIzPpcV2IofM3KQy9nH3eteK6ZqHwT+Jv/AAcO/D3xL/wS9gh/4R2ztW/4Sy50KIwaay/Z8fMFVFOHwMbevNf1NftJt/wTV/a78Jx+C/2irvw34osIW3RLehJGib1jdkJXqemK5v8AZf8ADP8AwS8/Yy0m50b9muTw14XS9ObiS0CJLIM5w8ioGIzz36Vp8hXR+pbHniv47f8Ag4a03TtP/b9/Z08bftMWdxffAqyupBq67Wks0uir+W1wgyNoPPINf1Aj9r/9mI9fHGlf9/f/AK1eT/GT4pfsH/tA+B7v4a/GTWvD3iLQr0Yltb3bNHnsQHUgN6Gojo9hv1P46/8Agq74q/Ys+Ln7Z/7PNj/wSyg0658dWur2z3c/hW38iNLIZyJjGkYzsxnPbIr++PRF1BNGtI9WObpYYxMf+mm0bv1r8lf2ZfgX/wAEgf2PfEVx4v8A2e7Twt4f1W4BVruFY/OVT1CvsDKPYGvu5f2vf2ZM/N430r2/ff8A1qJrsgVu5+CP/B0V4c+JusfsseA7/R4by68DWPiyzm8XQ2m47tMAcOZFU5ZQxTI6V+Sv/BYr4kf8ElfHX7E/w78D/sJWujXXxJN1p39gx+H7QRX8BCjPnsiI24dG5PNf2aeK/wBpL9j7x54cvPCPjHxTompabqETQ3NrcMskUqN1VkZSCPrX5/8Awg/ZL/4Ip/An4mL8XvhlovhDTtfjkaWO5WOImKRsktGPL+Q88YxVKVuhLVz9Fv2K7H4iaX+yZ8OdP+Kxc+IYvDmmpfeby4nFrGJAx9Q2QfWvhv8A4Lu+H/jR4j/4Ji/EnTfgaLl9UNrE0yWhIma1WeMzBduD9zOcds196L+17+zDty3jjS8/9df/AK1Vrr9rX9lm+tpLK98Z6TLDMpR43kyrKwwQQRyCOoNQk072Kdj+MLxd8Uf+CKkH/BE23+H/AIasdD/4WLNottDHZJZj+2/7dBjEreZ5e8MZQ5zvziv6h/8Agijo3xi0D/gmd8L9N+OguF19NMUlbokyi3PNuGySciLb1rwz/hjv/giMPi8vxuXQPBw18XBuhMIogomyTv2eXt3ZNfpdZftafstWNqlnaeNNJiiiUIiLLhVVRgAADAAHQVTFsfNP/BYzP/DsT4yHp/xIT1/67xV/I3/wR1+K/wDwRk8If8EmPEWkftMJ4fTx69vfLqSanbLLfTOzP9l+zuUYjA2Ywwr+zL40/F/9if4/fC7Wfg58TfFumX2ga/B9mvYFuChkj3BsbgMjlRX4yD/gjN/wbzAJmx08lOATqUxwPypxG2eDf8GhcmjXH7MPxbm8NqU01/FzmzVuq2580xA9eQmM1+4GoHH/AAVf0/P/AEINx/6W21ct+xn4I/4Jj/sDeDtS8B/sw65puhaXq1wLq6ia7eYvKAQDlhxwTWf4W+JfgP4of8FT7TV/h3qsGr20HgO4jlltiXVHN7bYUtgDJHND1uxI/W3cPzr8tP8AgpOd3jL4BH/qfV/9Nt7X6khTjPevyg/4Kha3pfhrWvgX4g1+dbWxsvHSyTzvnZEn9nXi7mIHAyQM+pqaW45LQ+zP2xLPx5qP7LXxBsvhezr4hl0O8Wx8skP5pjP3SO5GQK/i2/4JnfET/gkd4E/4JkeOPBP7aFlo9v8AFRJtWTxDBrloJNUmvGmm8owu8bNndtwdwr+0ab9rn9mTeUPjbS8HrmX/AOt+FfnL8Yf2VP8Agi18efievxf+J+jeEdS8QbxLJctHEDK6nO6QCP5znkk55pxutBOx8rf8Gt2i/FDR/wBgXVpPGFvd23hy68RX0vhiK83b101riYoAG5C4K49sV/SJ4iTUJPD9/HpJxdtbyiA/9NCh2f8Aj2K+YvCX7Sf7H3gjQLTwr4Q8VaJpumWESw29tbsI4o40GFVVVQAMV0jftf8A7MW3/kd9K/7+/wD1qlp3vYd0fxv/APBMbxb+wh8JP2hP2kdL/wCCqlvptv8AEi58RahJHN4ptvtAm0tpnMa2zSJJ1UoVxjivrr/g2qsrW6/aF/aM8VfAWzubL4I32sSnw8jgpbtN54y0CngJt34wAMV+uf7TnwS/4JE/th+Irbxb+0La+FvEOq2gAS7nWPzioGArSbCzADAGTX1F8Hvir+wb8AvAtn8NPg3rfh7w7oVioWG0stsMY9SVRVBYnknGSeauTbWwlbufbZXgdq/invNY/Zu+GX/Be74n+IP+CpkNs2l3+kwjwXd69D9o01FCQ5CBldQ3lhxwuc1/WVJ+1/8AsyAfJ430o/8AbX/61fJv7Tnhv/gl1+2TpFtov7R8nhnxTFZnMD3YSSWLrnZIyFgOeg7VMbodz+f3/gnTdfCHxp/wXr8a+Nf+Cclqtv8ACEaII9fm06MwabLd7YtxiQBVz53PCiv7QFXAwa/N/wDZvk/4Js/sh+D28D/s53nhvwxp0jF5I7PZGZGJzl2VAW9ee9fSg/a//ZjIBPjfSs/9df8A61ErvZArH8t//BYY/Dvwt/wWn+C3jn9uS1e6+CKWLx2z3UZm06K+8psGdOVPz56g14L8e9c/ZZ+KX/Bbn4Ean/wSjt7OTUdPaRvFl54ch+z2H2XyZMCXYqKSFKjkda/qb+Pfi/8A4J5ftP8Agab4c/HrU/DvibR5Tu8i+CShGH8Sb1O1u2RzgmvHf2WPhz/wSm/Yy+2Tfs4jwz4auL/iee2CLM65B2mQIG25xxntTTFY/Wc9a/hk/wCDp69+F+m/t5fs1ah8aEEvhSFXbVEPIa3Fyd2R3Xua/sKP7X/7MP8A0PGlf9/f/rV+d/7aP7O//BJX/goBr2j+JP2odT07XrrQYXt7J1vXi8tJGLMMKOck0RVmNn8zH/Bb34o/8Ej/ABtoHwN0/wDYui0GTxnF4l0dhJoVusHl6fvUbbkqibm3beuea/urtB/xY6PB66AP/SWv59NA/wCCQP8Awb9+GNbs/EOi2enxXdjcRXULDUZTiWFg6HHswBxX7Ra7+1V+y9Y+AL/RtN8aaXsh06WCJBLk7VhKqOnPAxTkrvRCTPIP+CUDA/sc2X/Ye8Qf+nS4r9JAQGr80/8Agk5NHcfsY6bdQHMU+t67JG2CAyPqdwysM9mBBB9K/SjOcVnU3KjsfmV+x8c/ti/tED/qK6T/AOm6Gvxg/wCDnLRvE0uufATxJ47t7u8+EGneJYn8VxQbnhCYk2tOg4ZBlc5BFfqp+z58ZfhZ8LP2yfj/AGnxH1610Wa61LSXhS6YoZFGnwgsvHIzxX1j8RPjl+xT8W/B994B+JniHQda0fUYzFcWd2VlikQ9mR1I4OMcVpL4iVax/IF/wV58af8ABOH4reJfgFoP/BMi30u7+KMXiHTntZPDFsIJIbBVO9blo0j6L1zn3r+6XwNHrUHgrRoPERLagljbrdE9fOES+Zn33Zr8j/2dv2cv+COH7K3jiX4kfA/TvCmia3JuxeRpGZY9x58ttgKZ9jX6Ej9r79mLA/4rnSv+/v8A9alJPsNH81//AAd+Pp8f7Gnw1bVhm1HjKAzjuYhbzbwPqua/O7/gof8AFv8A4Ila7/wR40fw38GoNAb4gf2XpyaZHYW6pqUV+oi+0tPJsUkcSg5Y1/U5+2Z4O/4Jmft8eCdP+HX7Tmu6brmk6XdfbbeFbt4ds+1k3ZUZPysRivzdX/gjR/wb0KxkWw08Me/9pTf4VUX5Es/X/wD4JbqR/wAE+vhBvwT/AMIvpn/pNHX8n37fl94b+InxY8e/sweLviBo/wAPNO8T+KJbya+1G2a4mlNrG8kcMbpFI0cbSRrvweRnI5r+un4UfG/9jH4L/D3RvhV8P/F+mWui6FbR2dnCZy5SGJQiLuIycKBX5rfsV/svfsrftV/G74q/Gv4j+GtN8YyaP4pdNKubyFbiARyQsH2rIpVuWIzRTdrthNbWPze/4I62/hr43/8ABQG18U+NvF/he4134W+Fk0bSrLwtaSww3tuRGhuZZHtrfL4PzDB5r+xkcHnqa8S+H/7Nv7Pvwn1Vtf8Ahf4I0Pw9fMnlm406xgt5dh6rujRTj2r2vBxn0rOpO7uUlZEtM256+tPoqBkLIcgrTvmHHUVJRQBFtboe9P4Xj1p1IevWgABB6U4dRTR6ZzTh1FAHx7+zv/ycN8Y/+wnpv/pvhr7Rr4u/Z3/5OG+Mf/YT03/03w19o1c9xIKKKKgYUUUUAFFFFAH/1P7+KKKKACuX8cf8iXq//Xlcf+i2rqK5fxx/yJer/wDXlcf+i2prcD5N/YI/5Nq0r/r5vP8A0c1fZVfGv7BH/JtWlf8AXzef+jmr7Kpz3EtgoooqRhRRRQAUUUUAQXMhjhZl7An9K/gG+Lv/AAUT+P8A4b+OPxY8Sab8dtctPH/hzx1LpPhfwOsckmn39qtzJGYyWcRArEC2COMcV/f5IgdCp7jH51+U3ib/AII0fsReLdK1+11nQHa/8Qa+3iWTUlkZb2C+eR5CYZwfMRT5jDarAYPStabS3Jkn0P5j/A/7VP7ei/AjW/28NT+MepReINO8eSaA/g66cSaaY5b2S1aLyy5A2dRiPGFr9Kf+CXWk+GfiV8Rf2iJ/2ytF8LeIpfCWvrOtymk2ziGG5VpSBiLc3LBT8vJ5r7R0L/g33/Yh0X4jN4/ubrxBfQyajLq0ml3GpXD2D3kpZjM0BkMZcO5YErnNfU37KP8AwS4+AH7HvxK8ZfE/4Z3+r3V546leXUotQvJbiFmd93yxyOygL0UYwB0q3UjawKL6nwj4Z+NX7Dfxy/Zy+I3xL/Zl+E/hPVvE3giW8RbC+0qKCOSOzufIaQv5DDG0ZwMnPb09i8YfBLwr4z/Zn8C/Fb4R/DL4e6Dc67pNpqusX+q6dbfZ7OOe1EzbFFu+8byAuQDg9M8V9z69+xL8OrX4H+Lfgr8I5j4QTxg9zLdX1vEssqyXUxmlZQxX7xJ4z3rwv4uf8E4vEPxV/Zk8G/szD4n6ppNh4TS2ilure2Qm/htU2RRzx+YF2jCkjJzjmpumhWPkv4SD4Nav+xJ4r/aF8ffBbwidX8OS3MFpNHpVtHa6kkdwYIbuMGFWWKT5ZBlAcHpXxde/HP4f/C/4MeJfGXir4dfDjxnrthp+napbabp2kR29zEt3NbpJAUeziSTYszAMGbJA9a/oN0j9lq8uv2ar/wDZv+JniSXxBb31sbQX0dtHZtFErAxKkUTFR5e1QMHnFfImhf8ABJTwdJaSS/E7xpfeJtTitbLTrK8a3S2NtZWM0MyRBEkIZmMCBnPzEZ65NNSXUTTPzR+L37SPwB1290/w3+zv8KPBCz6zp9k6S3elWrPZXs0sMc8E0ZgbmFndTnqV4zX3t+yZ8G/htrHxp8Zfs3ftFfDLwRfa94Xt7a9j1DTdJtUhmgukSQKyGCPaw8wdux5rrvir/wAEdPgp43+J/in4weA9cvfCWteKJLa4kNrGJIIbm3eN/OSJnVcuyZYYGSxNfXX7NX7I5+BfizxD8TPGHim88Z+LfE3lJeandxiD9zCoWONIlZlUKFUcHtTlJdBxi+p8Hf8ABTP4V/CH9mL9mS/+LfwR+Gfg1dWsr2yhP23SLVovLurmO2Jx5LdDKO1fl/8AEj9om5+Anjo/BX4gfAf4eavrOm3ujtf6nbWMCQtYat5RV0T7Mv7xPORSCBznBr+jf9tf9kyD9sn4J3HwVvPEVx4ct7q5t7mS5t4lmfNtKs0Y2syj76Kevavzz8Zf8EU9O8c6e8uv/FTVrnXL7UrLUNS1SW0jea6GnbRawgNL+7jjCIMKedoOKUJK2oSTP0mj/Yr/AGPXjVx8MPC+GAI/4ldr3/7Z/wA6/PT/AIKcfC74Qfsv/suXnxb+CXwy8Frq9pf2VuRf6RavEUuriO3Jx5L8qZAenav2f0ixurDSLWxvpzdTwRIkkxABkZVAZyBnBY818pftsfsnQ/tmfBKb4LXXiG48NW9zdW9zJdW0SzSZtpFmjAVmX+NFJ57Vmpa6lW7H80+r/HfUNH/adt/2Erv4OfD5/iFLYjV01T+zrddPlsTaG6AKi23LI2VIAThcjPav2b/4J++EP2Tv2vv2brD4t+IPhF4VsNUjvL3S76GLTLYxNc6fcPbSyRExDKO8ZZcgHBHA6V5vd/8ABErwZqPiAfFnUviPrM3xMEmF8UGIeett5LQG2WLzdqp5bYyD0GMV+nf7Lf7N3g39k/4Nad8GPA8slzaWLzTyXEwxJPcXMhmnlcZPLyMzYycZ61UpJrQSR8Z/Bn4S/sv/ABI/aF+J3wh1L4SeE4bPwTLp6WsyaXbFpRd2qTtuHlDGC3rXwP4d8J6V8a/2xPHHwM+GfhX4daFa+EL+2gGnXWgwS3FxbvGHkkEv2RkUnsC+Rmv028VfsM/EKT4/eI/jt8JvilqHhFvFb2cmo6fHYxXMUjWcSxLh3kBG5VweO9c7pf8AwT6+InhD4v678WPhx8VrzRD4lura71K0XToZhNJAgRsSM4ZVkwTgDC546URSXUGj8n7+51KF/HPxotPhl8PpPA3gPxEui3Wmto9qtzNF9sFk0qyC3OCJGBA3Divd/wDgsNf+Hf2OP2DT8Yf2V7Ox+GWp61e6bbXeraJaR21zFaXMsZkw0IRmwvbPWvrS5/4JXNe+ItdguPiTqa+D/E2srrmp+H47ZEjnuFl8/HniTeFMuHIxjIr7H/aW/Y/+Dv7WPwus/g/8W7WS60Oxura7jhRyuXtGVowxBG4fL8wPXvTbVw1sfxC+Lf2//wBqyTXH+A/7Onx013xd8P8AU9W0ezl8Y3KtBf2d7drH59orPJ5mELSdWA+Wvufx/pn7Quq+Nvi7+wb8YPjna6l8Pvh7Dp/iG98WeIIIrq/S2nhidre33GXMvmTBVxIDgY4r9p/jP/wQv/YZ+Meo61fJp194bTXJre6uLfRrmSzhW5tlVUnjjhZFSXA5YAE5OTzXn2s/8G+H7DviH4P6h8I9buPEF4usXyX2oalPqVxJe3ZiUrHHNM0hd40BGFZiBtHHFae1iTySPxv/AGBfjl+z98BPgp4m8dftTeFNJ8U+DLrW0tvA+oapo0B1LULJ5/JeeXYkoVQSSoeTlccV+ymvp+znN+1N8Mfhx4F+EHgy98CeP7K4lGptpkKXP2iJGkCLE0AAACHJ3Dpxmvo74Cf8EmP2Y/gP8J7v4LpLq/iXQ7m5trlItZvZrw25tGVoo4DMzmOIFRlFwpx0r2D4qfsZzfEf9o7wH8ftN8VT6LB4BWRLXR4LZDbzCWN4zubcCuA5xhTjpUzmmNJn5eftN+C0+BvxLs7+D4Y/Dp9H1DVILDTfDkWlwzalqEUjBZJVb7L8hVcyfM4XAxmuh/a98NfC34f/ABWtPhZ8Lvh74E8OpbeHn8R6lqOr6PBMqRxzR24gWOK2mJO+VVZgPU19gX3/AATt8bzftW3n7VVn8Vb9L65KJFYT2MVxHbWy7d0Nu8kmYwwXllAPX1r0/wDaS/Yif45+P7L4peEfGN54P16306TSLieGBbpLmxmIZ4mjkdVHzBTu5ORmlzILH4z6Z+07+ylpfxf0jwH4z+Engu40XUvDEuof29p2mwPZJqcSriOTzII3RZGygymAxFc94H1vXP2gb3xF4h+FPwv+HekaZ4O0dNUvLS50m1ka6xGksiLJ9mbb8pOCDjj3r9avDn/BJz9nbQ/CfiDwVdyXN9YeJdBOiXiTcks8kcz3SncSJDLGHAHTOAcV5X4a/wCCQw+G9vJonwl+KWr6DpF/pFtoupWwtkme6treOOLmV5dyM6xgEjnBNVzRFaR9CfAH9nn9kj42fAjw38V/+FU+F7SbX9Mt70xf2XakRvNErkA+XyoJ49u1fhH4k+IvjH4aeM/i34v1f4SfDvW/Cfwq8QWOm3dgul20N1LbansW3cOtt1DTRk/NnGa/qq+G/wAMdC+E/wAN9J+Gng4tFZaLZRWdsWO5gsKBFJJPJ4B6+1fkhrH/AARos/FXxA8V+KvFPxT1e50rxnrMeuanpKWqRwy3Fv8A8eysyy5KRMEIBGDtAIrOLV9RzTtoXf8Agnd4W+A37WHwz13xb8UPgx4N0XUNM1m6skgtdOt5E8hJZBCxZoUOSirnjrX6ED9ir9j4jP8Awq7wv/4K7X/43Xmv7F/7F+pfsgx+JrNvGNz4otvEeoS6l5c9tHbi2llcuwj2M3y/MRjivupVAXb1qZvXRjUdNT+YH9pyx8TfDn9sXxn8Jfhd8Mvh1d+HvCPhQeLRbXOkWqzz28TwRzwiT7M2GAlZwS38OM818v8AwC/bW+Gnxp0Dwj+09Z/A3wRbfC7xL4nTwtJZNp9udRjnKyI86/uMFTPHkAuPkPTtX7ZfH7/glvqHx5+P/iH453HxQ1XRV8T6VFoV/p1nbJsfTUkilaAS+YrDe8K7jjOMjoa4fwH/AMETPgH8M/HGhTeCvEOpWfgfQNTj1uDwqV3Wp1GOFozM0hk3fMztJt24BP41akhWdz0v9s74Ufsvfs5fCu28eeGfhL4TvZptUsLFkl0y1C7Lq4jhZgREeQH9K8h/4KTeC/2ff2VvgnpHjL4efDXwXZ3urarbae91e6RbyRWyTcmQosEjN6YCnrmv0b/a2/ZrtP2qfhLN8LrnWJ9Adrm3u4b63QSPFLbSpKhCMyg8oOpr5W+Iv/BPT4lfGD4bL4D+K/xcv9ZurTUYNT06/bToUe1lgGADGJNsisM5DHqc9qItdRtH58fFb4W+Ifhb8PfAltb+EfhxrWsfEfxAmm6dqCaDbRQwWxs5rne0bWiksfKxgr3r6y/Y1+Dvwi+IHinxx8Hfjx8LfBb+JPAd3bwT3dhpVsILmO7hWeJgphTadjrkAV6n4/8A+CeXxO+KHhLQtI8bfF6/udX8L6wus6TqcenQxtbSCGSDy/KWTaylJG6n8K+kv2Yv2VbX9niTXtf1XxBd+KvEnii5W61XVbtBE0zRrsjCxqzKgRAFAB6CnzIVtbn0t4Y8I+F/BWhweGfB+n2+ladajENraxrFFGCc4VFwBz6CugYEjigrkYpQDWBZ8XftZfC79njQfhn4o+PPjf4e6F4l1jSrB5xJfWMEskrIoWNWkdCcDgc9BX4Qx/E3wV8PPAuseL/HvgP4Z69qr+HbfX9P0O00mOG6ie6aF47fc1kkcp8qXBbeea/px+KHw80H4sfD3WPhr4n3Gw1u1ktZthwwVxjII7g4NfmDp/8AwSV8MajarafFLx1qHicabp0Wk6IZbdIGsLWGSNkXKSEzEJHsBfnBzWtNrqZyT6H5j/EH9rP9mzXPh14b1z4N/Bzwbb6vrfh+C5vra/0u1Emn6pJfQ2bxyJ5LZRTIxU9GAB719wfsv/CHwj/wv67/AGcf2kvhp4F1O+n0CPxFY6hpmkWsaiFpIomikj8hACGk4Iz0r134t/8ABHf4D/EjxvffEnQtWvPD+tX+hWWiyyWyhoy1hLbyQ3JiLqpk/wBHUN65JJzX0f8As5fsX3fwW+IF58XPiB4yvvHPie50+PSYry6hW2W3skKN5SRI7ry0akt1zVSkraFJPqfMv/BQn4FfBn9n39k7xR8Zvgx8NfBiaz4eijuMXukWrxtH5iIwwYW5Ab07V+LHhX9prWBpVtqmjfBH4f8AjvRnsdHv9R1230mOzt9ObUZ7WJ7Xa9nH5ki+ecEAjjrX9Q37Xv7Nkn7WHwI1f4Ey+IJ/DtrrYjS5uoIlmcxxyLJtCsyjkqOc14h8av2CZvir+zB4f/Zf8O+Mrjwvp2jRafFcXlpaRvLeLpojMPmKXUA74kYnJyR71MJdAaZ7Bo37G37H+oaTaakfhd4XBuIY5SP7LteC6g4/1fvXvPgP4Y/Dr4W6Q2gfDTQ7DQLF2Ltb6fBHbxlj1YrGAM89aueCNCv/AAn4O03w3q182p3FhbRW8l26iNpTGgXeVGQCcZIzXlviT9pH4S+GPidbfCHUdUi/tu70+XUookdCGihfYy53cPu4AqHdspJHv/elr8a7X/gr94P8X6BcX/wo8B69rmoQeJLrw39lKQRbJrNJpJJpZHmCJEVgbaS3JIGOa8l8C/8ABcrwh49+Ia+BbH4f6vZxfY9SlN5dGFIWutLWUzwRsJWDndC4Ug4IGc1Xs2S5K9j3D4kaN8Z/2gf29/E/wW0T4iar4O0Lw54ft76GHTR/rJZWgDFyHT/nofWvTR+wX8YSMj48eKj+f/x+vnP9gn42at+0V+234t+MmsaBc+Gjrng+znisrsr5ohaS18t/lZhh1ww571+Un7Un/BW7/grDd/8ABVLxR/wT/wD2LNI0PUotL+zvA99Cn7qKS2SZ3lcxM2AzEcZod9gUup+85/YL+MIGf+F8eKv1/wDj9eJaZbfGb9lj9tvwB8Mdc+JepeK/D/i6xu3vY9WACxGFZGVlZpH28oBxjrX5Y/s3/wDBT/8A4K7eGP8Agqb4F/YN/bk0bQtOsPE4uJjNp8SYnhjtpZVaKTykb7yjPSv1w/bE8K6B46/4KA/CHwX4ni83TtR0rU4Z1B2kqYrjlW/hI6g9jzVK63C547rnxB/aK0n4w/tJW3gT4hSTxeF9FgvNEW6RZbayaS2gu5Coy6twzopxnkcV9I3Ot/Gr42/sb/D7xha+N5fDt7qGkW1/q8+nxxG/vm+y+Y0dorvGFZ5MNw68ZFfKHxr+J/8AwTD/AGMNDk/Y7k1i81TxF8UryHTJbCxvpLnVZhIQoEl0XDJHHGMYL8AYAr9G739hH4C+IfgX4a+B051S10vwttfTLiHUJo7+2IUrgXSt5vCsV+9Sc09inFo8a/4JV/Hr4n/Hn4N65efE+8lvZtE1m6061e7RUvhBDK6KLtULKJMKM4ds+tfqOOorwn4C/s+fC/8AZu8JP4O+GNs0EFxM9xc3FxKZ7q6mcktLPO5Lyucn5mJOOK9y86Mc7l/MVEnd3QkfIP7O/wDycN8Y/wDsJ6b/AOm+GvtGviT9n66SH9oT4xPlSDqmm9/+ofDz/nvX2nHcwuu4so/GiTuCLFFRefB/fX86PPg/vr+dSMloqLz4P76/nR58H99fzoAloqLz4P76/nR58H99fzoA/9X+/iiiigArl/HH/Il6v/15XH/otq6iuX8cf8iXq/8A15XH/otqa3A+Tf2CP+TatK/6+bz/ANHNX2VXxr+wR/ybVpX/AF83n/o5q+yqc9xLYKKKKkYUUUUAFFFFACHpQc44paKAEIB600gZAxT6KAA88UgGBilooAQAjqc0hUHmnUUANZc0KCFp1FADcZHPegIAc06igLjVJI+ahAQOadRQAmMnNBAPWlooAKKKKAExzmloooAKKKKAAjPFB54oooAbsFKRkYpaKACmknOMU6igAppJHQU6igApAAKWigBMY6d6TYM5706igBCAeDTUFPooAQAjrzSBcNmnUUAFFFFABTdgp1FADSDkEUoAHApaKACmrnvTqKAK00IuLd7eTO2QFTjg4Iwa/HHx5/wSN+Fmt/tV2Hx70N737Fa6fcma3k1K5EkmoST+chVhnbF2Kg49q/ZemjhqadgaP5bbb/glx/wUbj0rxL4T0rV/DunaLrXiu48Rz2i3t1tv7dllWOyuT9nzsO9S/wB4Er3r2L4hf8Eifjh8c/2bfBvgjxnqGheEvE3hnxKupxReHozBZ2+nMzpPaIyRRNJ5sUjbiyDJJz61/RewXqacyhhg1aqtE8i2Pyn+APhjTvBn/BSPxp4O0ddlppHgnTLOBemI4BaRoP8AvlRX8uH7YPhb/gp5+y3/AMFtfHf7ZH7KXwn1HxdpN4lrbMQIhb3lv9kjV1Ds25cOOfl7Gv6svhiMf8FTviQf+pTsh/49a1+mq5UYzQ563HZWP4Vv2Wb7/gqZ+2V/wWn+Ff7VH7WXwj1DwX4c8NRXdpCAImtrSF7SZfmYNu+aQjHy96/oy/bD8L2/jb/goD8I/CF3PPaw6po+q2zzWsjRTIskNwC0cikMrDqCCMV+ujEnoc5r8sv2juP+Cl3wPA/6B+o/+irinzXBKx/NH+0N/wAG3Xxs+Bf7ZHhb9pP4E+IdS8deFpNcin1ZZrqWPW7WKZirulyWLSKm7PMgPHSv6mbb/gnP8ObiBLj/AITrx8vmANj/AISbUuMjpjzuPp26V+hw5bOalAAGBWEYJGsqj2PzzH/BOL4df9D34+/8KbUf/j1If+CcPw5PTx34+/8ACm1H/wCPV+h1KOoqiedn4jfA79gDwJqnxv8Aippf/CZ+NkWw1GwRWj8RagjuHsYnJdllyxBPBNfWsf8AwTg+HgXnx34+/wDCm1L/AOPV6F+zv/ycN8ZP+wnpv/pvhr7RptWEps/O/wD4dw/Dz/ofPHv/AIU2pf8Ax6j/AIdw/Dz/AKHzx7/4U2pf/Hq/RCikPnZ+d/8Aw7h+Hn/Q+ePf/Cm1L/49R/w7h+Hn/Q+ePf8AwptS/wDj1fohRQHOz87/APh3D8PP+h88e/8AhTal/wDHqP8Ah3D8PP8AofPHv/hTal/8er9EKKA52f/W/v4ooooAK5fxx/yJer/9eVx/6Lauorl/HH/Il6v/ANeVx/6LamtwPk39gj/k2rSv+vm8/wDRzV9lV8a/sEf8m1aV/wBfN5/6OavsqnPcS2CiiipGFFFFABRRRQAUUUUAFFFFABRRRQAUUUUAFFFFABRRRQAUUUUAFFFFABRRRQAUUUUAFFFFABRRRQAUUUUAFFFFABRRRQAUUUUAFFFFABRRRQAUUUUAFFFFABRRRQAUUUUAFFFFAFO4mgtYJLqdgkcSl2Y9AqjJP4Cvx31P/grda6nrs+p/DL4ba94j8GwazL4fGvWywCF76CRoZQqtMG8pZUZC2Oo6V+wOo2NtqmnXGl3YzFcxvE4H91wVP6Gv50fGv/BLL9tfQtJi+AfwP8a2en/Di08V3Pie3uFvLmz1IJezS3M9nIsETLJH5szYLSfdAOB0rSnFPcmTfQ9Y0/8A4Le+G/E/w81vX/BHgm8vPEXhfxJJ4e1bRpZEjmixcNbR3EZL4kiaTYCQcgt0rqP2fP8AgstpPxL8R6dZ/FjwFqXhDSNY8QXXhe01SRo5bf8AtS0eVHhl2yFlBMLhSFOTj1r5E1H/AIIofG3xH4R0TxK2r6Xovjnw34nu9SE9rPO0GraXNdy3cdtfMYlZnR2jIYq/3BzXcfs//wDBKL9qV9R07wP+0Pquh2/gnTfGt942aLSZJZbq5ubmeeeKBvMhiCIjTBtwYk7cY5rZqFiVzH6HfC45/wCCp3xJUf8AQp2X/oVrXwf/AMFIv+CnH7WWgftd6T/wTv8A+CdWgWWq/EW7tVv9U1HU8G1sLd08xSylXySGX+HvX3j8LlA/4Km/Egj/AKFOy/8AQrWvzN/4KR/sQftu/CT9u7Tv+Cn3/BPKwtfFXiCewTS9e8OXb+WbmCOMRqY3KsB9xSenNZ+71GtiD9h//gqD+3P8Of24rT/gnz/wVD0XTrbxF4ktnufD+s6Uqrb3OxTIUKhI/wCENzgnIr9FP2mb220//gpL8FLy/kWGKHTtRZ5HIVVURXGSxPAHvX5Tfsa/sW/8FB/21P8AgoXon/BQ/wD4KQaBb+A4PAFtJbeHfDtvIJH3SIYyWZQF24dmzknOOK/T79r7wpofjv8A4KC/CDwZ4ngFzp2q6TqltcxHo8ckNwGHtkUtOg1dnkv7TH/Bdv8AZK+EXx68Nfsv/Ce/j8b+M/EGpxWEqWbqLOyBb94887FQNqg8KG5xX7Jw/En4fNCvn6/pgbAzi7hxnHOPmr+TD49f8GwvgLwL+014Z/aJ/ZEulbRrTWI7zWPDOpOzJJDI22U28vznI3FgpCjjGa/oTh/4Jo/sYTxrM/gu3UsASpxkE9QeKwjfqbyUT7D/AOFkfDnOf+Eg0z/wLh/+Lpf+FlfDkHP/AAkGm/8AgXD/APF18g/8O0P2MP8AoTbb9P8ACj/h2f8AsYHj/hDbb9P8KoyshnwC8e+BoPj98X7mXXdPRJdT04oxuocMBp8PI+bnHQ19lr8TfhuFAbxDpmf+vuH/AOKr8kPgZ/wTv/ZD1j44/FXRrzwjbtBp2o6ekAPO1XsYmYdO5JNfWK/8Eyf2L1GP+ENtv0/wqpX6grH2B/ws74bf9DDpn/gXD/8AFUf8LO+G3/Qw6Z/4Fw//ABVfIH/Dsr9i/wD6E22/T/Cj/h2V+xf/ANCbbfp/hUj0Pr//AIWd8Nv+hh0z/wAC4f8A4qj/AIWd8Nv+hh0z/wAC4f8A4qvkD/h2V+xf/wBCbbfp/hR/w7K/Yv8A+hNtv0/woDQ+v/8AhZ3w2/6GHTP/AALh/wDiqP8AhZ3w2/6GHTP/AALh/wDiq+QP+HZX7F//AEJtt+n+FH/Dsr9i/wD6E22/T/CgND//1/7+KKKKACuX8cf8iXq//Xlcf+i2rqK5XxySPBmrj1srj/0W1NbgfJP7CFxDbfszaVLOyooubzJYgD/XN3NfXo1jSzH5wuIthON29cZ9M561+Dn7QmrXWhf8EZvFWr6PqN7peqwmT7DPp8s0M4mbUI1wrwfOAVLA47Zr8e4vhd+058GfF/hPW/2pfH2uWHwv8Y+ExqljDo2p6ncPDrMdsph86UpHIhkYsdoyCTg8Vt7NPVkXP7bG1GyXIaaMbeuWHGemagOuaOv37qEH03r/AI1/ng/FF/8AgqvP8XvAFnba/wCLLbSfFFvpk2phb27Ui0bykR3CthJGibc4zwc813vjPxh4s8EftJ/FHwJ4x+IPjO18KaDezWWjXVpfalLcNdxK6KrcgeSzAgkMeo4p+xXcl1bdD/QLtL+xv1L2MyTKpwSjBgPyq3X8vf8AwRB8UfFxfjl4j8O/GPxDqdrJF4a024t9Iu7q7vbW6WeKCRrwTXQURuhPlmNRxvODgV/T5FMkq+ZCyuvqpBH6VlOFmaRldXLFFFFQMMiimOyIN8hAA7k4qKO4im4gdZPXaQf5GiwFiikJwKAQwyKAFooooAKKKKACiiigAooooAKKKKACiiigAooooAKKKKACiiigAooooAKKKKACiiigAooooAKKKKACiiigAooooAKKKKACiiigAooooAKKKKACiiigBjJnkVHsJwanooAi255I5pFU5qaigD8ZPE3x9+G37Nf/AAUt8beKfjDcz6Zp+r+F7SG0uBbTzJK6NbFlBiR+RtPX0r6QP/BT79jInK+Jpv8AwAvf/jNfel1pOmX7iS9topmHQuoY/rUa+HNAxzYwf9+1/wAK05oiSPhEf8FPv2MgcnxPMcjH/Hhe/wDxmvk3Uv2gfhr+01/wUb+EutfBm5uNWs9D0+/+3TfZZ4Uh3xzBdzSog5LDGPWv2fbw5oGMixt/+/a/4VZtNI0qycy2NvFCx6lFAOPwo5kGpbSNkGF9amVdoxTqKzGFKOopKUdRQB8e/s7/APJw3xj/AOwnpv8A6b4a+0a+Lv2d/wDk4b4x/wDYT03/ANN8NfaNXPcSCiiioGFFFFABRRRQB//Q/v4ooooAK5bxwAfBer/9eVx/6Lauprl/HH/Il6v/ANeVx/6LamtwPjn9h/RNH1/9l7S9P1y1iu4GursmOZA6n983Zsivr+78KeGr+wi0q+sLea1typiheNWRCgwu1SMDA6Y6V8qfsEf8m1aV/wBfN5/6OavsqnPcS2Me40TRp5BLPaQyOAACyAkAdB07V+XX7anx68G/CTxVB8J/hT4U0bVfHGqwSXks97FGtrp9so3Pc3L7GO7BG1dp3Z5xX6o3V0LO0lu5R8sKM5+ijP8ASv4HvFv/AAXm+DPgH9oj4w/C/wCIHw0ufHvi3xT4nudCiluvK+zi0gne1toUZ3LLhQhYbQDjrVU43CTP16+IXwm1Pxn40+Cfie9+Les+ILX4gayum6guhzvpNtHamwuLgQxLayAKqvEgXgZUdB0r9OLz9gDxt8PJzrv7N3xY8T6NfW43RWus3s+r2crAcLIlzKwAPQkKSO1fg74R/ac8SaJ+3T+zl+xB4o+FFn8Ontb4a5bzWVws0c8S6dPGA4QDDfvhjqB0BxX7R/tcf8FIviV8IvjdqfwI/Z9+H6+NNZ8M6R/buvtc3ItY7az2o48s8mSTa44IAzxmtJOT2Igj6G/Zn/am8a+MvGepfs+/tB6TFoHxC0FBJJHC+621C2yAt1asQuVbKsVKgruxjiup/a8/ax0n9mbw1YW+nWh1nxV4hm+y6PpqnaJJSCTLK38EKgHLYPOB3r8yviv+0P4L/aP+B/wX/wCCkPwmin066s9bhtbmKXiT7Pc77a4tHKkgqk7qepHyDtX5W/8ABRb/AILZfB/9jb/gpZ460X4t+CbvxnPoWjW2l6Nbjy2toEnjiluNwdxt3up6KetSoq9x30PuX9oTUvjj8Xv2etU+N/iT4y3seradrNtp1xovhid7O2sy19HbSwtLA0bSlAWXeVOSM9a/S2X/AIJyafpdlDrPwk+J/jXw/qaIriS41i81CFmxkb4Z5tjKT1BB4r+ZTxV+3Hqemfs1+Bk0b4G2fg3wv8avE9o9nqttcxmSNprwXm1olwQuEOfXqea/pg/bf/4KB63+yx4s8AfAr4W+FD4x8f8AxALppVjJMLa38qCN3kkkmJyv3PlAUnmqk5W0Fp1Nf4R/tN/GH4WfEyz/AGd/2vVtm1DUmZdD8R2yhLXU1UE7JFCqIZgo5UA5IPNfpdAd0eetfgv4m/aC0X9vT9hnx94m1vQX8LeNvhhqym5tWcSCx1KzuQrPBKpORJGsi7uCQ3Ir1rw3/wAFevhFoGkada+M9C1lbW207T21LWkiiayivLuyF2ImYyiQsQGGdnX86zcW9kVzW0Z+yQwvy06vyW8K/wDBXj4K6lod14j8ZeF/EHh62GnPq2nG6ghY6jZpKkTS24imc4BcHDheM1+mPw58faJ8UPAGifEjwzuOna9Y2+oW3mDa/lXMayJuHODtYZ5qXFoaaex3FFFFSMKKKKACiiigAooooAKKKKACiiigAooooAKKKKACiiigAooooAKKKKACiiigAooooAKKKKACiiigAooooAKKKKACiiigAooooAKKKKACiiigAooooAMc5ooooAKQAClooAKKKKAClHUUlKOooA+Pf2d/+ThvjH/2E9N/9N8NfaNfF37O/wDycN8Y/wDsJ6b/AOm+GvtGrnuJBRRRUDCiiigAooooA//R/v4ooooAK5fxx/yJer/9eVx/6Lauorl/HH/Il6v/ANeVx/6LamtwPk39gj/k2rSv+vm8/wDRzV9lV8a/sEf8m1aV/wBfN5/6OavsqnPcS2K00K3MT28o+SRSjfQjBr+MnUf+CBP7G/x4/a0+KPw++MGqap4Q8f3Wty+ItH1K0mcJc2N5K0/7hC6LvhMiK2PmyDjIzX9n9fHf7T37Lfhr9od7LVJJ5tG8SaEPP0nWbPi5tZemOCu+NgSGUt+BpwnYUop7n887/wDBIHw1+w/+3n8A/j9L8TfEfxB1i91t9HT+3XaXybf+z7lwI2eWQrjylAUYr9kP2yf+CUvwT/bD8fR/EzWNf13wnrr2/wBgv7rQb2aza+s+P3Fx5Mke9cKo5z06V8T/ALR8X7e3h/4lfDHUfiDoOh+LrT4f60dVOoWGoLa3F3CbSe3UPDMsKq584Mx3HkEZI5r6w0/9oD9ur9otpfDvww8M6N4Dtpjtl1PUb6O6u4lPDGK3gE8ZPoS4NaNO2gjyT4r/AAd+G+h6l8J/+CbX7NlqkWieHryHVtbER3i2sLRGKmdu8stwYmOckkkmvgH9vP8A4I7fsf8A7Tf/AAUa1q9/aelvtJ/4WXpkB8O6vbSvHFHfWscaSQSIGVGkdVkdQxxheucCv6Cf2a/2XPDf7O+l3dzYzya54i1uTztZ1m+G65u5ck8klikeeVUE4wBgdvRfj78APAP7Q3glvA3ju28yFXE1rdJ8txaXC/cngcYZJB6gjIJyeanmV7Dsz+Uf9pf/AIIA/Dv9kv4W+FfipY/FrxT4ntPAWt6bLpej6i7PZxF7qOI7UM7qvDnkLX9En7Zv/BOv4L/t06L4dvvHl5qWg+IPDbefpetaNcyWt7al0KuqSxMjbWDEY3Yr4K/a/wDhd+31oHwXm+C3n6P8RNCF7Zy2uo3l19h1NYbOeOXZKjLslbam3e0pJP1NfRmlftdftnfFZo/CHwp+Hmk+H7l0Ef23WtUhZYuMblitjcbz3AIGe+KbvYPI8f8Ait8AfhX+w3+yxH+xr+zpJc6p4r+KOqRwNPezNc313K832i6u7mSQs7ARpKAWJxuAFYni7/gkl8V/El/q3w8sfFlha/D7WWsZ54RDuvBLYWJtY1UlMbSxDbt+QBgCvvf4Afsh33gTxxL8cPjBrb+NPHt5G0L31wm2CyiYgtFZRZKxjIC5ULlc/SvvyJQiBRxjsOg+ntU89loDjc/CPwh/wSJ8d/CPR9Rl+H3jibWdR1Hwu2gxDXpJbmHT5ZZImle08zzNkZCMAoC4z0r9df2dvhzrvwj+BnhL4W+JbiO8vfD2lWmnSzw5CSG2hSLcMgdduele10VLlcajYKKKKkYUUUUAFFFFABRRRQAUUUUAFFFFABRRRQAUUUUAFFFFABRRRQAUUUUAFFFFABRRRQAUUUUAFFFFABRRRQAUUUUAFFFFABRRRQAUUUUAFN3DpTq8b/aE8Wat4F+BfjHxroLiO+0nRr67t2IyFlhgd0P5gU0B7HkCkDqe9fwk63/wUX/4KVfsw/sweA/2xPEPxOi8W2XxUl1TTxo1zaRIdPkhjupI5YmG4nYYQO3Fbv7Mv/BTz9un+3PCOjfCz4t6f8Xdd8d6Bf3up6Tc2fkjw/LBbTXAkeTy23KpjCjsSwHStPZMz9oj+5kuo6mnV+Un/BGz9pf4x/tZ/sN6J8Wvj3dw33ieTUdTs7qa3QRxsbS9mgG1QAMAJ6Cv1YQEDms2rGg+iiikAUUUUAFKOopKUdRQB8e/s7/8nDfGP/sJ6b/6b4a+0a+Lv2d/+ThvjH/2E9N/9N8NfaNXPcSCiiioGFFFFABRRRQB/9L+/iiiigArl/HH/Il6v/15XH/otq6iuX8b/wDIl6v/ANeVx/6LamtwPkr9gs/8Y1aSOubm8/8ARzV9kbjkYr8cbb41/Fn4B/8ABOiHx/8ABnSU1bWo7+eJVkK7YUe5IaXa339o/hAOa8k0b/gpr8ePCXwVtPjJ4n0nT/F+lWl9LpWqyaSWjura6kdo7QzQSRxIgLhVcKzYycZrV029SVI/eonJB7V+UP7cX7Xvjnwf4zl+CHwSvIbHULexa/13V5Y2mj0y0CBhhFVw0z5UqDjjPPFfLfjv/goj+2N8OPi1pPh34oabo3hXTvs9pNci43SwTPcxqzRGdImeKRGbCjaA2OSK/mg1z/g4J+MHwO/aT+KfwU8M+B9J1rUPF3jG6s5tU1O6YI1utxJbwKy+W48uKNgqt1CgADFCptbicuh+5fiv4Kfs9fGLxL8AvHEXiDWfHq+M/EYh1ebWLu6eOdJNOu52UW0xZEjMiKyqOFAAAxX65a//AMEwvgFpYbWPgjd6r8PtZg+a3utGu5oIlcdDJbxuiSL6q3Ffz+2f7VXx/i/4KX/s5/sb/E+18KyaRHIuu2tx4auTcbGGnTJ5UpMMfIEp688V+tf7aX7fX7Rvg79ovxF+z/8As6N4c0ebwT4fHiPU7rxJcGAXke2Nxb2o8qQMzLJ14IIqpX0SCO7Pov8AZ3/aC+K2g/Faf9ln9pu4iPia3hNxo+qwII4dYtFIGduFCTgEMyjPRuTXWftrftW638ELfRvAPwwhW/8AGfiVmFpHICYrWBQTJe3AUMwiXG0AKcsy8d6/OHxz+0kf2sP2Ovgx+37pemHQvEOleIbYiJezSl7O4VH4JjZpSytjkY45r8a/+Cmv/Bc74j/sEf8ABT34lad4d8FWPiW/j0uy06wuL+dkFrC0ULyoibHBEjoGYdM89aXKr6jbP0D+M3hn4aftA/sy678W/FXj3W/G3i/TdftrG6DT3Nnp8O3UY7aWOC0yIjHglQ20Mw5I5Nfslff8EvP2Tb7Sornwfpl54W1ARh473RbqSynRyMgloShbnnBPNfyx/E3/AIKA/tN6x+zL8JbzXNL8FWnhn40eJ7OS6tNJujLqVtJJdfaizobdOCyY5bjOBxX9GP8AwUQ/bw+Lv7OvxN+Fn7NHwGtNJg8TfEkyiLVtflMGnWkVtE7tvbZJ87FMAFcc9aeulhLqdd4I+L/xo/ZM+KGl/BH9pHVpPEnhHXp/smg+K3QJLHOFJW2vx67VZRJucsQCTk1+rSblRQfSv5+tJ/aX8R/tz/sH/Fe0+LdjYw+KPhxqn2Ke70qTzrKa5sbsGOe2kKpkMIuflAGeK+N/Ff7cn7T2naRqvxl0Xx1NFqmmJpFraeHWRXiniu9KM0spBbJZXG7dsJJ+uan2dwcrH9ZkkjImce1N3ENtJPP+ea/lU/ZW/bU+Nfi+/v8ATZ/ifqlvpzeGJNX8R6lrlkqLpkxmhANiHdt4IcoANvLA9q/V3/glz8RPiz8SvBHiLxP4u8RSeJ/Cs16P+Edvr0oL2SAZ3vMqNIFVm5UFs4I4FKVNpDUrn6s0UUVkUFFFFABRRRQAUUUUAFFFFABRRRQAUUUUAFFFFABRRRQAUUUUAFFFFABRRRQAUUUUAFFFFABRRRQAUUUUAFFFFABRRRQAUUUUAFFFFABXG/EPwXpvxF8B6z8P9YZktNbsp7GZk+8EuEMbEe4DV2VUr29gsraS7uWCxwqXck4AVeST7Acn2ovYD+fTwZ/wbo/sxaHaw6D458aeJfFmiabDdR6TpWoXUrWmnyXaurywRGVkDBZGAwB1zmvYtO/4IW/smeDrvSNb+DN3qHgnWNN0OTw/dX+kMYJL+2ki8p2ufLdPMfvliTnvX6BaV+3B+ytr0usw6P4yspm0CNpb44lVI1RxGxDMgV8OQvykkn86h8M/tzfspeMLeC90HxvpxiuJjboZWeA+asbSFSJVQ8IpPTtWvPInlR+K/wCyR/wT88bfs9ftBeKP2H/g38YvEmj+EPDulrrcAIMshubyWN5eWmyAzzMxGetfpcP2Dvjl/wBF+8T/APfof/H64X9nH4k+B/in/wAFK/iL4w+Hepwavpsnhe2iW5tm3Rl4pbZHAPqGUj8K/IT9qr/gth/wUY8Pf8FLfE37Av7Inw20rxdc6V5D27zTGN/Lkt0mdpD5TAAFiBye1CbvYStY/bN/2DvjiBz8fvE//fof/H68h8PWXx4/Zn/bg+H/AMItW+JWpeM9D8ZWV291BqUQHltCkjKyHe5HKDpivzQ/Zm/4LC/8FL5/+ClXgr9g39s/4ZaV4QbxOs8rS28xlZoo7aSZWiPlKDyoB5FfqH+2Xe+K9M/b6+EeoeA7WK+1m30nU3tLedykc0ixznYWAJG4AgHB5przGz6Euf8Agon8FNG8XfEXwl4ps9V0w/DG2S61e5ngUwmOUx7PK2OzNuEinlRxXvF1+0t8I9O+CFv+0Tq2qx2XhS509NTjupztJhkjEiYXqXII+UCvySbT/jQ+jfGr4ufGHQLLRfFnxS0+HSNF8LtdK8080NrHbFhuxkZjLr7ele72/wCwdpn7Uf7BfgX4OftMaXqOjat4Z01Mada3skGLy3gMUfmNC2HXdhsHIpWiF31P0U+AXx18AftJfC7TfjF8MJ2utE1YObeV12s3luUbKnkcg17OOor4B/4Jp/s1+Jf2U/2WtN+E3i95zf299qEzJNO8+yOa7lkiCs5JA2MvA6V9/DqKzktRo+Pf2d/+ThvjH/2E9N/9N8NfaNfFH7PUjL+0N8YyB11PTf8A03w19qqSRk1U9wQ6iiioGFFFFABRRRQB/9P+/iiiigArl/HH/Il6v/15XH/otq6iuX8cf8iXq/8A15XH/otqa3A/PH9nT4L+D/j1+xZZfD7xsbmO0uLu6cS2c721xG6XBKtHNGQ6Nx1BHGR3r1Hwx+wT+z74X+FN78HrexubrTdTvI9RvZrm4eW6urmKQSrJNO5LsQ4yMk8Vb/YI/wCTatK/6+bz/wBHNX2VVym0yUtD4c+LH7AvwL+NvxEi+Ivj9dSlkTyhPYR3syafdeRgRme1DeVIy7RhmUnHpmvwl1z/AIJAf8E+vE37V3jv4DftR+FYre98Yag/iDw5rULG1Nwlw5lmtUlTaVaF5NqrkcJx0r+r088V87ftCfs5fDX9o/wwvhf4g2xLW7edZXsLGO6s51HyywTLh0cc/dIyCQTzRGfcbR/Pbq//AASA/ZD/AGAP2y/gL8WfgTa6mms6l4kfT5Zb++mu/wBwdPu3wPNZsHKLk1+0X7Vv/BNv9kP9tPX9P8U/tCeFk1LUtMXy4rqFzBK0ec+XI6YZk4HDHBAr8u/2j/CH7R/w7+IHgK81X4u+EPE1j8O9VbUrGLxBO9vqEp+zzWwilNtDcNIQsxLMzFsjPNfSXhb4n/tQ/tZXo8OXHxP8H+DtIuxsuI/Dk8l3fup6iN7uC1dGPqp47VbV0mSrXaLXxR8EeC/ij8Y/h9+w5+zvp9vZeCvh1PDq3iH7EAtrBFbRGO3s/kG0yM7xyEDuhzzXyF+3X/wTy/Y28Xft1XXjX9rTwlDf+GvipYwWNtrRG19O1K2REWNpQNyeckbncDj161+7/wAAv2d/ht+zh4IHg74d2zL5zme8u5mMlzeXDEl5riVsvI7MSfmJ69a6T4rfC/wd8Y/Bl94A+IthFqGk3kYDxyjO1sjDKcEq4PTH51HPZjsfzAftVf8ABBf9gT9lH4T6T8efhDZ6qNY8O6xpkunNPqM9xAvmXcSErG7ldu1jtwMdK/oV/ab/AGJ/2b/22fA2m+Ef2ifD0WtW9gVmtZQfLuIG2kfu5lG9cgnIB71+enx6/YI/bMuvhpN8GPgb48tda8KrdW1xDYeJd/n28dtMk8cUd0qTybV2BFHA2+nSvo/+zv8AgqF4+ij0K8m8JeBLLb5c93ZSzX9ztxglI5rWNQT1yHBBp3utGB4L8f8A4VfCL9nP4PaB/wAE4/2PdFh0698eXkaTRWx3S21nHKLi4u7lwMnds8v5jk+ZX31p/wCw5+zLY6xY+IpfBulXGq2NlDZLfvaxNOVgiEC7mKknEY2gk5HQVm/s4/si+DvgLqV741ub688SeLtW3C+1zU3Mt1KuchE3M/lRDAwqtjAHFfZNnv8As48zrUuXRDS7nz/4j/Zf+BfjXTG0Pxh4S0zUbMWa6eIp7eNwbZCpEbblO5copweAQK3PhF+z78JPgVpkuifCLw/Z+HbKZ1d4LGJIY2KjAJVAB06j15r26ik5PZjsFFFFSAUUUUAFFFFABRRRQAUUUUAFFFFABRRRQAUUUUAFFFFABRRRQAUUUUAFFFFABRRRQAUUUh6UAG5fWk3r615X8X/ip4d+C3gS7+IfiqOaSxs2hSRYFDSZnlSFMAkD77jPNfKFr/wUW+Bd5cXUdxbanaJbv5azSwLslIuVtHKFXJwkzbWyByO9UotiufoIGB6UtUrC4S6tkuI+VkUOD7MMj8xzV2pGFFFFABRRRQAUUUUAFFFFABXD/ETw3d+K/A2t+GdPZUn1PT7m0jdvuq00TRgnGehbk9cV3FFNMD+cfQv2S/2pNd/Zu1T9l2++GGk6ZNoAWaDX5ZV3akbbUY7oRQsqF8TRoeX2/McHjmvNbX/gmh8Vv2mv2odG+NPx5+HlroHhOS+jW70OR1ZkS20t7ZZgEBVBJMqsdpyd3PU1/UFSHB5rT2rJUFfU/nV/4JN/s667+zB+2X8T/hXrtjDpyQWN1c2dtbn5I7S41BJbcYwBnynXNfiL+1vY/wDBSv8AZE/4LfePv2xv2X/hHqHjLSb+G1tG+WMW91B9liDhXLFlIcc4XtX9V/wwOP8Agqd8SffwnZf+hWtfpqGwMZoc7O4ktLH8LX7Mni7/AIKZ/tu/8FrPhN+1B+1D8HL7wL4d8MQ3lpFgRtDbxPaTDLuCGO5yAOD1r99f+ChMXxkk/bR+Fqfs+PZR+Mf7H1M6Y2ok/ZhN5U+N+EfPHQbSK/a9icZFflf+0fn/AIeXfA8f9OGo/wDoqejm5itj+Pn4MaN/wVij/wCC0Pgpv21Q58V/ar06M+rvI2ghjbTEG3EayKqmPO1TGuGxxX9nv9n/APBUQ8/avBP4zXH/AMh19yeIPA/hHxfPZ3vinTba/m06XzrR541doZACN0ZYEq2CRxjrXZxZ2ZPWueMbdTWVS/Q/Ooaf/wAFQxz9p8E8/wDTa4/+RKX7B/wVE/5+fBH/AH+uP/kSv0YpR1FVYm5+IPwVsv8Ago/L8bfikmkz+DjdrqNh9sLSThd/2CLZsxanPy4BzjvX1alj/wAFRdv+v8FD/ttcf/Ilen/s7/8AJw3xj/7Cem/+m+GvtGqlHXUFI/OH7D/wVF/5+PBX/f64/wDkSj7D/wAFRf8An48Ff9/rj/5Er9HqKmwXPzh+w/8ABUX/AJ+PBX/f64/+RKPsP/BUX/n48Ff9/rj/AORK/R6iiwXPzh+w/wDBUX/n48Ff9/rj/wCRKPsP/BUX/n48Ff8Af64/+RK/R6iiwXP/1P7+KKKKACuX8cf8iXq//Xlcf+i2rqK5fxv/AMiXq/8A15XH/otqa3A+PP2HdW03Rf2X9Lv9VuIrWFbq7zJM6xoMzt1ZiBX2JBrWmzx+dFcwum0NuDqRtbo2Qeh9elfhr8Y7LTNR/wCCROsWN9a3N5LJdgQRWis0pYalGW2hefuBs+1fGH7TOj/tj+G/F+vfEv8AZnttVvvCUPgjQdOk0UF0EkcqWW6W2BPy3ELDD/dJXfz2OrgmSnof1VRyiVQ8ZBU8gjkYNfj1+25+0z8RPE3jPV/gJ8F7q707RvDlkbvxbrmnp5lxCrIJIrK2IIKyygglwylQGGa/SH4JNrGmfs9+FX1dZDqEGgWZmWYkyeclqu4PnnduHPvX+cj46/4Lk/tw/s6ftTfFD4JfDqbS9E0rXPG9/De6nfWSXDRxNeyxfvC8ZykcbFQMnHHFKC10CT6H9Jdr8Jv2XPF2t/s5+PfB/goi617xQE1SbXolury68zTLyQiaWXe0gLANgkjIFftl8Rf+Ce/7JHxFiaUeDrHQdSQfuNS0aJLG8hcfdZJ4Argj/e9q/lg8Ifte/FHxl/wVb/Z4/Zmf4qaN8TvCFuP7WjbSrCGzNrcrYSoIz5SgEBZG6nnGSM1+qX/BQz9uX41+Bf2ptd+CWgfEWx+Eej+F/Dv9uWd7fWYujrN3sjcWyFlIUZcrwc8dKud9LCi+59xfAv4nfFb9nX45w/sj/tDaw+t2OqwtN4T1+4H727SPG60uGOSZ0XJ3EncEJzk1+oSKpXPX3r+cjXf2gvHH7U//AATv+DX7YPxI04aV41sfEdnPDsXy/Mdma0aVFwp2TRStIFwOCDjiv6OFIGAves5opMUKowAOnSlwOtLRWYxu1fTvmnAYoooAKKKKACiiigAooooAKKKKACiiigAooooAKKKKACiiigAooooAKKKKACiiigAooooAKKKKACiiigApD0NLQRnigD52+PX7P+i/H/TdP0fxDqt/YWdjdR3MsNnK8aXIicOscqqyhl3gHByMgGvmyX/gnJ8N5F1nPiHVRFqkjSRR+a5W1WS+TUJEiG/GGmXnpwTX6L7MuBX4+eFPiv8At4/tFfGD4jaN8HvEmh+HdD8GaqmlwRXVos8r5j3FyxjY9QeM1pFvuJn666RZf2dptvpwdpBbxLGGbq20AZPvxzWnX5nL8Ov+Conb4jeG/wDwXJ/8ap4+HX/BUXv8RvDf/guT/wCM1Nhn6WkgUAAcCvzJm8Bf8FQreF7h/iN4bKopY/8AEtj6AZP/ACyr+d/U/wDg4S+PkPxc8Q/BPwxql74h1zw3f3Wn3Uem6BbTDzLSVopGB3D5dynBOOKahcTlY/tXor+VT9gb/gq5+1b/AMFDPjNr3wI+FHiyDRvEHhyyN9eQ6xo0EBVFlSIrhQ53bnHUDjvX6+f8K7/4Kinp8RfDf/guT/41Q42BO5+l9MYkdK/NM/Dr/gqL/wBFF8N/+C5P/jNNb4d/8FRen/CxvDf/AILo/wD41SsB+lyknrT6/Mf9nv4vftU6D+1zffs0/tFarpevRP4cOuWt1YQCBo2W4ihKMqxrkEOTnNfprl/T/P50mrAmPqvLkn5Tz0qxVeWIPySaQzxuL9oH4NXOi6rr1v4js2s9EuxYX8wfi3uWkEQikGOGZyFH1rzaw/bb/Zh1H4nJ8HbPxfaNr7ymBINsuxpQCSiy7PK3AAggv1HrX84XxF/Y1/a08F+FviP43+Euh3l9afELx35OvaLIwwbSLVhLBqMCk7QyiKMHodpJznivTvCfw8+IMXw60z9j2X4famnjm38dyay+qNBELRbM6i96JTc795zb/L93OTjpW/s1a9yeZ3P1u+F/P/BUz4kBh/zKdl/6Fa18af8ABSX/AIKq/tA/Cb9pnSv2C/2CfBEXjf4q6laC+umupBHa2EBUOGc4bJZSP4e9fZnwuU/8PTPiR/2Kdl/6Fa1+YH/BRf8AYz/bp+CH/BQG2/4Kf/8ABP3SbTxnql7p0el654eun8p5Yo41jUxMVYfwKeoqdLgjp/2Ff+Ctf7Wdt+2DB+wP/wAFNvBNr4P8ba5A11oV9YOHtrsKvmFMBUxhA3OOor77/aOAb/gpd8Dz/wBOGo/+irivyM/ZL/ZA/wCCiX7df/BRXw1/wUF/4KD+GLb4cad8O7aWDQ9ChlEs0ryo0ZLsqgbfnZsk5zX66/tHnP8AwUv+CH/XhqP/AKKuKNOgz9TEAxUlMTpT6yGFKOopKUdRQB8e/s7/APJw3xj/AOwnpv8A6b4a+0a+Lv2d/wDk4b4x/wDYT03/ANN8NfSvxM+Ivhv4S+AdZ+JXjKXyNL0KzmvrqQDJWKFC7EDucDirqbiR3lFfzn6Z/wAHGfwX8V2o1v4e/B/4h69o8pb7Nf2mm27QzqpI3oTcglTjjgVof8RB/gv/AKIR8S//AAWW/wD8lVj7RGns2f0QUV/O/wD8RB/gv/ohHxL/APBZb/8AyVR/xEH+C/8AohHxL/8ABZb/APyVR7SIezkf0QUV/O//AMRB/gv/AKIR8S//AAWW/wD8lUf8RB/gv/ohHxL/APBZb/8AyVR7SIezkf/V/v4ooooAK5fxx/yJer/9eVx/6Lauorl/HH/Il6v/ANeVx/6LamtwPkn9gxd/7NWkqen2m8/9HNX2OUYnjjv/AJ9a+PP2CP8Ak2rSv+vm8/8ARzV9lU5PUS2ITHuXDDIPUV/Ot4p/Ys/Y5+HX7Tnir4Qfta+AdI1Xwj8S9SfW9D129s4n2305aW5s5pihZdzu7R5O3CDkHAr+i+vIfjH8L/h58X/Bt94K+KljBfaNOgaQXGAI2GMOrn7jjsRj60lLoM/C34uf8E7P2Lf2Rf2p/wBn7x3+zZ4G03w1qOo+KXtpbuwjRGkgbTrxgpKAbgSqnr2r9mvjX+yl+zb8fzZ3vx38HaP4n/sp/Ogl1W1huDBjklWlVsDPbIAFfgh+0bpvwn+EnxD8JWngz9o+RX8Gas15oujalZSau0c/kTQiJLkiUsqRSOAgJGB0GK9/8G/EjSf2qNQj8IfHr9oiWO1uWCto2m6fLohuF7o90FhOD0IJIPStnG6TuZqWp7z4xg0X9r/9pDwp8FPhHBCvw1+E10uoapdWyCO0lvIY2ggsYNoAYRiQscDaPL4PTP7ExqNuf5dPwryD4S/Cr4efB/wRY+C/hPp1vYaLbqPLWALhsj75Zfvu3UseuSc16/EMLj0rKTLSJKKKKkYUUUUAFFFFABRRRQAUUUUAFFFFABRRRQAUUUUAFFFFABRRRQAUUUUAFFFFABRRRQAUUUUAFFFFABRRRQAUUUUAIrZYYr8af2TvjX8J/gN4o/aF+IHxh1608PaNa+K4zJc3j7F/1B4A6sfYCv2XBAIzX8A/7SVj4H8c/wDBaW0+Fv7X1xJB8D7rxPJM8c7MunXGqLazGNLr+A85wGBGQKuK0FJn9mH7OP7f/wCx1+1lqVxov7P3jzTvEV9agtJbQs6ShQcZCSKhYfTNfYodT0Oa/ja/4KNfDb9lP4F/t8fs2a7/AME7oNL0n4iX2vx22oWnhcRpHLo5t5vMa5W2AQjAU/NnnFf2RKpHOOSOfr3oml0BMztW50u6PfyZP/QTX8CP/BHP/goz+xj+w1+3B+0hof7T8kehajr3i/V5bDW5YDIqxpeSBrfcoLruILcDHFf39uiSqY5BlWBBB7g18Ka5/wAEwv8Agn74n1q88ReIPhF4XvL6/mkubmebTLZnlllYu7sxjJLMxJJPeiLsDP57/wDglf8AtQ/s/fte/wDBeP4x/Gb9muzFv4cufCEUHniIRC7mintEkm2j+8ysQTyQcmv7Ai2OtfLvwV/Ys/ZT/Z18Qz+KvgX4B0TwrqN1F5E1xptnDbyPFkNsZo1UkZAOPavqDgdRSk7gkK8scaGSRgqjkk18BfEj/gqV/wAE/vhR8Q/+FWeP/iho9hrqyCF7ctI/luTgK7ojIpz6nivU/wBtzVPiDo37JHxF1X4WBjr8Gg3j2Pl8v5ojIyv+0BnFfzDf8Evf2e/+CTHxB/4Jc6v41+PUPh/VPGeoW2pT+Lr7WxE2qQaj5khcBpgZVKycLsJ7dKcY9WDZ+73hvxBofiv/AIKjQeJPDV3Ff2F78OWlguIGDxyI19blWVh1yK/Umv4wv+DbLW/iFqnxz1nTvEs11c+GtM0XVbXwpNd7iz6RHrAEJUsSSgUKF9sV/Z7VVVbQmG1wqJl5zUtQOSD1rIsUAEHJqPaSQqnhf8/5FeKr+0P8FLvQtW8RWniayey0K8Ww1CYMSLe5aQRCKQYyGMhC9Mc155pv7b37LmpfE6P4Oaf4ttpfEEkhgWFY5ijSgElBN5fllhgjG7PFPlY7ngnww/5Sm/En/sU7L/0K1r9KXTJPqf8AP+RX5q/C/J/4KnfEkd/+ETsv/QrWviv/AIKRf8FUf2jfhj+07pf7Av7AXgyHxh8UtQtBf3k144S1sICocM+Q+SVI/h71fLci5/QCqkNnrX5aftGhV/4KX/BDH/QP1H/0VcV+fn7C/wDwVk/bA0r9si2/YF/4Kc+D7Pwt4y1+3a60HUdOYNbXYVfMMeAqYwgbnHUV9/ftJskX/BSv4ItIQFXT9RJJ6ACK4yeaFFp2Hc/VGNlx1qQEHkV+fvij/gov+y94b/aN8O/sn6R4gj13xx4ilkjTTtOImaBY43lZ5nyFUBUPGTzgYr79gGIwKzKaJqUdRSUUCPj39nhlH7Q3xk/7Cem/+m+Gs7/gobe2GofsNfFr7FMk3l+GtRV9jBtreQ3Bx0PtWV8IrHXr74y/Gyz8O3g0++k1DThDcNGJBG39nw4by2+U/jX52+Kfgt+038M/2Q/2idQ+MviE3un3+navNBbNZwxGYNDJiVXQkquOcfpTqy7FU0fQn/BFHxJ4f8J/8Enfhf4k8V39vpmnWek757q7lSGGJfMI3PJIVVRk4ySK/UHUvjB8JNG8P6b4s1fxTpFppWsMqWF5NfQR290zjKrBKzhJSwBICE5r+UTxyGH/AAaP+K89P+EGP/pbFX88H7RUXj3xN8JbD9gzX47qLRf2ItdmuYbmUti8TxZ400WLw9vJPJTSbu62eigjng1KCe5/qP0V/ID+05/wVT/a+8Hft42tz8B/iXqGt/DnT/jpoXwo1jRp/D3h3T/D8BuZIYNQ06O5uLybxJe6jEXeQ3kMUNkuOBt+U+X+Mv8AgrD+3FOl58b7L476L4dvrz9oeD4Vp8KH0fSHurDQ4NWW1kcTTI2oteSwKXnlk3QhHPlJE+whkn9p1Ffx5+Mv+ChP/BSzRh8S/wBpqw+LFuvhT4bftSSfCaDwc3h/TGhv/D8mo2luUub/AMoXSyRR3arC8LRv8jNK8pZdn5wftb/8HaP/AAUS+A/7VnxN+B3hP4T+G5dK8GeLNa0Kze8ttQNy1vp19NbRGYxzhDIUjBcqAu7OABQB/9b+/iiiigArl/HH/Il6v/15XH/otq6iuX8cf8iXq/8A15XH/otqa3A+Of2INX0nQv2XdM1PWrqKzt47m73SzOsaD9+3VmIFfTkXxP8Ah09ul7/b+niGRiiObmLazDjAbdgkdCPWvwO/ak0DxV4j/wCCV2k2HhaC4nx4g3XS28Zmxbi5beXjH319Rg9q+YPjz8Kbf4izfD67/ZG+GX/CU6LpOlX51SxmjbTYBeg7TcqgTG9WLMox171uqV9SUz+qObxv4Pi1SPR5dWskuplDJC08YkcHkFVLZIPUECvx2/bA+I/xP/aU8feJ/hP8KTqE/gfwBb7/ABA2jv5U9/etHvSzWTchCDlZADjK4INfjXZfs/ftRwXd3rg8Haj4g3QaBGniy6uJE1LQ2+zxPJHbR8+YqMvkt84ypJ9q/n0+LX/BQn/go18Df2jPHfw38MeLtb0LwUfGl6uo31lbSbiGvJEmYyrgksrM2wnHfqKfskiea5/YnpukaF9p/Zg1ew+HkXgCafxShkthbwRO5OlXu4u0RJYg9WPLHk81+7fxa+A3wZ+NWizeH/ij4csNXglBUG4hjaRD2ZHYEqw7MDkV/ER8Dv2ptG+KH/BX34BfDD4K/FfX/iN4Gt0+03KauJxHbX6WMiAR+czYOGcELxX6y/8ABVj9pHxV4K/au1fwH8XfHXiX4ceDdP8ADn27wpceH4pyupawViPlzPblScOzrsf5SOe1S02K63P0B+GWv+K/2K/2hNK/Zr8U6zeat8P/ABe0i+GL6+dpprK6QFzYSSSEsyBFkEeSQAo4FfrnbNuhGf17e1fzbXnxA+Nnxh/4Jl/Bz4v/ALQ0L2vxBi17T5bRpEEU8p3+SkhQdJJLV3dh7k5zX9JyY2gDtUSWiZokOooorMYUUUUAFFFFABRRRQAUUUUAFFFFABRRRQAUUUUAFFFFABRRRQAUUUUAFFFFABRRRQAUUUUAFFFFABRRRQAUUUUAAAJANfhH8Ff2RvgB+2VqH7QPwo/aG8PW+v6Q/i6N41mUGSFxCcPE+CyMPVcGv3cA+cGvy4/4J5r/AMXZ+Pij/obI/wD0QauLsmJ9Cx+x3/wSB/YX/Yb8azfEj4HeFiPEMqGJdQ1CVru4hQ9Vikl3Mg7fKRxX6fY+agADpS1LdxiYFGBS0UgCkPSlooAqXEENzA1tcoHRwVZWGQykYII7gjivxq+K/wDwQL/4Jk/GL4oXPxY8SeBja6hfXH2q7gsZ3trS4lJ3FpYI9qNuPLZBz3r9niu7rSbB0/z/ADpqTWwep+T3w4+Hvgr4T/8ABSvT/h18O9Ng0jRdJ+G5t7S0tkWOOONL63AAVQB25Pc1+slfmen/AClib/snsn/pfb1+mFXN3sTFBUT8NycZqWkKg9azKP5FviN+xZ+1p4O8MfEbx78I9EurqD4g+O/L17RpGAR7OPVVlg1CBckBwI4wfunaSc19y/sW6jqPwZit/wBln4mfCXUtX8RjxPqOoDUHtbd7OKK5uZrmG5EzybgyxOq8KSDxX9ATJvGCabswBz0rb2t1Zk8up+aHwvOP+Cp3xIz/ANCnZf8AoVrX5kf8FFv2KP26Pg1+35bf8FO/+Ceum2Xi7W7vT49L1zw7ev5ZmijjWNTE5Vhn5FPavsPxd+0X8Kv2Yv8Agpj418UfGi+fSLDWfC9pDZztDLIkro1sWAMatyNp6+lfRf8Aw9U/YaJ3f8Jef/AS5/8AjVJ33Gj8ZP2S/wBjT/goh+25/wAFDvDf/BQf/goh4etPh5a/D22lg0PQLaQSyu8qNGS7KoXbh2bOSfavv7/gop8IJfj5+2Z8LPhNHruoeGm1rSNTgGo6XK8N1Bujn+ZHRkb2I3DIr6gP/BVf9hvOf+Ev/wDJS5/T91XyhcftIfCb9qb/AIKN/CbV/ghfSaza6FYXxvpVgljSHfHMF3GRV6lgPxoV7C2PwF+A3/BBH9qD9i3/AIKb+GfHGra9qniHwHrc93E/inSLmSHU7ZpIJShumDI4LHCsVds5r+qZP+Cefyj/AIux47/8HV7/APH6/QmK+sjJJFHKjOvLKGBI+ozRLqtjaKDdSpGG6F2Cj8ycVio2NpVW9z8+f+Hef/VWPHf/AIOr3/4/R/w7yzx/wtjx3/4Or3/4/X6IWt5a3qeZayJKvqjBh+Yq2Oopk87Pw/8Agl+wf/a3xt+Kelf8LS8bRGw1HT08xNXu1eTdYxNlyJ8sVztGegqH9un9gweFP2PPiV4i/wCFn+Nb37H4ev5fIuNXu5IpNsLHa6NMQynoQQeK/QL9nhQf2hvjJ/2E9N/9N8Ne0/tDfCe1+OnwT8U/Bq8uWs4vEul3OnmdRkx+fGyBse2c0VI2HCZ+Y/8AwRz+HPw++L//AASB+HHw1+K+g6f4l8O6vo5gvtL1W2ivLO5i80tsmgmV45FyAcMpGQK/RnW/2Qv2UPEt34j1DxF8MvCt/P4xbTH16S40eylfVG0Xb/ZhvWeIm4NjsX7KZd3k7R5e3Ar8K/2fv2Av+C2v7Jvwu074EfAr40eD18K6ErQ6ct/pSSzrDuJUOzQMc88/Ma9rHwR/4OED1+NXgMf9wWL/AORqlMqUdb3P08179gb9hvxT8T9Q+Nnif4O+C9S8YarPb3V5rd1oVhNfzT2jpLBM9y8LSGSOSON1fduDIhzlVx+XXxA/4IV2PxV/avm+PfxD+J0epeHbjxvY+N59N/4RPRYdfnk0y4W7s9Km8TwJHfTaZDMibYZI2k2KFM2QGFr/AIUj/wAHB/8A0WrwH/4JYv8A5Go/4Uj/AMHB/wD0WrwH/wCCWL/5GouTy+Z+vFz+yv8AsyXuian4ZvPh34al07W/EH/CWahavpVo0N3r29JP7VnjMW2S+3xo/wBpcGXcindkCvTLnwB4DvbmS8vNEsJZpWLu720TMzMclmJXJJPJJ61+HLfBP/g4OQZPxq8B/wDgli/+Rqb/AMKV/wCDg/8A6LV4D/8ABLF/8i0XDl8z/9f+/iiiigArl/HH/Il6v/15XH/otq6iuX8cf8iXq/8A15XH/otqa3A+Sv2DMn9mnSgBn/Sbz/0c1fYEcTocgY/HP0/+v718hfsEf8m1aV/183n/AKOavsqnLcS2KZhO4scnPv8A5/8A1V+KnjvwB8P/ANkj9oHXbP4x+GLXWvhD8Tbz7ebu5tkuYdL1eTLS+eGVisc7tI24AjJGcZr9t65Lxd4Y0Lxro154T8VWUWo6ZfxGK4tp0WSORTjhkbKkfXoaIysOx+Mv7SXwc/Z78D/tAfs6+K/gl4Y0LSvtfixkW70i1giLxHTb07fMhUHbwCB7Cv2F8e6T8OLnS/7S+JNvp8lpZEziS/WMpGVBO4eZwCB6c1+Y/jb/AIJG/DTUfFWieKvhV418Q+DR4dvGv9Osre5luLK1uHjeMtDA8qpGNsjABVGAcdK9Dt/+CcOk+LdSjvv2gfH/AIi8fQxOCLG6uJLaxfByPNtUleJx9VOattNLUlJ3PMrFz+3p+0poniHwtA//AAqr4YXbXUF0wKR6pqoRoB5SkZaGFZJFGcDgEA8V+v8ACAEwBj/Pb2rmvC3hbQPBmhWnhfwpZQ6fptnGIoLa3QRxxogwqqigAAAcYrp4/u1EmNIfRRRUjCiiigAooooAKKKKACiiigAooooAKKKKACiiigAooooAKKKKACiiigAooooAKKKKACiiigAooooAKKKKACiiigBR1Fflz/wTz/5K38fP+xsi/wDRBr9Rh1Fflz/wTz/5K38fP+xsi/8ARBqlsxPofqLRRRUjCiiigAooooAKKKKAPzPX/lLC3/ZPZP8A0vgr9MK/M9f+UsLf9k9k/wDS+Cv0wq5bISCkyBzS1XdS2QKgZNuFNLqwIBr4W+N/7fXwe+BvxKf4U6taanq+qW0UU9+NMgE62MUxUI9xuZWw29fuhjz0r03wB+1X8HviZ8Y7v4H+EdRefX7HSodZmhaJ0AtJ/L2MCwGT+9UEU+V7gmfnr8Q/2f8Awn+1V/wUe8YeBfipqOsDStA8M2txZ21hqE9nGkjtb7mKxMoJO9uvrXuC/wDBJX9lQKM3Xif/AMHl7/8AHKk+Fo3f8FTviQp/6FOy/wDQ7Wv56v2jP25/+CvHxb/4LD+Mf2B/2M/F2maRpWlJbXCNqFpG8dtA1tHI7M+x3PztxweuKtN9yVbex/Qkf+CSv7KmOLrxP/4PL3/45Xy1qfwg+Hn7Dv7eHw3s/AmtavY+H9c029bV11HUbi8hZY1lKsyyMwGGVe3Ffmd8Df2sP+CwvwC/4K7/AA4/Yj/bT8ZaTr3h7xZHdXQl020jRLmGO1lkG1iiOpWRRngdDX7S/tXaLoniD/gol8G/D/iO3jurC70vU4riGcBo5I2huAwYNwRj1qte4nboj5HvY7TVvih+1P4q+GvjzVbbTIdBtbjT9Qhv5pbe2ke0t7lxbbnCIWfIIUjGSK5v9ofQPjX8dv2Xv2c7/wAH+L4YPtkNudVnvtXuNPW7J0+QbnngV9z+ZhiG9DzXtX7R37XP/BL39jy2sP2MdO07SdSvfHWoRWTeGNHhhfzXuJRl7nAWPancEnAGMV+ll9+y5+zJ4j+EOl/BfXvC+kS+GdNAe106SOJorZup8pSCExkj5e1CrRG6bPmr/glX4ufV/g9r/gi8jka98K6xNp9zdm9mv4LqQMx8yCecBmTt0Ar9Rh1FeV/DDwF8K/hB4Wh8E/DOysdF0q2z5dtaiOKMEnJOFwCSSSTXow1TTM/8fMX/AH2v+NQ1fUFpofJf7O//ACcN8Y/+wnpv/pvhr7RNfD37Puo6fH+0F8YpHuIgranpuDvXn/iXw+9fZ66vpWP+PqL/AL7X/GlJlJGgFA5pSobrVD+1tK/5+Yv++1/xo/tbSv8An5i/77X/ABqQNCis/wDtbSv+fmL/AL7X/Gj+1tK/5+Yv++1/xoAtTqGXBr+ZH4of8HGXgn4a/EvxF8OZ/AtxcPoGp3emtKJQN5tJnhLYz325r+mFtX0robmLn/bX/Gv8tX9qq4jP7UHxIKspH/CU6xg5H/P7NScrGtOCe5//0P7+KKKKACuX8cf8iXq//Xlcf+i2rqK5fxx/yJer/wDXlcf+i2prcD5P/YHUt+zVpQH/AD83n/o5q+zfJevjb9gL/k2zSv8Ar5vP/RzV9qU57iWxU8l6TyGq5RUjKfkN1o8hquUUAU/IbGKUQuKt0UAVPJejyXq3RQBU8l6PJerdFAFTyXpDE+KuUUAedePfHPhr4Z+GLjxh4xuRa6fabfMkwWxvYIoAGSSWIrxtP2rfhYVz/pvP/TtJ/hWf+2rEB8Crw5/5fbD/ANLIa+s4B+5XPcU7dQPl/wD4at+Fn/T7/wCA0n+FH/DVvws/6ff/AAGk/wAK+pqKQHyz/wANW/Cz/p9/8BpP8KP+GrfhZ/0+/wDgNJ/hX1NRQB8s/wDDVvws/wCn3/wGk/wo/wCGrfhZ/wBPv/gNJ/hX1NRQB8s/8NW/Cz/p9/8AAaT/AAqnc/tc/B+yKy6jPdW0TOkfmS28iqGkYIuTjjLECvrKvmL9sSMH9nvXZM/8tdP/APS+3oA+iLfM6rKhBVhkH2I/rVryXqvpEe3ToGznMa/yrToAqeS9HkvVuigCp5L0eS9W6KAKnkvR5L1booAqeS9HkvVuigCp5L0eS9W6KAKnkvQYnq3RQBn0U+T75plABRRRQAo6ivy5/wCCef8AyVv4+f8AY2Rf+iDX6iqTuwa/Kr9gPVNP0j4n/tAahq08dtBF4rjZ5JWCIo8g8lmOB+dUtmJ9D9VaK5Tw5458GeMI3k8KavZamI/vfZZ0m2/XYxxXThz6VIySiiigAooooAKKiMoB56VyGp/Ej4e6LqSaNrGu6faXkhwsE1zEkhPYBGYH9KLAfAa/8pYW/wCyeyf+l8FfphX5mQyJL/wVd82Mhlb4euQQcgg39vgg1+mdXLZCQVVkcJkn1q1UUkSyDBqBn4dft0/Av43a38eb3x38DPBusHVtVsoIIde0LVZLOIyxmNQNTt1eMTRIFxyJCQAMY6eo/BXwD+0joX7duleOPiB4TMmlp4FttE1HxBbmNYJtRUwSyMEBDbQyMg+X0r9dBEoyfX8/xpdm3kHAFXz6WElrc/ND4Xf8pTfiR/2Kdl/6Fa1/N3+2N/wTp/4LE+D/APgrX4w/br/YY06xih1EW0drNczZSeJLaON0liKlSNwJAOeQDX9IfwxJ/wCHp3xJz0/4ROy/9Cta/S1mUc+nem5WFY/i/wD2Tv2Hf+C0HxR/4KzfDz9tr9vmw099N8NJcwO1nIFjt4pLWWMCOJUVRudgTjHU1+6n7X3hux8af8FBvhD4R1J5orbU9I1S2le3kaKVVkhuFJR1wytg8Eciv1tVgOfWvy1/aNYH/gpd8EP+wfqH/oq4oUrjtY/nJ/aX/wCDZzx58Iv2rvDX7SX7NGvXvizw5/b0V1rGn3lzKmrQxSviR4bolmcoG6tIpxX9O9r/AME3PgNd2yXH9teM08xQ21vEeoZXI6H971FfoGEBYvnP+elXI4sruTpWMYJGk5tn57D/AIJp/AYdNd8Zf+FHqH/x2l/4dqfAf/oO+Mv/AAo9Q/8AjtfoWyMvWmjk4p8qEps/Er4H/wDBPb4J6r8cfippNxrXixI9P1GwSMx6/fI7B7GJiXYSZY5OAT0FfXC/8E0fgNgf8T3xl/4Ueof/AByu4/Z4Qf8ADQ3xjH/UU00/+U+GvtQccVU4LsKM2j89P+HaPwF/6DvjL/wo9Q/+OUf8O0fgL/0HfGX/AIUeof8Axyv0LoqORdivaSPz0/4do/AX/oO+Mv8Awo9Q/wDjlH/DtH4C/wDQd8Zf+FHqH/xyv0Loo5F2D2kj88m/4JpfAZcEa94yz/2Meof/AB2v84j9pX4U+HNE/aM8f6NaTXzxWniTVYUaW6ldysd5KoLMTlmIHJPJPNf6wZGRiv8ALI/asT/jKL4k8/8AM06x/wCls3vSaSLheR//0f7+KKKKACuX8cf8iXq//Xlcf+i2rqK5fxwR/wAIXrH/AF5XH/otqa3A+U/2A/8Ak2vSv+vm8/8ARzV9oh1JwDX4JSfET4ueH/gB8F/hd8JPEB8MTePPGN3pN3qKQJPJFAsF5c/IjkDJeFRnI4zX2UP2QP2pSx2/H/Vff/iUW3/x2rkiVsfpNRX5v/8ADHn7VH/Rf9V/8FFt/wDHqP8Ahjz9qj/ov+q/+Ci2/wDj1KyKP0gor83/APhjz9qj/ov+q/8Agotv/j1H/DHn7VH/AEX/AFX/AMFFt/8AHqLID9IKK/N//hjz9qj/AKL/AKr/AOCi2/8Aj1H/AAx5+1R/0X/Vf/BRbf8Ax6iy7gfpBRX5v/8ADHn7VH/Rf9V/8FFt/wDHqP8Ahjz9qj/ov+q/+Ci2/wDj1Fl3A/SCivzf/wCGPP2qP+i/6r/4KLb/AOPUf8MeftUf9F/1X/wUW3/x6iyA/SCivzf/AOGPP2qP+i/6r/4KLb/49Qf2Pf2qAM/8L/1X/wAFFt/8eosgPav21GV/gTeBTki90/8A9LIa+sYP9Sv0r8Sf2rf2VP2lNF+D13faj8ctTv41urINE2l26D5rqJQ2RKfukg19MRfsfftTtGCPj/qnQf8AMJtj+vnc07abkp6n6R0V+b//AAx5+1R/0X/Vf/BRbf8Ax6j/AIY8/ao/6L/qv/gotv8A49Ssij9IKK/N/wD4Y8/ao/6L/qv/AIKLb/49R/wx5+1R/wBF/wBV/wDBRbf/AB6iyA/SCivzf/4Y8/ao/wCi/wCq/wDgotv/AI9R/wAMeftUf9F/1X/wUW3/AMeosgP0gr5k/bDZR+zzrq5583T/AP0ut6+ev+GPP2qP+i/6r/4KLb/49Xzz+1H+yf8AtLaP8FNX1DUvjpqd9FHJZBoW0u3QHdeQKDkSnoSD+FKy7iP2V0p1Om26g8+Wv8q0a/MzS/2Qf2oZLOExfH3VFyi8f2TbHHHTPnc46ZNaf/DHn7VH/Rf9V/8ABRbf/HqLLuFz9IKK/N//AIY8/ao/6L/qv/gotv8A49R/wx5+1R/0X/Vf/BRbf/HqdkM/SCivzf8A+GPP2qP+i/6r/wCCi2/+PUf8MeftUf8ARf8AVf8AwUW3/wAeosgP0gor83/+GPP2qP8Aov8Aqv8A4KLb/wCPUf8ADHn7VH/Rf9V/8FFt/wDHqVl3A/SCivzf/wCGPP2qP+i/6r/4KLb/AOPUf8MeftUf9F/1X/wUW3/x6nZdwP0gor83/wDhjz9qj/ov+q/+Ci2/+PUf8MeftUf9F/1X/wAFFt/8eosgP0gor83j+x7+1OOT8f8AVf8AwU23/wAerzT4xfs6ftZfDH4UeIfiFY/HrU7ifRbCe9jifSbYK7QoXCsRKcA4weKXL5ibP1dkdd55pMg9K8F/Zk8Z698Rf2dvA3jzxVIJdS1nQtPvLqQAKGmmto3kYAcDLMele7oCBg1Ix9FFB54oATaCRmv4SPj34k8e/tE/8FYdV/4JsX3i278DfD7xh4ifUtau7KZrabUDDayMtqJVZCASBkbu3Sv7uV4IFfzOw/8ABNf4M/8ABQrxl8ZofG91d6B4m8NeMkuND8QaYxjvbGXyG5R1ZGKkMQRuA5rSm9xNXPjX9pj9mHw3/wAEV/2xPgZ40/Yo8Uasth8QNdj0DXPDF5fTXcd1BLDKxuNkjtyGQMTjr3r+yFNxAYjggcV+F/7Lv/BETwx8J/jzpX7S37SfxK1/4yeKPDkfl6I+vszQ2GV2b40aWQFtpIzgHmv3TAbkmio10FFE9FFFZlBSHoaWkPSgD5m/bD+J/iH4K/suePfit4Rh+06poOi3V3axgZzKkZ2nH+z1/Cv5Xf2Jv+CT3wZ/b7/Yin/bp/aT+I+vaz8SfFUF7qw1SHVJ4o9Hljd3jhRBKAoi2hCCF6dK/sb8QeH9J8U6HeeG9ft1ubHUIXt7iJxlXjkUqykHsQa/nN8Q/wDButoGk6prnh/4AfG3xh4B8AeJrqW51DwvYTS/ZGE7l5UjInXYrEngKBzitINdSWj5U/4N/P2k/iz+0L+0rq2k/F7UZNcu/AXh7UvDdpq0pLPfWtnqyxRSsx5Y7Y1Gcmv6/q/EX9lH9lz4S/sc/t46R8BfgtYix0XR/h1IoJ5kmla/gMk0rdWd2JYkk8nrX7dUVGEQqtc3VvZQSXV24SKNSzs3AVQMkk+gFWa4j4ieH7nxZ4E1zwvaMqS6lYXNrGzdFeaJo1Jxnu3PtWZR4bpH7bv7KWu32padpfjeweTSTtui3mokZ81Yf9YyBG/eMF+Unk1b+JX7Zv7MHwgu0sPiN4ysdNuHMYWI+ZK7ebH5yELEjkho/mB6Yr+bTWP+CZ37YXxA8J3XwevfDx0XRrC3SxvZGmBg1CP+04pfOs8EmNliHmk7UJZT61qWH7A/7bXwI/av0/4u3nhmP4paL4ZuorfTVEi/aJrBdLa0iSbzsAmMldxLHle9b+yXcz53fY/XD9nX4geDPif/AMFJPH3jbwFqEWqaTfeEbNoLmEna+HtQRyAQQRgggEV8E/8ABRL9un9t/wCJf7e9l/wTG/4J8XOn+H9dTTk1LXNe1Fd4toZEWVRGuxzyGUHGOtehf8Eqvgv43+CX7YPxD8M/Ea2jsNW1HSZtXksYjlbRb++juUh6YzGsgU444qz/AMFFP+CXX7S3jX9q6w/4KCf8E/vF9r4V+JlnZrZXttqKFrO/gRBEocBXHCheq9qlpXKV7HzN+yN+25/wUG/Y3/4KIaF/wTv/AOCi2r2HjS38eW0lz4f16wQKQ0aGQq4KI20bWXHPNfqp+0nLFD/wUs+CMsrBUXT9RLMeAAIrjOT2r8+f2Kv+CVf7Y/jf9tCx/b9/4KfeLNP17xb4age30DTNIDC0t96mMv8AMkQ5Vm/h6mvuX9r3wvp3jf8A4KB/CDwfqzSraarpGqW0xhdopAkkNwrbHXDK3PBHSm7PYPU0/wBqT/gsJ+yH+zV8UtA+AkWtJ4m8ceJL+Cwt9K0xllMTTMAXnkLKiqq5JwxPtX6nWPiLRPs6Ge8t0cqCw81CAccjr2r+KP8AaL/4NkvEPwh/as8M/tHfsuazdeI/Dg12K71jSby4kTUY4ZHxI8FySzOV3Z+Z1OM1/TLb/wDBNb9nG5gS4N34oUuAxVtdvQRnsf3h6Vzxb6mskrKx9+zeIfD7AYvrc/8AbVP8ahGv6Dn/AI/rf/v6n+NfB3/Ds/8AZx/5/PE//g9vf/i6P+HZ/wCzkePtnif/AMHt7/8AF1RB2X7Pmt6ND+0H8YpZbyBVbU9NwfMTB/4l8PTmvsz/AISHw/8A8/1v/wB/U/xr8Vfgh/wTz/Z+1P44fFTSLq78RiPTtQsI4ims3isQ9jEx3kPljk8E9q+t0/4Jnfs5Fci+8T/+D29/+OVUr9Q06H3n/wAJDoH/AD/W/wD39T/Gj/hIdA/5/rf/AL+p/jXwd/w7N/Zy/wCf7xP/AOD29/8AjlH/AA7N/Zy/5/vE/wD4Pb3/AOOVIH3j/wAJDoH/AD/W/wD39T/Gj/hIdA/5/rf/AL+p/jXwd/w7N/Zy/wCf7xP/AOD29/8AjlH/AA7N/Zy/5/vE/wD4Pb3/AOOUAfeP/CQ+H/8An+t/+/qf41/luftVXNs/7UHxIdJFIPinWCCCMEfbZq/0L3/4Jmfs6Yyt94n4/wCo7e//AByv84b9pT4V+F9D/aL8f6LZSXZhs/EeqwRmS6kZ9sd5Ko3MTknA5J5JrOobUmf/0v7+KKKKACuX8bj/AIovWD/05XH/AKLauorl/HH/ACJer/8AXlcf+i2prcD8F1/5F39l7/sot7/6QalX9BwUA5r+fFf+Rd/Ze/7KLe/+kGpV/QhVTEtgoooqBjWbAqrLc+XE0rnaFBJJ9B9asuoZea/OH9vP4neNFvfBf7MPwyumsNZ+JmomwmvVJD2thHFJNPIpHIZhF5YIxjf1ppXAq/EL9v8At18XT/Df9nnwtqXxG16ykaO6/sxUFnbOpwUlnleMFgeCEDAc88V4L4t/4KIftafCf4h+G/AfxR+Dfnz+KGk+yW+i3onugsSs7lln8lOFU5w556Zr62+FXjn9j39mvULH9lzwXr2l6dq8ICixaUfaJpCMs8z4w0jnJYu24sa+UP27fiX8P/hR+2z8BfGPxJ1W30TSo5rxWuLptkYYwTYXv81Wn5CZ97/s/wD7WPws/aKtLi28JzS2Os2B23uk36GC8tmBwQ6HIYA/xIWHvX0ykhYlSDx+tfg9+29+0l+xnOtn+018HfiPotj8RvBskMiGGfy5NRtCyxS2lxgAyJsYuobIDIvpkfs/8LPHemfFH4a6B8StGP8AoevafbajDzkBLmJZV5+jVMkCetj0BpyPn+v6VwmufFj4Z+GJfs3iXxBp2nyn+C4uoo2/JmBr+On/AIL8f8HCXjf9n/4g3/7Hf7Fl9DFrNrF5Wua6uHa1dgMw2/BO8E4ZuCCCBmv5VPh7+xj/AMFav+ChEE3xc8N6J4r8awPmQahe3b7ZATyYzPKDj0xxjpVKnpqLm6H+u/4f8Z+F/FNsLrwxqVrqUfB3WsySr+aE10nmHJzX+Pl4J/aK/wCCoP8AwSa+LVrZ3WoeIvBl9aS7zpepSyPY3Sqcspj3tEwP0J74r/SC/wCCNX/BV3wb/wAFRP2e18XyQR6X400TbBrmnKwwknTzY/8AYfGegwSBScLBza2Pt79tVFHwJuyB/wAvun/+lkNfWMH+pX6V8oftrf8AJCbv/r9sP/SyGvq+D/Ur9KH8I+pLRRRUDCiiigAooooAK+Zf2w1H/DPOun/prp//AKXW9fTVfM37Yf8Aybvrv/XXT/8A0ut6APofSxt0y3Kj/lmn8hVgyk89Kq6f/wAgq3/65L/IV/HX/wAF+/8Ag4F8X/sp+Lp/2Q/2PLqH/hKxD/xOtZOH+wb1BEcIwcy4IBPylTnBqoxuJux/XL4h+KXw58Jy+R4n8Qadp0h423FzFG35MwNa3h3xv4R8WW4uPC+qWepJ/etZ0lA/74Jr/Ie+H/7KH/BWn/gpC9x8U/DOleK/HcRZpDqF3dP5ZJPIi8+UcZ/u8VnaF8W/+Cof/BJr4q2keo3niTwJf28vmLY3s0j2NyFPIZA7QuGHrk98Vapi5z/Ya3HGc/hUMsuyNpf7oJr8RP8AgiV/wV18N/8ABUT4Ez3niOGLSviB4bCxazp6EbX/AIRcRf7D8EjAwWxX2J+3z8aPGHgXwX4e+FPwzfyfE/xJ1VNCsZ1PzW6NG9xcTD3EEMgU9mIPFRy62HfqZPxR/b10fw14wf4YfB7w9qPxB8UwFhPaaQqNFbnt500rxoGHdVLY/Cvm34jf8FBv2w/g5rXhex+JPwcR4/F1+2n2Fvpd95t8ZRBJcENHKIogRHE2795wRxnrX1N8LNW/Y1/Y/k039naz8T6fp3iG5IknW5mzeX1zINzy3D87mkJLAO3fivAP+CmHjTwV8Ovil+z1408banb6Vo1n40kea6uWxCgOk3yqT17kAfUVcbXtYLn2J+zx+2L8NPj/AHlz4ZsVudE8R6cv+l6NqaCG7jKna2BlldQe6sa+tUJzuzkHpX4efttfH39h3xz4dX4zfD34maJpPxG8G4v9MvY7gxzTLEMyW0xADSRSxb1CtkBtpxkCv1W/Zy+Mun/Hz4I+Fvi/pSr5XiLTLW9IQ5VXmiV3UH0DE49qmUeqHfoe70UUVACEA9a+fP2sv+TZ/Hf/AGBL3/0U1fQlfPf7WP8AybP47/7Al7/6JaqhuhPY5b9isf8AGIvwz/7FjSv/AEkir6dr5i/Yr/5NE+Gf/YsaV/6SRV9O0nuMKDRRSAZ5mDX5hTfsD/Fvwt8S/F3j74KfFy98KW3jG9XULuxGnQ3KrMqbMq8kgOD1xgV+nuwdqXYKpSsFj83E/ZM/bG6j9oK9/wDBNbf/ABynD9kv9sYdP2gb3/wTW3/xyv0iAAGBS0/aMXKfm7/wyZ+2P/0cFe/+Ca1/+OUf8Mmftj/9HBXv/gmtf/jlfpFRR7RhY/N3/hkz9sf/AKOCvf8AwTWv/wAco/4ZM/bH/wCjgr3/AME1r/8AHK/SKij2jCx+bf8AwyV+2J/0cDe/+Ca2/wDjlNP7Jn7YwyT+0De/+Ca1/wDjlfpNTNgzmjnYWPgj4BfsceM/hn8d739oL4qfEG68b63caSdGhEtpHaJDAZUmJxG7Ancnp3r75ChelIFAORTqUpXGkFV5pI4lMjnCrkkngDHXJqxXg37Ts+pWv7Ofj260Z5Eu49A1FoWiJDhxbvtK45znGMUkB6PH438FXMUrxavZSJBzKRcRkJg4+bDcc+tEPjDwa9i2rQ6nZm1DbWnE8flg56Fw20En3r/LW+K/iDxu3wf8Cw/sp6v4x1LxJqYlHxEtY7i/AYtqO2KP5yFUvmNcr0z6V9PWPj7w38MfhR8Q7b48xeP/AAzbWt1Z2ug/D9NQ1BjLfvbIJLy5nR8CDcXmwCx6DbW/sSPaH9jnjb4seJP2ef8AgoF4p+MM3gjXvFnh3xH4ctrW1vdCjt54/NjMBIYyTR8fIema9pH/AAUt0/GD8H/H3/gHZ/8AyXX5Bf8ABJv4wftq3Pwo0r9nb4CeJ9F8XppmktrdxqWvzXavCbqcMLKPzLZ3YW4l8vcQMhM1+wsdv/wVj2ZE3gMD/r4uf/kKpkrOwLUg/wCHlthz/wAWf8fc/wDTnZ//ACXXgOm/E3xn+1J+378M/iDoHw+8R+HdF8K2N6t9d6zDBCgaVJVQL5U8pJJcdq+hmg/4KyY/13gM/wDbxc//ACFXM+CP2i/2x/h/+1X4T/Z+/aUsvD1xZ+MLS4mt7nRppXeF4FdsOskEXBCHuaF5Idj9UMEjOM805QOwxX5jar/wUWn8KePvix4U8Z+BdUhtPhZZxXk09v5cjXiTCJ08pfMHVJQxzjABr37Vf20Pgv4U/Zy0j9pnx9ff2HoetWVveW8VyVE7tcorRwqoYgyEsBgHHvio5Ha47n19SjqK8I/Z6+NN18evAMXxCfQL3w9bXbsbWG/8rzZYQSEl/cySKA4wwG7ODyBXu46ioaGfHn7PCg/tDfGTP/QT03/03w19pAY4r4u/Z3/5OG+Mf/YT03/03w19o1c9xIKKKKgYUUUUANfdj5etfzl/En/g3R+AHxI+Imv/ABE1HxdqUNxr+o3WoyxrECqPdTNMyj94OAWwK/o2qPZ7/wCfzpNXGnY//9P+/iiiigArl/HH/Il6v/15XH/otq6iuX8cf8iXq/8A15XH/otqa3A/Bdf+Rd/Ze/7KLe/+kGpV/QhX896/8i7+y9/2UW9/9INSr+hCqmJbBRRRUDGs20V+Uf7YM0Xgz9t/4IfEPWcx6bfSXmg/aD9yCeeGWdHJ6A4i2g+pxX6tuoYV86ftN/s/+Hf2kfhJqHw615zbzSbbixuk4ktrqFg8UqMOQQy4OP4SRVRdgZ/Mb4i/4JS/tq2Px38Y+ANP8NeHNb0jxn4v/wCEkh+Id3O/9r6db/ajdfZY8wMwwp8raJMcY6V3X/Bw18Gfi/8AEzx3+zn4e+EnhaP4g65omtG9bSLsosV5HBbTq/ml8qMk5IORX6o+Dv2xfih+z1BbeAP2z/Dd/BLYkQx+J9Oh+0afdxoNonkCYljduC2IjyT1r5D/AGtv2yf2ePHH7Vvwk8VeFtRvPEWl6cL1L5NPs7rzMSwyhVG+JBySCCSMHHer1ZGiP5NP2kv+CSn7XX7bXxJ8f/tg6t4I8MfBfQtDEMb6VbzJ5JmgdLdo4Vt4yPMMnHIXPJzX99X7Ptj4i+Cn/BNTw1Z3wMereHvANvuUZyk0GnLx06qwr88v2Uv2DNS+KfjS78UeJ9L1Twn8NF1OTWLbSdRnZrvV5ZZWlia6UO6mFS24BmJ3Bfl9P3k17wxpviPwvf8AhO6VVtb+1ltHCjGEkQxnH0BwPaiT6DS1P8fb9jb4fQftt/8ABULwz4N+LV15kPjPxdc3GpPL/wAtPmmuWVs/3iuP0r/YE8EfD7wn8NfB+n+A/AtjFpulaXAltbW0ChEjjjAVQFAA6DrX+SL/AMFBf2XfjZ/wSc/4KJX9zYQy2K6drcmueG78ZEU1vJKZUQN6hH2uPXI5r+w/9kz/AIO0P2NvGXwrsf8AhqOz1Dwv4ttoUju1giSW2nkUYaSNg4I3kbsFRjOKcl2Ji+jP0I/4OCv2PvhP+0X/AME6/HHi/wAaWcC654NtF1PS9QZVMsMiSIhUSH5trI7DGeuK/j2/4NO/ip4r8Lf8FGZfBOlTMuneJdDlS8iz8p2PG6sfcbQK90/4Lc/8HHGiftqfC67/AGXf2SrK807wlqhUatqd4Fimuo0IYRRqjPhC4Vs5BOMY5r6X/wCDSL9gjxdbeNPEP7cHj7TnstN+yNpehGZSpmLSI0kygj7p8tufenHRag3dn9ln7axH/Cibv/r9sP8A0shr6vgZTCvPavyU/wCCi/7dP7I3wk8EXPwu+I3j7StM8QPdWLiweRnlCrdQuxYRqwGFBJDEV+lnw0+JXgH4teD7Pxx8NNWtta0i8QNDdWjh42B9COn07Vm9i+p6LRTF44HNPqBhRRRQAUUUUAFfMv7YZA/Z310n/nrp/wD6XW9fTJJFfm//AMFIv2rf2dfgJ8EtQ8PfGDxfp+g32pSWTW1tcOTLII7uGRiEQM2Aqk8jtTSBs+1/G+sXWg/CvVdcsDiax0q4uIyOu+KBnX9RX+Pv8MvD8n7Zv/BUiz8M/FS6Mi+NPHN2t/LIeTGLiWUoc9iF2fjX+tb8GPj/APAD9rD4a3F/8FvFNh4n0ua3a2nezk3FA6lGDKQGXuORzX+Wf/wVW/ZA+Lf/AATD/wCCiGqa7pEctpp9xrb+IvDmpJuEbCaY3IjDdiu7aw9ARWkCJ7H+sR8MPhj4G+DXgHSvhn8ObCHS9G0e2jtbW3gQIixxKFHCgDJxyeua/Lf/AILjfskfCX9qP/gn347PxAsbc6p4a059S0u/kUeZazQsrHa+MgMu5cZ5Jr8g/wBi/wD4Ow/2TvEfwlsNO/a6s9Q8O+LbCFIrmS3iSW3uGRdrTKd4YFzzjaOtfmX/AMFpf+DlHwt+1d8H9S/Zg/Y3sry00HXVWHV9ZvlWJ5IVIcxQKjOcM6rknbkAg9aFGV7jb0Pg3/g1w+Kvi3wV/wAFQtA8K6JcMlj4q064s7+MHh0RDOCf+BRrX97X7fbR+Cfj58BPjLqYJ0nR/FEltdv1WEXVhdxRyMewMjogPq1fyZf8Gln/AAT/APFniH4z6x+3D4006W00HQrV7DRJJFKefcyMqu6DptVPMU44zX93fx3+DHhb4+fCjV/hX4tX/RdTiAWRfvwzRsskUqHqGjkVSMY6USlZhFaH8z3x/wD+CZP7Zl1+0Z8S9L8H+D/DPjTQ/irrFlqdt401WVhqfh+O3kjkaKD9xIwACFE2SDIxnFeg/wDBwd8Dvil4y/Ze+Anwb+G+kr438S2HirT447G4KhdQewsJnkEhfjDiJic1+j3gv9qL40fsnWVt8Lf2vPD1/qenaYotrLxbpUf2i2ubZBiN7tMrKkwQDzCsb5YHk9a+Vf26P22f2a/iH8RvglrHgvV7nXrfRPFE11qEdlZXfmpA+l3sIPzxJ1eRQOep5ppu4rKx/KX+1X/wSa/bN/4KEfGfxd8etR+G3hb4G6P4T0WP7VaQTRC2aW2ijTaq20Z/eyEZGVA565r+63/gk/8ADnXvhZ/wT++Fvg3xIpF5baFZs2SejxKy8HBxg8e1fn98Ff2LtV/aJ+Ieq+J7PSdY8FfDLUb2O/nt9SnJvdaZGEixtErsqWxkAk5fd8qgpycf0BaRZWemWUOlaZGsENqixRogwqogCqqj0UDA9qVRrYcV1OhooorIoK+e/wBrH/k2fx3/ANgS9/8ARLV9CV89/tY/8mz+O/8AsCXv/olqqG6E9jlv2K/+TRPhn/2LGlf+kkVfTtfMX7Ff/Jonwz/7FjSv/SSKvp2k9xhRRSHpSAMg9Ka0iLwxxXxh+2x8TvFPgH4YRaN4AW/XxBrd5aW1jPZReYIybiMy+Z8w2jyg4zX5bzfHz9o3QLTxfc+JNV8R3C2Ud7FPFBZhmhuI78QWYgYuPlaHbI5Xtnqa0jTbVxNn9C6SI/3Dmn189fstXPjO9+Bnh2/+IN9/aOr3Foks8+wxk7wGVWUgHcoOG9SCa+hahoYUUUUgCiiigAooooAKKKKACs7UUsmtJV1HaYCh8wPjbsx827PGMdc1o15/8SdEvfEvgPXvDliwWXUNPuraJmJAEk0TIpJGT1I6dqaA+bfCfxP/AGG59Q13S/B974cWfS1MuqCGFECLDIPmdtiq+2QDoW+bGOantfix+xH8Xlj1x9T8Oau15ObdZbpIwzyxxs23Myq3yohxnjA4r8YNG/Ze+P2qfsy6v+zmPgxbaXrGiKsreIJlgX+0/I1OK5MMBTcz+dEhbEgQZ5PNecWf/BOb4kftOftRaJ8TPin8NZPCHgaa9jW50ffHbyxi30p4PNUW7MrCSZVJyR941q4ruZ3Z+l/7Mk/w31P/AIKQfEGf4UyWT6Mnhi3WM6ftEAdZbZXChAFBDA5I6818j/tbf8HF/wAE/wBlL9rHW/2Q5vh74k8TeI9GaFD/AGXDFKspmhWYbAZlbhW5yBSf8EifgF4o/Zp/bA+Jnwp8Q6eNKW1sruazt9wbFlNqKSW5z6mJl/OvwF/aF/bH8L/sDf8ABxP8Qfj58SvCF94k0F4bO0drS1aaSDdZxHzItwCkjGPvCnJWdgWx/QR+yZ/wcQ/CH9qX9rfQP2PH+HPibwn4k15pFQ6tBFCsflwPPlgJmbBVOMA9a+rf2yIPF9z+338IoPh/PFb64dK1L7FJcDdEJRFOV3jB+U9CQCRnOK/mq+FX7evw7/4KKf8ABwZ8Gvi78IfB2peHtG0i1vbN7u/tDBNcs1lOd8pXcox93ljX7s/8FSfg78avjj+2j8FvBHwJ8dTfD7XGt76RdUgiEriNY58ptJA5+tJu2qKWp734Y/ZU/ayk8EfF/wCJHj1tFf4ifEawTTreztppRp8KxW6WgkMnkq4ZkTfxGcZxXk3xl/4J0fGr4ufsxfBzwn4q0/QtZ8Q/DF0a70S7nlGmX2y3ktlPneSz5G8SZMfUVwJ/4Ji/8FTBwP2ttT/8F6f/ABdH/Dsf/gqd/wBHban/AOC9P/i6iNVroW6S7n6Y/sCfs9fFD9nL4Q3PhT4p6kl1dXl9NdwWME0lxbadDI7MttBLKquyKCAMquMYAwK+6B1r+eb/AIdj/wDBU7/o7bU//Ben/wAXR/w7H/4Knf8AR22p/wDgvT/4uocm9SlFLqfqt+z0RH+0J8Y2fgHU9NAz/wBg+Gvs/wAxCM5r+VD4Vf8ABOv/AIKS6t8WPiJpGnftSaja3mm31lHdzixRjcu9nG6EguMbEIH4V7xrP/BNf/gqVo2hXerf8NZ6owtYJJgP7PT5tiluf3nfFKU2+gKK7n9HG9c4pQQelfhD/wAEBvj/APHn9oH9mPxZqH7QviSXxTrXh/xXqejrfSrtZ47K6mgU4ycZEYNfu8ABwKEKUbOwtFFFMkKKKKAP/9T+/iio3fYuSKYJSelAE9cv44/5EvV/+vK4/wDRbV1Fcv44/wCRL1f/AK8rj/0W1Nbgfguv/Iu/svf9lFvf/SDUq/oQr+e9f+Rd/Ze/7KLe/wDpBqVf0IVUxLYKKKKgYU1vlQ49KdSHpQB4t8afG+rfD/4V654v0TT01S7021e4SzkcRiUKRuXc3A+XOM9TX5z/ALHn/BRP4Uftc/Ee38K/A7w5DCtlaM2v3E4jhks7tSA1tGoyZcNkFunGc19zftY6HpWv/s/+LdO1mwu9SglsGDWtgENzMQykLEJHRdxIAyWH1r+dr/gkN+zj4j8J/tM3XxJ8eeEfEPg1J45Y9M0y9s7QRJHu4lubmO4eQzuoztCsBk/NxWkUrMlvVH9WNo29QDyCOtXPKQfdFQWsaxIEHardZlHwh+3T/wAE8f2Y/wDgoV8Mn+Gn7ROhRX4iBNlfooW7tGPeGUYdRzyAwBr+RX4zf8GbviNddaf4CfFSI6a7kiPVoCjopPADIJSxHTJPNf3rFB2oEagYqlJoTVz+Mf8AZB/4ND/gn8O/E1l4z/ap8Zz+MGs3WX+y7SPybV2U5Ad9yll9QVwa/q71LwZofwY+AGqeE/gxpkGkwaHo1ymmWlnGsaRtFA3lhFUAZ3AduTXvjRKwxTWhRgVIyCOR60ObYJH8cH/BDv8AZl/YW/aV+DHxC+Nf7YFhpPi74q6t4i1eDxGPEyxTXNmiXcyokYucmNRGoIK4wBX2h/wQy03wb8Of2hf2hvgd+znqEuo/CDw/rcLaH8xe2t7mZd91BbsSRsSVnGF44ru/+Cjf/BGL9jDx+dW/aL02y1Lwr4k1O7tU1KTQb2awjvhPcxpJ9ojgZFcsGOSwJJr9fv2Uv2R/gV+xn8J7X4Pfs+6JFoeiwEyMiAGSaViS0kr/AHndiSSWyeauT0F1PpsHIzS1A7rbpuPSuQHxA8Jvq40CLUbVr7JBtxMhlGO5jDbv0zWVijtqK5nU/Fmi6HZNqGt3MNnAucyTyLGvHqzED9c1LpniXTNaso9S0iaO5glGVliYOhHqGUkEUAdDRXLp4y8LyaodCi1K0a/Az9lEyGb/AL953fpUuoeKNH0W0a/124isoFODJO6xoPqzEDntQBvSHgjP4V/H7+yB8IP2bv2sv+Crn7Qev/8ABQWGy13xj4Z1MWPhnR/EOx7aLSQAqTQRz5jJKhOg6E1/XPYeItL1q1jvdGmju7ab7ssLq6EDuGUkGvxx/wCCqH/BMP8AZT/ae8L3H7QPi/TrnSvG2k/ZIIdb0e4eyvGiluIYGR5YWRnGxyBluK0hLoJn5i/A3wF8If2Zv+C/1n8K/wBg1orXwf4i8NzXPjLStJIOnWtwDG0TbI/3SMzbegyMkV/Qn+2h+wP+zX+3t8LZ/hZ+0NoEOqWxBNtdbQLm0c/xwy/fQ+u0jPPrXFfsL/8ABNj9lj9gnQbw/ATRnj1TW1VtR1W+la5vrknDESTybpCMgHaWI4HpX6D7AKJT7Akfwa/HD/gzg1I66837PPxRRNPlkZlg1eAho1JOFDp5pbHTJ617x+yV/wAGgXwj8F+IrPxX+1X44m8ULZuJTplhGYreUqejyZRip7jaQa/tQ8lPxo8pcYpc7BRR5z8J/hZ8Pvgr4F034YfC7SrfRdC0iFYLW0tY1jjRFGOigDJ6k9Sea9IKKORQIwpyKcelS2MoSlWzE4ypHOenNYNj4U8K2dx9usdPto5jn94kahueTyBVfxzb31x4I1m20if7PdvZXCwyltojkaNtrFuwVsHPavxh/Zq139rbwv8ADrRtZ8efHLRLzR4tVmsrhmsBPvcXDJ9nF1JGHLAjZu9RwaajcR+5cagsRipxGoOQKq2smVCEgnGSR3q5UjCiiigAr57/AGsf+TZ/Hf8A2BL3/wBEtX0JXz3+1j/ybP47/wCwJe/+iWqoboT2OW/Yr/5NE+Gf/YsaV/6SRV9O18xfsV/8mifDP/sWNK/9JIq+naT3GFBoopARbuo9a/NrxR/wUq8I6b8R/EXw28F/D3xZ4tm8LXCWl9daVb2r26zMu/aDLcxscDr8vWv0owchepr8t/8Agno+z4tfHwf9TZH/AOiDVx7sl9DTj/4KP3q8f8KT8f8A/gLY/wDybUv/AA8hvv8Aoifj/wD8BbH/AOTa/SxJe6nP404Skijmj2Cz7n5ln/gpFqIyf+FKePgPe1sf/kyuAvP+CvHw8sJ3tbz4deKYZI2KOjvpSsrA4IYG/wAgg9RX6yaqW/sq6ZT0hf8A9BNf5/f/AASh/wCCff7Nf7e/7bP7RWuftSeJr64bw34v1aGx0RNQkti6PeSZm4dcqmcYGf0pxt2Btn9W2hf8FWvDHie5e28M/C3xhqUqLvZLVdMmZV6ZIS+JArrh/wAFIL0c/wDCk/H/AD/062P/AMm1+E3/AASY/Zs+GX7IH/Bcn4wfAz4IeKLjX/C1v4RiuYY5bl7j7LJNPayNCWZmzsZiBz0Hav7C2Ygck03ZboFdn5nf8PIb7/oifj//AMBbH/5NqA/8FIdQ5I+Cfj/r/wA+tj/8m1+molPrTGk3fKTjPvS5o9gs+58Sfs9ftw+E/j58Ub/4PXHhXXvCOv2NgNTFtrcMEZltvMSMuhhmlBwzgc4r7ir8zYyW/wCCsByeB8PpMf8AgfBX6ZVMkNMKQqrfeGaWoy7A4AqR2HlVK7COPT6U0xoeSOfWvke2/bk/Zt1Dwx4o8V6f4ihltvBmpppGsKAd9rdSTrbqrrjOC7DkcYNeX6V/wUy/Zo1f4mxfDiC5vBDPdnT49XMBGntdglTCJc7t24Ffu4zxmqcGK6OW+GAH/D034kY/6FOy/wDQrWvt3XvgT8FfFGqy674k8J6Tf3s+PMnuLOGSRsdMsyknGPWviH4Xkf8AD074k+n/AAidl/6Fa1wv/BRj/gr18DP+Cf2s6Z8NL3S9R8Z+PtbTzLHw9o0QluWTrvkyyhVx7+lU4ttIEfoxoXwL+DHhTVYte8MeFNK0++gJMc9taRRSIWBB2sqgjIJB+tfA37Ryj/h5d8D/APsH6h/6KuK8b/4J3f8ABbT4N/ty/Ey++AXivw3qvw4+INnGZ00XW4xE9xEMHMRDtuO05I44zXsP7R2W/wCCl/wP/wCvDUf/AEVcUkmnqDP1QTpT6YnSn1AwpR1FJSjqKAPjr9niNG/aG+MYYZxqem/+m+Gvqfx2APBer/8AXlcf+i2r5b/Z3/5OG+Mf/YT03/03w19S+O/+RL1f/ryuP/RbVc9xI/n6/wCDbf8A5Np+J3/ZRPEP/pxua/oxr+c7/g23/wCTafid/wBlE8Q/+nG5r+jGsobGtX4goooqjMKKKKAP/9X9d/E3/BUX/gqP+yP8RvAo/bw+Fvh7T/B3jXWodBW80a/kmnhuZ1d0bY8EQIwhz81f05QocBlHXvX82f8AwccNjwf8Acn/AJqVpn/om4r+kS3v7IRJmaPOB/EP8aiO9jSeydjXrlvHBH/CGauP+nK4/wDRbVvfb7D/AJ7R/wDfQ/xrlvHF/Znwbq6rMnNlcfxD/nm1aLcizPwjU/8AFO/svf8AZRb3/wBINSr+g8MDxX89Ing/4R39l/51wPiJe5+Ycf6BqXvX9A41Ky7zx/8AfQ/xqp7kpaGhRVT7fYf89o/++h/jR9vsP+e0f/fQ/wAagqzLdIelVft9h/z2j/76H+NIb+wwf30f/fQ/xoCzPEf2hvh9pfxR+E2s+B/EOt3fhuyvY083UrGdrW4gVJFk3JMjIyZ24JDDrX5XeCtB+Avwm/a6+G/hnwL8SfFnjLUNXFwiwXGuXOo2ShI3JeeOWdlB44O09a/ZjxHo/hPxjolz4c8VQ21/YXiGOa3nCyRSLnOGRsgjjvXjXgH9l79lz4W+II/Fnw58FeH9E1SJSqXVlZ28Myg9QHRQwB+tXF2JaPpCHAXnAxUwdSeDWUb2y28TR5/3hXyF8ef+CgX7IH7MPjnTPh18fPHWn+GNV1eFri0iu9/72NCFJBRGA5PciouUkz7Uor5r8B/tg/svfFCFZ/AXj7RNSRxkbLuNSc+zlTXvWmeIdA1dA2k31vdD1hlRx/46TRcLG1RTS2GxShgeKBHyZ+2t/wAkJu/+v2w/9LIa+rYnRIV3HHFfKX7a3/JCbv8A6/bD/wBLIa+o2UmFSw4wKt/CLqZ3ii31G+8PXlvokgjvHglWBzxtkKkIc+zYr+MvwL8I/wBoT/hovSfAdn4C8Y2vxus/Gt5qGp+Mprgf2PJoz3EzJtcTlwjQMiKoi6kZA7ftB+01/wAFBP2kPC/x18afDD9nDwzomoab8MbCDUvENxrd61pLLHNCk4is0WOQOwR+rFBkYzzX034x/b48M+F/2BYP24rXSZpILzSbK9h09+G8++aKNI2bPCrJKMt/dBNVGLA+N/8Agsh4I+IeoWvw78ZXPh7WvGXwz0TU5JPFeheH5Nl5cRPDMsT7C8SuqytGTl898V0v/BIfwZ8ZNE/Z78cXWraXqnhbw9rWp3Nx4N0rXZPMvLK0fzdnmYeQKC5VlAY4GOBXUfsnft5/H7xX+0TYfs4/tR+HdG03UvE2hN4j0a40C7a8iFtvjUw3BeOMo48wcgMDjrzWN+1P+35+0V4U/aA8WfB79m/wzoeoW3w40yHV/EFzrl61o8sU0KTeXaKscgdtj4yxQZGM0tbWF5n4peD/AIUftIj9oPSvAdn4G8YW3x2s/G11qGo+N5Ln/iTSaG1zM6AP5xcxtbsiCPysAkccZH7A/wDBZTwn8Stb0r4d+LxoGseMfhxoervN4u0Lw/J5d7c2zW86xsFLxhlWZoyQW7dK+tdd/b18O6d+wBH+23p2kytHcaXaXaae+ARcXTxRCItnGxJJR8/90Zrw79kn9uz4++MP2hdO/Z//AGmPDuiaZe+KNDPiHR7nw/dteRiDfGPJud8cRRyJNxIDDIxnmhu+ozM/4I0+EPifoXwr8X6xruh6t4X8FavrLXPhLRdck33lnYnfvDKHkWMOxDKFY4GOnSv0J/a8gEf7OeuKf+eth/6XW9fTeFJ3N1r5r/bC/wCTd9d/662H/pfb1End3GfRWl5/s239PLX+VaFUNK/5Blv/ANc1/kKv0gCiiigApD0paKAOR8U2Nlqfh7UNM1dS1lcW0sc4XqY3QhwMc525981/IZ8OtW0n4p/tDf8ADIfwlvdUf4caNq01+bHV5ltNzW1+PMEf7xmbFzhkJALIM45r+xZkJbHUetfPOrfsp/s16540PxE1bwJoVxr3mCb+0XsIGufMXo3mlN+R9a0hJITR79psJhgRHHKqF/Ievf61p1VhGCAOABVqsxhRRRQAV89/tY/8mz+O/wDsCXv/AKJavoSvnv8Aax/5Nn8d/wDYEvf/AES1VDdCexy37Ff/ACaJ8M/+xY0r/wBJIq+na+Yv2K/+TRPhn/2LGlf+kkVfTtJ7jCiiikAg++K/in+Kv7U37Vmq/wDBQ3xh/wAE2P2Qdai8I638Q/EbX2q+IJRmS1s4reRiLfgnedq9CPrX9rIHzg1/KXrP/BMdv20P2gfij8ePhL4rufAXxU8A+LVbRdat8lWV4HDQzqCMxsGORg9uK0g7ETT0OT8Za7+3Z/wRq/am+FWm/EP4tX3xg+HHxS1WPQr6DWcm7tbqSN3V4N7PhA0fZhwelf1sptPIPXkfSv50vhL/AMEh/wBq74xftIeGP2if+CmnxSt/Hv8AwgUn2jQdG0uIw2YuApRZpl2xguAzH7p571/RYijdxx/n/IpTlcpEV1btc20tuTjzVZCf94Yr+WHxD/wa0fCm5+NXib46eCPjZ4s8L6x4n1G81CdtLTyGQ3kzzPGHS4UlQXx9K/qroqU7A1c/Cv8A4Jo/8EM/hn/wTX+O/iH9oDwz4/1nxnrHiWwaxuzqsY3HdKkpkMnmyMzZTHPY1+6LgnpT6Q9KG7jPA/2nPjBF+z9+z74w+Nc0JuP+EZ0u4vliH8TRoSo+m7Ga/lw/Z9+AX/BVD/goj+zlc/8ABQG//aDv/BF/q8dzqfh3w5peRp8dtA7GGO5Csi5ZFG75G5PNf1mfEvwB4c+K/gDWfhn4xgFzpeu2ktlcxnvHKpU/jzkV/NXo/wDwRx/4KU/ADwxqv7Of7IXx/i0j4TapLP5dpqMDSX1hb3LlpIbZ9r7QAxVcOvFXBqxLRl/8EWP23viR+3B+1ne+IPjNDEvi/wAGeFb3w5q08GBFcz2WqRw+cuAPvCPJ46mv6qK/ns/4J6/sMfDr/gn1+21a/Av4f3EuoyP4DnvtT1G4/wBde3s+owvLM5JJJLu2MnpX9CdVVa0sKGwVE3mBgU5qWisSz+W/4l/8Evv2o10Pxl49+EUEdjrvjDxk0mtadJJ+51DRhqYuYpsAFRLGEibJGdqkZ7V6P4a/Zd/azt/Alh+xvdeBZEsbbxi+vv4oMqGxFq2oNqGF583zRkRf6v15xX9IuNhGO9O246GtHVbVhKCPzL+Fox/wVL+I69ceErL/ANCta/EH/golbfFv/gn9/wAFh7H/AIKU6/4D1Dx/8Ota0eLS5pNNiFzcaZLHEiFljYjGTGcYPfmv3A+GAC/8FTfiSf8AqU7L/wBCta/Se5gguo2t7iNZEfhlYZB+oPFDlqB/GT8C/EPxH/4K0/8ABZvwJ+2t8Ifh/qvgjwD8N7GaO91XVrcWlxfNJE0aoUUsSwLgdcYHWv3v/aOUj/gph8ED2NhqP/oq4r9RbCystPi+z2EKQx9dsahR+Qr8v/2jv+Ul/wAEP+wfqP8A6KuKExWsfqYnSn0xOlPrMoKUdRSUo6igD49/Z3/5OG+Mf/YT03/03w19S+O/+RL1f/ryuP8A0W1fLX7O/wDycN8Y/wDsJ6b/AOm+GvqXx3/yJer/APXlcf8Aotque4kfz9f8G2//ACbT8Tv+yieIf/Tjc1/RjX853/Btv/ybT8Tv+yieIf8A043Nf0Y1lDY1q/EFFFQyusKmRm2gcknpVGZNSZFZWnazpGqoz6TdQ3So21jFIrgEdQdpOD7GtTap5oA//9bw/wD4LS/tY/tG+Mvh/wCNvgb481aTWrf4XfEW1OheIIYxFN++trpxEWT7zxngEMSNvavxOt/+CgX/AAUANupl+LPjhWwMj7Zf8f8Aj3av7Wv+C9PwC+Efwd+FvwS8L+BNGt7W11n4o2FxqGUVnu5ZYrku87EZkJ3H72etf0UW/wCyL+y00asfh54dyRk/8S23/wDiKy5Hc6vaKy0P8on/AIeA/t+/9Fa8cf8AgZf/APxVQXH7ff7fE8EkFx8WfG7RyKVYG7v8FSMEH5umK/1iv+GQ/wBlj/onfh3/AMF1v/8AG65rxn+yP+y5D4Q1WeL4eeHVdLOdlI063yCI2wR8lVyNi9sj/JY/4az/AGqxDpMI+Ifikpo1y11pw+0XeILhlZWkh+bhyrsCVwcE16L/AMPAf2/Sf+SteOP/AAMv/wD4qv7pV+AHwL/4R/8AZqf/AIQ3Rc6h8QLyG6P2KHM0YsdRIR/l+ZQVBweMgV+73/DH/wCyxnJ+Hfh0/wDcNt//AIik6bEq67H+UB/w8B/b9/6K144/8DL/AP8AiqP+HgP7fv8A0Vrxx/4GX/8A8VX+sH/wyH+yx/0Tvw7/AOC63/8AjdH/AAyH+yx/0Tvw7/4Lrf8A+N07Mfton+T5/wAPAf2/f+iteOP/AAMv/wD4qj/h4D+37/0Vrxx/4GX/AP8AFV/rB/8ADIf7LH/RO/Dv/gut/wD43R/wyH+yx/0Tvw7/AOC63/8AjdFmHton+T3/AMN//t+f9FZ8cf8AgXf/APxVH/DwD9vz/orPjj/wMv8A/wCKr/WE/wCGQ/2WP+id+Hf/AAXW/wD8bo/4ZD/ZY/6J34d/8F1v/wDG6LMPbRP8nl/+CgP7fg/5q144/wDAy/8A/iq+e/iz8XPit8etfs9Z+PXiXVvFN9ZxtFbvrTzTOkZIJVTOSQMjnHev9gh/2Qf2WWGB8PPDo/7h1v8A/EV+YH7a/wDwQD/Yl/bc+Jmg/EPxhbS+HItDtXthY6Ggsop97Bt8hhZMsMY5B60nFh7VH+XpZrp2hzC50e5bTpV5D20hiYfQqQa+l/hp+2X+2J8NJ40+EvxP8X2rJgJFa3t7KnsNitiv9HD4Yf8ABud/wSr+GXlTR+ARrM0ePn1Sd7oNj1WXcK/RX4dfsD/sX/CeCOH4f/DDw1ppi+7JDptssnH+0IwaOVsXtUf58H7PX/BWr/gvjZTw2/wzOt+MYyQAuoaUJd3sXn/nX9BP7MH/AAUC/wCDifxq1vL49/Z3068tHI33F3cx2PHrthjev6utM0PStFtlstIt47WFeiRKEUfgOK1doxtpqD7kSqLsflZ8RfH/AO0r45/ZuvLz9oXwfYeFLv7Vp5ENldyXI3fbIeCXjSv1JTmJVHHFfKn7aigfAm7/AOv2w/8ASyGvq6NFMKk+grb7Jj1PxU/4KI/sgfslfEv46+CfF3xX8NeI7zW/F14miPP4dvGs4blI42mWPUVSaLzogsHRg/QDGK/UHXvgB8JfE3wVf9njVdGgfwg+nppg0/YBGtvEqrGoGMAptUqR0IBFee/tM/Bbx98Vtd8Ba78PNQttPuPCWurqc7XK7hJAbaaBkQbW+Y+bxnFfViqMgUOWwWPz4/ZC/wCCaX7Nf7GHibUPGnwxi1HUNYv4Psa3usXk1/Nb2ispW2gedmaOJdq4RSB8o4rM/ar/AOCXX7L37XnxHtvit8TIdStNXjiS3un0u+mslvoE27YbtYWUTx/Ko2vkYAFfo/sWkMYJzU8z3Cx4N4h+Anwf1H4Fyfs+6holsfB509NN/s4IoiW2hVVQAYAGwKCD2Iz1FfBX7A/7Hv7HH7PnxL8U6x+z4uqa1q2nhNKn1PVrya/EEL7ZfslnLOzlY0KDKLhRtx2r7c/ao8G/GL4gfCe88I/BS+ttO1S9ZElkuXeIGDcDIiyRo7KWAxkDoTWd+y38M/Fnwu8E/wDCJeJtH0vREtyBDFpc8twkgPLySvLFExkZuScHqeaLjsfU20Cvmf8AbD/5N313/rrp/wD6XW9fTNfM37Yf/Ju+u/8AXXT/AP0ut6QH0VpX/IMt/wDrmv8AIVfqhpX/ACDLf/rmv8hV+gAooooAKKKKACk2ilooAAMcUUUUAFFFFABXz3+1j/ybP47/AOwJe/8Aolq+hK+e/wBrH/k2fx3/ANgS9/8ARLVUN0J7HLfsV/8AJonwz/7FjSv/AEkir6dr5i/Yr/5NE+Gf/YsaV/6SRV9O0nuMKKKKQCjqK/Ln/gnn/wAla+Pn/Y2R/wDog1+ow6ivy5/4J5/8lb+Pn/Y2Rf8Aog1S2Yn0P1E2gUbRS0VIwooooAKKKKAEwDzRtFLRQB+Z6f8AKWFv+yeyf+l9vX6YV+Z6/wDKWFv+yeyf+l8FfphVy2QkFQuWzwKmqAjLfN0qCrHyBZft2fs16l4X8V+K9P8AEEclv4K1RNI1lQD5ltdSTrbqrLjOC7jkcYNed+Hv+CkfwB8VfFKH4a6HHqdxBNdtp66wlsW043Kbg0XmA7wQylc7MZHWvx9+Jv8AwS0/ae/sXxh49+EqQ6fr/i7xk0ms2MkhEOo6N/aYuYpCACBNGEjYHGdqkZ5xX2x+yD4X/a0/ZvaL9mq8+GianpR1+/v38Ry3CixS2vLiW6DKvMhlXeFA8vH+1W3LG1yLs+gPhgN3/BUz4kZ/6FOy/wDQrWvN/wDgo5/wV8+C/wCwF4g0z4Vro2o+N/iDriCSx8P6PGJZynXfJll2rjkfhXo/wvbH/BU/4ke3hOy/9Cta/Er/AIKIaf8AGn9gH/gsJZf8FMLvwFf/ABC+Hus6NFpVydMjE9zpskcKRl0jYrjcU7Ho1Cjdhc/Sr/gnb/wWx+FP7bfxSv8A9nnx54X1T4afES0QzR6NrMaxtcRDnMTBm3HackdMA17d+0cD/wAPLvgfntYaj/6KuK/BT4D6z8Wv+Ctn/BZPwL+238OPh5qvgPwD8NbGaO61LV4RbXF88kTRBNoLEkM4HJxtH4V+9n7Ryg/8FMPgeR/z4aj/AOip6GraCT0P1OTpT6anAxTqxLClHUUlKOooA+Pf2d/+ThvjH/2E9N/9N8NfUvjv/kS9X/68rj/0W1fLX7O//Jw3xj/7Cem/+m+GvqPx22fBmrj/AKcrj/0W1XPcSP5+/wDg22GP2avicf8AqoniH/043Vf0Yk4BNf5xH7E3/Bd/xP8A8E0Lf4i/ArSPAdv4mjuPGmuXv2qW6aEjzL+dtu0Kem71r7iH/B3n46ZTn4Q2f/gfJ/8AEVlDY3qRvI/t8OowPO8Ebq0icsgIJGe5HUV578V/C0Pj/wAE33hG91C60y3v4TFNPaSNDKqdWCyIQyHAJJB6ZFfwNeCv+Dkf4rXH7een/tCapoZ0rwTrEEOma1occ7TrtyqC5i3AYdCoyBgkZr+6fxfpGk/tcfs5mDwP4gvdD0/xjpcbwahaBkuYoLlFcFRlSrFTg8jqaoztY/H3/glR+z74o+DH7Z/xqvvh14k1nUPg9MILbR7fWb2a8aTUgsLXc0LTO52eYJhkdOlf0ANcqpKmbGOMYH+NfmP+xB/wS90n9jDxdP4ph+JfinxpEbRrW2sdau5pra1MkgkeSKN5pFV2OeQBwTX6btpFqxLELk+qg1MVoOb1P//X/Q741/so/wDBbH/god8QPhv4U/ar0Hwj4U8KeEPEdtr811YXMskxa2V1CqPsydQ5HJxX9cEEWyMBe39KslQetAGBikkW53Vha5fxx/yJer/9eVx/6Lauorl/HH/Il6v/ANeVx/6LaqW5B+C6/wDIu/svf9lFvf8A0g1Kv6EK/nvX/kXf2Xv+yi3v/pBqVf0IVUxLYKKKKgYUUUUAFFFFABRRRQAUUUUAFFFIehoA+Rv227iCD4CX087hES8sCzNwAPtkPJPavoaD4g+A/JX/AIndh0H/AC8xf/FVY8VeEPDXjvQrjwx4wsIdS0+6AWW3uEWSNwCGG5WBBwQD0rxhP2P/ANmVUC/8IRo/H/TpD/8AE07gewt4/wDAZP8AyG7D/wACYv8A4qkXx/4Dzk63Yf8AgTF/8VXkP/DIP7Mv/Qk6P/4CQ/8AxNH/AAyD+zL/ANCTo/8A4CQ//E09APYv+Fg+A/8AoN2H/gTF/wDFUf8ACwfAf/QbsP8AwJi/+Krx3/hkH9mX/oSdH/8AASH/AOJo/wCGQf2Zf+hJ0f8A8BIf/iaNAPXpPH/gNhj+2rD/AMCYv/iqRfH/AIE3Z/tuw/8AAmL/AOKryL/hkH9mX/oSdH/8BIf/AImj/hkH9mX/AKEnR/8AwEh/+Jo0A9i/4WD4D/6Ddh/4Exf/ABVfNn7XPjjwXffADWrOy1ezmmkm08LHHPGzMft1vwAGJNdj/wAMg/sy/wDQk6P/AOAkP/xNJD+yR+zZa30V3b+CdHWSB1kRvskOVdTlWHy8EHpRoB9B6X/yDbcf9M1/kKv1VhXYdq9BgCrVSAUUUUAFFFFABRRRQAUUUUAFFFFABXz3+1j/AMmz+O/+wJe/+iWr6Er57/ax/wCTZ/Hf/YEvf/RLVUN0J7HLfsV/8mifDP8A7FjSv/SSKvp2vmL9iv8A5NE+Gf8A2LGlf+kkVfTtJ7jCiiikAo6ivy5/4J5/8lb+Pn/Y2Rf+iDX6jDqK/Ln/AIJ5/wDJW/j5/wBjZF/6INUtmJ9D9RaKKKkYUUUUAFFFFABRRRQB+Z6/8pYW/wCyeyf+l8FfphX5nr/ylhb/ALJ7J/6XwV+mFXLZCQUxx3FPoqBlSWIyDFOWNiRnovT/AD2qzRQB+VXg7xZ4W8Kf8FTfiLL4o1K205JfCdkEa5lSIN81r03kZ/Cv0Auvin8ILpHin8TaRIjjBVrqAg89xux+NfjJ+01+y8f20/8AgoN4h+HF3eabo0Phrw7b3a3Muk2t9cTGQwjazzAMFG/gZ7VWX/gh5pxGf+Ez03/wm7D/ABrdKL3ZNz9pLP4ofBuxj8mz8R6PEn91LqEDP4N+tfnF8b/GPhPxT/wUv+CZ8Mana6iIrDUN5tpUl2/up+uwnH4188H/AIId6aBn/hM9N/8ACbsP8aw/g3+zEn7C/wC3t4B8Hw3mla1B4t0+78y6GkWljPbeUsjDy5YgWAOzB5Gc0OMejFd9T+hIELnNKGU9DX4peJfjf+1poPxc/aK0Pwx4qs9Ti8DaPb32gWt1axpFC0sEF0+90Dl9qO4UkHtXqPxB+Nnj3Wv2JfBPx11f4gDwJql/plpd3clpYxXkl9cTQA+RBBIUGXkYEEYIHXHNRyFNn6uK6scKc08dRXwd/wAE+p/2ptT+DB8Q/tVXaXOp6jcST6eDCkE62LMTB56J8okZCrEZO3OM8V94jqKiSs7DPj39nf8A5OG+Mf8A2E9N/wDTfDX1J47z/wAIXq//AF5XH/otq+W/2d/+ThvjH/2E9N/9N8NfUvjv/kS9X/68rj/0W1VPcSP4rv8AgkR/wR6/Yy/b0+HPxJ+L37QOl3l7rMPjvXrVXt7qWFfLTULgAbUYDOAOa/XD/iGa/wCCXgX/AJF/U/8AwYT/APxVc3/wbb/8m0/E7/soniH/ANONzX9GNZQ2NqsveP5KfCP/AAbd/AvRP2+7Xxtpemy23wr8MW8N1DY3EzztfaiAhG4uT+7TJyDwdvSv6b/iX8Sfhn+zf8KLvx947uYdE8OeH7eNZGA2xwx5WKNFCjgZKqB0HsK9iZQW4r5i/bA+FX/C6/2ffEfwsfRLTxFDrUKW81heMUjliaRd/wAwVirBQSpxwwByOtUZ3Od0X9t/4C6j8I9U+Nl/qD6doGkG2Wee4Q4JvAn2fZs3hvM8xMEdM845x5M3/BS/4J7j5eka1IueGWCPBHqP3vQ1+anwd/4J6/tlfA/9hf4lfADwLqllqk2p6tby+ENO8TSyXkenWCSxmS3kldJmOwBhAQp2/J93HHoOgf8ABOX9pE6FZHW7m3W9MEf2gR6pdhBLtG8KBGABuzgelZ87XQ1jTT6n/9D+/iiiigArl/HH/Il6v/15XH/otq6iuX8cf8iXq/8A15XH/otqa3A/Bdf+Rd/Ze/7KLe/+kGpV/QhX896/8i7+y9/2UW9/9INSr+hCqmJbBRRRUDCiiigAooooAKKKKACiiigAooooAKKKKACiiigAooooAKKKKACkwM5paKAEAA6UtFFABRRRQAUUUUAFFFFABRRRQAUUUUAFfPf7WP8AybP47/7Al7/6JavoSvnv9rH/AJNn8d/9gS9/9EtVQ3Qnsct+xX/yaJ8M/wDsWNK/9JIq+na+Yv2K/wDk0T4Z/wDYsaV/6SRV9O0nuMKKKKQCjqK/Lj/gnmMfFn4+47eLIv8A0Qa/UYEAjNfyH+O/+CkXxl/Zp/al+Iv7If7IfheLxV8W/iN4rD2SXTBLWxt47dy1xMcMSAF6bT1q4q6E+h/Xbyxw3FOBBr+YjwX/AMFHv+ClP7FP7T/gb4Kf8FP9G0LUvDPxLuRYaZr3h/5UtL1kaRYZVMUJOdhXvX9Oat+IqWrDuS0UUUgCiig0ARs+OBSEH7x7d681+MfxQ8PfBT4W+IPiz4tbZp3h6xmvrjHUpCpbA9yeK/mB8Dft8/8ABcv9sH4c6t+2B+yv4U8M6F8NbV7ifSdK1Q77/U7O2dlMiN5D7TIqlhlxjNUoNibsfs5Gc/8ABWFv+yeyf+l9vX6Y1/N3/wAEv/289K/4KFftjw/GH+zW0XXdN8EXOk65pzHP2a/ttSiilQHuCyMR7V/SJVVFawosKoz+ZI2yNtp/T6f1q9VOeJZuGJGPTisyj8w7f/gpPaaz8Zb/AOHPg3wTq2r6No+pf2Vf6tC1sPKuASpPkvOsjIH4yFPHNL4i/wCCjE3gj4n6f4Z8aeBdZ0zwxqeqnSLXXplhEM1zuZAI4xKZSu8EElAAemRzXzv8YP2EP2ifGn7SL+NPBWl+HtBgl1SC+XxPp9zNa6gtvGVeSGS1igEUrOAYyWk6Hd14rWtv2ef26PGf7ZifGD45aF4d8ReFNKuvK0KBr+5H2C2UFRcG3+z+XLcMMn5j8pY4bgZ25Y2Ju76H0J8MPm/4Km/EhB/0Kdl/6Fa1+O37Wf8AwXw/a0+Fv/BQnxD+wV+zj8GYfHuq6U0AtmjumjlkWWBZizAptUDcVyTX7FfC0n/h6f8AEj/sU7L/ANCta/kp/ar+LH7Y37Df/Bd74hftYfB/4Uap420e8htLORYoT5c0RtIgxjkAOCrjtjpStqJH63/ss/8ABcr9srx7/wAFCfCf7CH7UPwUi+HmoeIzOzSyXZldUit5JgyAJtYZQKea/SD9sbwjp/xA/b8+EPgnWJJorbUtJ1KGSSBzHKmYp8MjrgqwPIIr+bn9nb9pH9sT/goP/wAFyPg/+0R8WfhDqngLw/4agvLKEzREqkb2c3zSykZyXOO/Wv6cP2jiv/DzD4Igf8+Go/8Aoq4p7bAvM9I8Kf8ABPr4X+DvhT4u+GFnres3N143hFvqes3N3LNqMkKKqJGLh3MgVY1Cj5sbRiun8NfsI/CLRPDfw38N6xNea1B8L5DLpP22V5Qz+VJCplDMwcokh25zjAxjFfbaxhhz/nvUmz3rNyZdhseOamHUUwLjmnjqKkD49/Z3/wCThvjH/wBhPTf/AE3w19S+O/8AkS9X/wCvK4/9FtXy1+zv/wAnDfGP/sJ6b/6b4a+pfHf/ACJer/8AXlcf+i2q57iR/P1/wbb/APJtPxO/7KJ4h/8ATjc1/RjX853/AAbb/wDJtPxO/wCyieIf/Tjc1/RjWUNjWr8QgAFNMat1p9FUZkXkx+lSAADA6ClooA//0f7+KKKKACuX8cf8iXq//Xlcf+i2rqK5fxx/yJer/wDXlcf+i2prcD8F1/5F39l7/sot7/6QalX9CFfz3r/yLv7L3/ZRb3/0g1Kv6EKqYlsFFFFQMKKKKACiiigAooooAKKKKACiiigAooooAKKKKACiiigAooooAKKKKACiiigAooooAKKKKACiiigAooooAKKKKACvnv8Aax/5Nn8d/wDYEvf/AES1fQlfPf7WP/Js/jv/ALAl7/6JaqhuhPY5b9iv/k0T4Z/9ixpX/pJFX07XzF+xX/yaJ8M/+xY0r/0kir6dpPcYUUUGkAKRuAr+ODxz+wv+0746/bg8e/8ABQT9iK7s2+Ivw78TfZJNJ1AlYNSs5bd1aIOFfa+GGMr261/Y6pAb2FfiF8LvHP7QX7KHxw+LVvJ8IfEXirT/ABTriajY32lC1aFohFtOfOuImyCcdK0g2thM+FoP2Vv+Cnn/AAVA/ab+H3jX9u7wnp/wq+H/AMMNRTWYdNtrj7TcX99GjIjBgigDLknLDgdK/qhVWHBHA4FfmYn7eXxwH/Nvvjb/AL5sP/k2n/8ADefxw/6N88bf982H/wAm0OLYI/TeivzI/wCG8/jh/wBG+eNv++bD/wCTaP8AhvP44f8ARvnjb/vmw/8Ak2l7NhdH6b0h4Ga/Mn/hvP44f9G+eNv++bD/AOTaP+G8/jh/0b542/75sP8A5No9mwuj7L/aE+D2j/H34J+KPg1rztFa+JtOnsHkXOU81SA3HocfhX8wfwm8D/8ABd79hT4OXP7Dfwj8AaH488N2YuLDQfFRuvKNpZTs2zzo2iyzRo2D16da/bA/t5fHA9f2fPG3/fNh/wDJtMb9vH44leP2ffGw5/u2H/yZTs0K6PzB/wCCRn7Buv8A7AP7Yc/gHx9qiav4s8T+ELzX9dniz5X2281OOV0jyB8qmQr0HSv6eAQa/JL9nq9+NHxm/byvvj74v+Hmr+CNCtPCTaQjav5AeW4a6hlwiwTSjG1T1I6V+toOenSioxpWFqIqM5PSpa5zxPrVn4b8P3/iPUCRb6dby3Uu0ZPlwoXbA7nANZjNsnaOTgUisjcZr8VF/wCCzPw60fw9rPxA8b+EdT03w3YxC4trotA8k8Ju0td/lCUuAS+7pnbXR+Ov+CtvgyL4kaT8KPgT4Wv/ABxreurbTWSWvlJE8U9j9tzuaRcMiZQqR1FaOkyVNHrXww5/4KnfEnJ/5lOy/wDQ7Wv0zyBwDwOa/Er9hf4/6F+0p+3v4/8AibotnPp7/wDCOR2N1aXAAkt7uzuIIJ4ztLA7ZEYAg9q5b/gpP/wVw8dfsz/HPSv2Of2SPAM3xN+LGt24uf7PRxFBawkbw8rk8ZXHY4zSs27BFq1z93mZm4zkV+WH7RgI/wCCl3wPB/58NR/9FXFfFX7AX/BZL4y/En9qM/sRft//AA4f4XfEW+ga40hFkE1veqg3lVcY5CAnOO1fW37Wni3wv4K/4KN/BDWfF+oW+mWgsdQUzXMixoD5VxxuYgZpxTTGz9b0BA5p9eJj9pL9n3/oddG/8DIv/iqP+Gkv2ff+h10b/wADIv8A4qs1buVys9spR1FeJf8ADSX7Pv8A0Oujf+BkX/xVA/aS/Z9/6HXRv/AyL/4qjTuFmeUfs8MB+0P8Y8/9BPTf/TfDX1N46IPgvV8f8+Vx/wCi2r89vgJ+0F8DLX49/F29m8YaQkVxqenNGzXcQDgWESkqS3ODxxX0541/aQ+AU3g/VYIvGejlmspwALyInPltx96qlK+wlFn4z/8ABtsQf2afid/2UPxD/wCnG5r+jKv5xv8Ag2uuLe7/AGZPiXd2rCSKX4g6+6OvIZW1C5IYHuCOa/o5rOOxpV+IKKKKozCiiigD/9L+/iiiigArl/HH/Il6v/15XH/otq6iuX8cf8iXq/8A15XH/otqa3A/Bdf+Rd/Ze/7KLe/+kGpV/QhX896/8i7+y9/2UW9/9INSr+hCqmJbBRRRUDCiiigAooooAKKKKACiiigAooooAKKKKACiiigAooooAKKKKACiiigAooooAKKKKACiiigAooooAKKKKACiiigAr57/AGsf+TZ/Hf8A2BL3/wBEtX0JXz3+1j/ybP47/wCwJe/+iWqoboT2OW/Yr/5NE+Gf/YsaV/6SRV9O18xfsV/8mifDP/sWNK/9JIq+naT3GFFFFIAxxigEjgUUUALkjpRlqSigBctRlqSigBctRlqSigBctRlqSigAq4I0wOKp1fHQUAN8tPSqOoafY6nYz6ZfQrNb3EbRyo4yrI4KspB4IIJBFaNJg880AfMV5+xn+ynqjLJf/D7QZWSIQ7msICTGCGCE7OVyAcdOK1fCf7J37NvgTxDbeKvB/gnR9O1G1cyw3FvaQxyRsyGIlWVQV+RivHY4r6GYYXFMMgxTuxWR5X4G+Bfwh+GOt33iXwB4d0/R7/Ui5uri0t44pJjI/mvvZAC25/mOTyeapwfs/fBOz+Lk/wAebbwxpq+MrmFbaXWBbRi9aJQFCGfbvKgKBjOOK9f8xSRmszUPEWh6Qu/VryC1HXM0ip/6ERRqNI8u8U/s6fAvxz8TNJ+M3i3wrpmo+K9CVk0/VZ7aN7u2VgQRFMyl1BBI4I61nfGr9l39nr9on7Cfjj4Q0rxQdNJa1OpWsVyYSwIOzzFbbkE9K7C6+M/wjs22XXinSIz3DX0AP/odQj44/Bf/AKG3Rv8AwOg/+LpXHZnzF/w7E/YB/wCiSeF//BZa/wDxuj/h2L+wD/0STwv/AOCy1/8AjdfTv/C8fgv/ANDbo3/gdB/8XR/wvH4L/wDQ26N/4HQf/F0WHqfMX/DsX9gH/oknhf8A8Flr/wDG6P8Ah2J+wD/0STwv/wCCy1/+N19O/wDC8fgv/wBDbo3/AIHQf/F0f8Lx+C//AENujf8AgdB/8XSsg1Pl8f8ABMD/AIJ+qSy/CPwuCeSf7Mtc9Mf88/Snf8Oxf2AG4/4VJ4X4/wCoZbf/ABuvp7/hePwX/wCht0b/AMDoP/i6P+F4/BfP/I26N/4HQf8AxdMNSr8G/gN8HP2e/DL+Dfgn4b0/wvpTyNM1rptvHbRGRiSWKRqoySSScV65Xlv/AAvH4L/9Dbo3/gdB/wDF0f8AC8fgv/0Nujf+B0H/AMXQKzPUqK8t/wCF4/Bf/obdG/8AA6D/AOLo/wCF4/Bf/obdG/8AA6D/AOLoCzPUqK8t/wCF4/Bf/obdG/8AA6D/AOLo/wCF4/Bf/obdG/8AA6D/AOLoCzP/0/7+KKKKACuX8cf8iXq//Xlcf+i2rqK5fxx/yJer/wDXlcf+i2prcD8F1/5F39l7/sot7/6QalX9CFfz3r/yLv7L3/ZRb3/0g1Kv6EKqYlsFFFFQMKKKKACiiigAooooAKKKKACiiigAooooAKKKKACiiigAooooAKKKKACiiigAooooAKKKKACiiigAooooAKKKKACvnv8Aax/5Nn8d/wDYEvf/AES1fQlfPf7WP/Js/jv/ALAl7/6JaqhuhPY5b9iv/k0T4Z/9ixpX/pJFX07XzF+xX/yaJ8M/+xY0r/0kir6dpPcYUUUUgCiiigAooooAKKKKACiiigAooooAKvjoKoVfHQUALSFlHU0tY+qXVrYQSX95KsMMCl5HY4VVUZJJ7ADmgDSlmjjQu5AVepPAAr8j/wBsv/gsR+y7+ylrg+GPh57v4g/EC4+S28O+HY/tVwZD90StuWNB65fI9K+Df2g/2z/2nf8Agpp8d9V/Yp/4JtXx0PwXo0ptfGfxBwQsIXiW1sGAJMpPyllK455r9P8A9hr/AIJifsyfsH6GP+Fa6SNQ8TXZMmo+ItRAn1K8mbmSSSeQtIAxJ43njipvfYvltufmzpOrf8F4f25I2vbCHQ/2d/CN0AY0uAL7WGibo2PKKIxHPEvFdna/8EEH+ILJqf7T/wC0B8QfG90/MsSandWNvnuFjhuCu32xX9CoABz2qYADgUcoc5+D1j/wbkf8E1I03azpWv6jL3kn1q8ZifUkua0f+Ic//gl5/wBCzrH/AIOLv/4qv3Rop2Qudn4Xf8Q5/wDwS7/6FnWP/Bxd/wDxVH/EOf8A8Eu/+hZ1j/wcXf8A8VX7o0UWQc77n4Xf8Q5//BLv/oWdY/8ABxd//FUf8Q5//BLv/oWdY/8ABxd//FV+6NFFkHO+5+F3/EOf/wAEu/8AoWdY/wDBxd//ABVH/EOf/wAEu/8AoWdY/wDBxd//ABVfujRRZBzvufhd/wAQ5/8AwS7/AOhZ1j/wcXf/AMVR/wAQ5/8AwS7/AOhZ1j/wcXf/AMVX7o0UWQc77n4Xf8Q5/wDwS7/6FnWP/Bxd/wDxVH/EOf8A8Eu/+hZ1j/wcXf8A8VX7o0UWQc77n4Xf8Q5//BLv/oWdY/8ABxd//FUf8Q5//BLv/oWdY/8ABxd//FV+6NFFkHO+5//U/v4ooooAK5fxx/yJer/9eVx/6Lauorl/HH/Il6v/ANeVx/6LamtwPwXX/kXf2Xv+yi3v/pBqVf0IV/Pev/Iu/svf9lFvf/SDUq/oQqpiWwUUUVAwooooAKKKKACiiigAooooAKKKKACiiigAooooAKKKKACiiigAooooAKKKKACiiigAooooAKKKKACiiigAooooAK+e/wBrH/k2fx3/ANgS9/8ARLV9CV89/tY/8mz+O/8AsCXv/olqqG6E9jlv2K/+TRPhn/2LGlf+kkVfTtfMX7Ff/Jonwz/7FjSv/SSKvp2k9xhRRRSAKKKKACiiigAooooAKKKKACiiigAq+OgqhV8fdoATOeRX4B/8Fqf2n/im1x4K/wCCdX7M1w8Xj34zXP2S6uoTh9P0dNz3VxkcqSkZjH+/X7+kHsa/mw/Ybjtv2o/+C1/x/wD2iPEcYuYPh1ZWnhfR93It5DHbtMyf3SxD5x6mky4Lqfs3+xV+yB8Kf2I/gDonwH+E9lHb2mnQqbmdVAku7pvmnuJW6s8khZiSSea+s9i1FCmzip6ZLYUUUUCCiiigAooooAjkYqOK8O+PXx88Afs2/Du8+KnxSnktNC04b7q5RC4hToWYDnH4V7jJ2r87f+CrXl/8O7fi0Ov/ABIbj+lA0tT1L9kv9t74A/tteE5vHf7OuqNruiRMyfbljZImZW2lVLgEkHI6dq9j+M/xq8HfAX4f33xN+ILyQ6PpsZlupo03+VGvLOQOcDvX4B/8GrUip/wSt0FCMA6lf89v+Pqav2A/b41PTL79in4rJYTpK1v4dv0k2ENtJgY4PvUxd1cqUbSseK+Af+Cu37GnxX+H1z8VPhlrF3rvh2z3ia/s7SV4kMedwPyhsjBzgV9G2v7ZfwQ1D9nmP9qXSNRku/BjRSTteRxN8kcRKyMyMA42EENx2Nfx7/8ABv38cvj/AOB/2Sfh/wDC/wAD+FpLjwf4l8ZXlrrOtBgUhhKXL+W0fUhnUL6c1/WT+1B4C8DfDb9hn4meEfh/BFaWEGhaxN5ERG1JLiOWaTgdMsxOKUZXVxyhaVjyXwH/AMFjv2DfiT4Nl+JvhPxa1x4Zt5fJm1QW05topM4w7BCRg98V+iXw8+JvgL4teE7Px18N9Wtta0i+QSQXVq4eN1PQgjp9Dg1/Jf8A8Gz3hDw148/4JF/Erwl4ttorrTb281aKaGdQ6FSkxyQRjjqPTFcj/wAGofxE8cQ+IPjv+z758tx4O8L69dNpQYlorci52CKLPCgqxbAojLYcqdrn9XH7Qf7Snwt/Zu8PWOvfEvUltG1O5W0sbdRunup258uFB95sAk5IGAa8aH7ZmiSjzI/DOuFW5H7kDg/8Dr85f+C537Ev7SP7Tfh/wF8Yv2Ptaig+Inwr1A63p+lzvhbxQrxttTBVmxIfvADAxmvxEP8AwW0/4Lt+HydB139ni5ur6x/0e4mUqokli+R3AVcAMwJwOBRKpbcI07rQ/9X+/iiiigArl/HH/Il6v/15XH/otq6iuX8cf8iXq/8A15XH/otqa3A/Bdf+Rd/Ze/7KLe/+kGpV/QhX896/8i7+y9/2UW9/9INSr+hCqmJbBRRRUDCiiigAooooAKKKKACiiigAooooAKKKKACiiigAooooAKKKKACiiigAooooAKKKKACiiigAooooAKKKKACiiigAr57/AGsf+TZ/Hf8A2BL3/wBEtX0JXz3+1j/ybP47/wCwJe/+iWqoboT2OW/Yr/5NE+Gf/YsaV/6SRV9O18xfsV/8mifDP/sWNK/9JIq+naT3GFFFFIAooooAKKKKACiiigAooooAKKKKACr46CqFXx0FAC1/Np/wQ5UP+1l+187/AHv+E8Iz3x5Yr+kuv5rf+CH1xBB+1d+1758ipnx6cbiB/wAs/ekzSPws/pRUAcClrPj1Cw5/fx/99D/GpP7RsP8AnvH/AN9D/GmZlyiqf9o2H/PeP/vof40f2jYf894/++h/jQBcoqn/AGjYf894/wDvof40f2jYf894/wDvof40AXKKp/2jYf8APeP/AL6H+NH9o2H/AD3j/wC+h/jQBPKGI+WvkD9uP4EePP2lf2aPFHwI8A3ttpk/ie0azku7nJESPjcyqFbJwPavrj+0bD/nvH/30P8AGj+0NP8A+e8f/fQ/xoaBH4L/APBOz/gnT+2n/wAE6P2X/wDhmn4d+LdA1q2glmntb27iZHR5naQ5QQsGwzHqa+j/AA7+xX+0LYfsUeL/AIB+JvFtnrfjTxxJqLajrEyFIkW/kkYLGgU8RRuEUYHAFfqz/aGn/wDPeP8A76H+NIL/AE8dJ4/++h/jSS0sU5Nu5/Pb/wAE7/8Agl1+2D/wTo/Zvvv2evAPirw94gglvJL62u7+AhoZZCWz5fkuDtZiRk19oeGv2R/2j7T9jjxb8E/G3i6017xv41GoC/1aZDHAi3ryBFjQKeIonCgYH3a/UL+0dPP/AC3j/wC+h/jR/aGn/wDPeP8A76H+NFugOT3P5xv2GP8AgkP+1v8AsS/sn+I/2RfBnxG0xdM8UTzvPqy22bqCO5DCYRxlNpYh2AJcdc1+nv8AwTw/4JzfA3/gnB8HZvhb8HxLd3OpXDXurapdc3N9dOSWkkJLEcngZIAxX34b/Tz1nj/76H+NL/aNh/z3j/76H+NJRsNzufAn7Tf7N/x9+I3x38FfHH4GeMIvDsnhSGaK6sbiPzIdRjlDjypeDtUFwwYAkFRxXYlP2zsnfovhNj3Ju7nk+v8Ax619knUNPPWeP/vof40n27Tv+e8f/fY/xqibn//W/v4ooooAK5fxx/yJer/9eVx/6Lauorl/HH/Il6v/ANeVx/6LamtwPwXX/kXf2Xv+yi3v/pBqVf0IV/Pev/Iu/svf9lFvf/SDUq/oQqpiWwUUUVAwooooAKKKKACiiigAooooAKKKKACiiigAooooAKKKKACiiigAooooAKKKKACiiigAooooAKKKKACiiigAooooAK+e/wBrH/k2fx3/ANgS9/8ARLV9CV89/tY/8mz+O/8AsCXv/olqqG6E9jlv2K/+TRPhn/2LGlf+kkVfTtfMX7Ff/Jonwz/7FjSv/SSKvp2k9xhRRRSAKKKKACiiigAooooAKKKKACiiigAq+OgqhV8dBQAtfxI/sR/8E9779tT9sv8Aai1yx+Kviv4dnRvGskBh8O3c1tHcBl3b5RFNFuYZwCc8V/bdX82v/BDiMP8AtW/tfZ/6H0/+i6mSuawdk2dan/BBbxA3P/DTnxP/APBrd/8AyVT/APhwpr//AEc58T//AAa3f/yVX9DCoqdKdT5UT7Rn88v/AA4U1/8A6Oc+J/8A4Nbv/wCSqP8Ahwpr/wD0c58T/wDwa3f/AMlV/Q1RRZB7SR/PL/w4U1//AKOc+J//AINbv/5Ko/4cKa//ANHOfE//AMGt3/8AJVf0NUUWQe0kfzy/8OFNf/6Oc+J//g1u/wD5Ko/4cKa//wBHOfE//wAGt3/8lV/Q1RRZB7SR/PL/AMOFNf8A+jnPif8A+DW7/wDkqj/hwpr/AP0c58T/APwa3f8A8lV/Q1RRZB7SR/PL/wAOFNf/AOjnPif/AODW7/8Akqj/AIcKa/8A9HOfE/8A8Gt3/wDJVf0NUUWQe0kfzy/8OFNf/wCjnPif/wCDW7/+SqP+HCmv/wDRznxP/wDBrd//ACVX9DVFFkHtGfzy/wDDhTX/APo5z4n/APg1u/8A5Ko/4cKa/wD9HOfE/wD8Gt3/APJVf0NUUWQe0kfzy/8ADhTX/wDo5z4n/wDg1u//AJKo/wCHCmv/APRznxP/APBrd/8AyVX9DVFFkHtJH//X/v4ooooAK5fxx/yJer/9eVx/6Lauorl/HH/Il6v/ANeVx/6LamtwPwXX/kXf2Xv+yi3v/pBqVf0IV/Pev/Iu/svf9lFvf/SDUq/oQqpiWwUUUVAwooooAKKKKACiiigAooooAKKKKACiiigAooooAKKKKACiiigAooooAKKKKACiiigAooooAKKKKACiiigAooooAK+e/wBrH/k2fx3/ANgS9/8ARLV9CV89/tY/8mz+O/8AsCXv/olqqG6E9jlv2K/+TRPhn/2LGlf+kkVfTtfMX7Ff/Jonwz/7FjSv/SSKvp2k9xhRRRSAKKKKACiiigAooooAKKKKACiiigAq+OgqhV8dBQAtfzb/APBDdgP2rf2vf+x9P/ouv6SK/m1/4IbqP+Grv2vien/Cen/0XSZpH4Wf0jtKijLHFIZohwW61+A3/BfX/gph8U/+Cd3wD0OX4LWaHxF4uvTZQX1woaG0UI8hfBBBYhNoGO/WvyY/4ISf8Fsf2sf2kP2pIf2Xf2lLhPE1trcM09lqCQrFLayxhpCJAg+5hSq8nqOKZCif2wGWMHGeaRpolOGbBr8dP+Cq/wC1l8cP2VtX+DUPwfvbe1Txt4wt9C1JZ4UlzbSxSSMULA7Wyg5FeS/twftq/tZ/sU/tJWfjzULSLxF8Cla2sPEDwwKb7SJriNSl2Tty8IcqWG7jPQ4pcyKUGfvMJoiMg0okT1r4p/Z9+ON740+FWjeP4rmbxla+JdRuFtL3Too1ijtDJI0ErgsvymMLnGTuPIrif2qfjB8Ufh7+0B8G/AfgvUUs9N8Za1cWGpo0Kys8MVjc3K7GblTviUHHbNMnld7H6GGRB1NODKRkHivlD9pP4w6X8IrHw42tXl3ZDV9VhsEktIkmy8mcLJvZNqnoSM1wniD9un4U+HvHlv8ADeG21C+uJdXXQjNbxKyJevC0+1gzqwURqckDHHGaTdhH3QJEPQ0nmx+tfkl+zX+3NrU/jLUPht8Xo7u+vNT8U6po2j30UESWxa0+0TJbsQ4bcIYSM7cEjrX0D8If2mfEHx5/Z38afFOz0iXw5daJJrdna+dtfMmmSTwiXAJ4LRZwaYH3WJoiMhuKXzY84zX5BfAf9vDUfHPwoh8IeNIrzTPGlx4avdVs765t4ktb57ZHy8Ijdvusu47lUkA123wf/ap1HUPD/wAKo/iFqN0+t+KrS6mZba2j8i6a3imdg5LqUO2MsMKeg9eAfKz9R/Nj556dacHQnANfmx4e/b7+H/xQin0LwjY6npV5qdnqx0u6vIoxDNc6Y00UqLtkYkq8LkbgOFrd/Ya/ae1X47/DjT49adtZ1W3+0pqOoW6otvFLHOyLEwBDB9oHRfxouHKz9CS6etBkQDJNfM3xC/aT8H/DP4o6Z8J/E9rdR3OsWM95aXAVPs8ht1d2hDFgfMKoSBjmuA8f/toeBvhqNKPivS9Qt4dRS1cylI9sQvJUhhD/ALzdktIvQHrSbsI+1xNEejUebH/eH+fxr8v9Y/aQ8U+EviP8arTxfqcv9geEBpb2JtLeNp4Fu7e2ZyASofLyk8t0NfeHgzxFY6/4P0nXYJ3mS9s4J1kkjVXYSRqwZgCQCc5IBODTA//Q/v4ooooAK5fxx/yJer/9eVx/6Lauorl/HH/Il6v/ANeVx/6LamtwPwXX/kXf2Xv+yi3v/pBqVf0IV/Pev/Iu/svf9lFvf/SDUq/oQqpiWwUUUVAwooooAKKKKACiiigAooooAKKKKACiiigAooooAKKKKACiiigAooooAKKKKACiiigAooooAKKKKACiiigAooooAK+e/wBrH/k2fx3/ANgS9/8ARLV9CV89/tY/8mz+O/8AsCXv/olqqG6E9jlv2K/+TRPhn/2LGlf+kkVfTtfMX7Ff/Jonwz/7FjSv/SSKvp2k9xhRRRSAKKKKACiiigAooooAKKKKACiiigAq+OgqhV8dBQAtfzcf8ENv+Trf2vf+x9P/AKLr+kev5t/+CGx/4yu/a9H/AFPp/wDRdJmkfhZ+wX7av7EfwG/bu+Ek3wg+PWmC+sS/m28yHbPbTDgSROMMrYJBwRkEjvXyL/wT2/4Iz/sj/wDBOrxDe+NvhLb3OqeIb1DAdS1FjLLFESDsiDs+zoASCM8+tfrxNsxzxVSGdJMkjGDTITPhn9s/9hPwb+2jqfgS/wDGmtXeljwDrceu2aWqgiS4iVkUOdy/LhzxzXsms/s/aF4pv/FqePrr+3NK8Y2iWd3p1xCvkiNYljOOTnIXd04NfRTH5uKa7Aj/AGutKwXZ8m/BH9k3wv8As6fCXw78F/gzqdxo2g+Hb24uY4Au/wAyK4eSQwEluEVn+XGcAAYpn7QH7LEfx3+IHgj4ix+I7nRL/wAC3st/ZeTEsqvLLBLbneGZQRslbg55xX1sHAGD1oBXPPfgUwv1Pi3xz+yNc/E3QLDSfHvjC+1Cey1mHWBP5SoCYD8sKoH2qnTOOvXFfHWk/s//ALQh/al1r4lx2cumGfV0uo2e1t7jTngjj8gSLI7+akzQ8EiLgkqCRzX7LZCnbioWaJX2vxxSauI/PnQf2A/CuheI9J8SxeI7xm0fxPd+KYo2jGGuL2KeF4yd+dgW4bHpgcV7d8Hf2YtA+EvgHxL8NbLU7m90rxJd6jdskow0H9pySyzqjbicbpWx0r6bXYuWHOaN6xuMc5pgfDHgr9hDwR4W02DT73VrjUW0zS7zSNLkljCmzgvN4cj5jvcByoY4OKj0D9hXw34cb4ftb+IbyQ/D6O6S13Rj9/8AaopoSZPn/hWY468gV93mYeYAB15pjzKTg9OuaCuZn5z+Hf8Agnx4T8KTaDcW/iW9l/4R99YeANGPmbWWuHlJ+fnYbltufQVN8Cf2CdI/Zi/tS7+EPiW8s/7XsriK4thGPJmu5iWS7KbsCVTgbsZIyM81+h++Nsh144/GnxBCzbunrRYOdnxt4s/ZQtfjN8P/AAdovxq1WbUNb8JXseoR6jb/ALmR5UBXB2kcOhKuM4IJB61zPx3/AGFvDPx18az+KdV8R39jBcQWcYs4xviiNjcQ3EbRZceXloQG2gZBOetfehCnkHAqOSRFOEOSaLEnxJ4n/Yq0DxLc+P7+91+7WT4gW9lb3RVB+5+xRwxqyfNyWEI3dOp619OeEPh/ZeEvCel+FLd2nj0y0gtFkckM4hjWMMR2JC5Nd6JVEfIyfSl3xdz/AJ/KgD//0f7+KKKKACuX8cf8iXq//Xlcf+i2rqK5fxx/yJer/wDXlcf+i2prcD8F1/5F39l7/sot7/6QalX9CFfz3r/yLv7L3/ZRb3/0g1Kv6EKqYlsFFFFQMKKKKACiiigAooooAKKKKACiiigAooooAKKKKACiiigAooooAKKKKACiiigAooooAKKKKACiiigAooooAKKKKACvnv8Aax/5Nn8d/wDYEvf/AES1fQlfPf7WP/Js/jv/ALAl7/6JaqhuhPY5b9iv/k0T4Z/9ixpX/pJFX07XzF+xX/yaJ8M/+xY0r/0kir6dpPcYUUUUgCiiigAooooAKKKKACiiigAooooAKvjoKoVfHQUALX82v/BDdQ37V37X2T/zPp/9F1/SVX82v/BDjP8Aw1d+16R/0Prf+i6TLj8LND/g4z/b7/aF/Yk/Z18P2P7PrPpt74uvzZ3GsKuTaRrG8nyN/C7FAM5HB61+N3/Bvl/wVR/bQ+LX7X9t+zd8YNevfGvh/XIJ52uL1mmms5I1L7/MYsVRiu3Gf4q/tG/aR/Zk+Cv7WPwxvPhH8dtDg17RLzBMUygsjA8PGxBKN/tDnFfOX7GX/BMP9jz9hG5v9T/Z68LJpmoaiNs15O5nuTHkEIJXywUYGADjApiurHlf/BST9uDx1+xhrvgfVptNvIvAmsXbwa/r9lareNpg8uQxM8BIPllwgZhnAPSvH/2k/wBrn9qbw5+w7pH7Y/7M2u6P41s9Lvxd6ybSBXW70Q3OxnhVowUnihYNIuFwVYZPf9IfjN8DdY+KPia11ex8Qy6fax2Utld6a8CXNneRykk+bHIwXIzwdpPFeX/C39hf4b/Bz9lPXP2VPh3M+l6T4gXU/PmSNT5b6rLLLOY4shVUGVtijAAxjFS0wVjzvwz+1R8QvjN8EdZ/ai/Z+Ca/4aXw4t5pFgI1WW8vzEsjAOwz+7O+Mqf4hjpzXkP/AAT+/wCChll+1tLc7NeMmr6JpLTa94XvbMWeq2OoRkeasa42zQ5yqN5nOVOBX05+z5+xNp/7Nv7H1l+yT4P8UXrWWmoyWuqiMRXMW6bzs4Vz/Fx97kcVW8HfsP8AhLw38cF/aN1W/W88bJobaFFqkdpHbyNGSrefOEP72QMowWySO9CTG2jnvjR+0T8UNI+O/wAFPB/gtv7L0n4g6jc22o295AjTrHDY3N0AD8207oVBw1e//tC/F/SfhNc+Fodc1G407+39UTT42ggScSOyM2x9zLsU7eSAfpXn/wAV/wBk3X/ij41+HXxEn8Z3Fnrfw7uJrqCYWcUi3M01vLbMZELhVGyZjgZ5qL4h/sm658TLDRR4+8Z3d7daLrSaytwtukYYorIsKxq+EXa2Dt69T1NUKyNDV/23fg3pfjyz+Htsby6uL7VjoUU8MQaIXywtM0Z3MGG1EY52444NfPP7NP7dN74g128+HvxgS4uNWu/EOs6bpd1BAkdtKLCS5dIMhgTJ5EOeVwcda8p8JfAb4/x/tL6r4+h0u402OTW/tkaXFjaS2HlKhgE0UpkMqTND1xGOp5r6O8NfsF6f4c8RaFrUfie6mXRPE2o+I4ojAmHl1JLlJImbdllUXLbc9MDA4FA2keh/Cv8Aab1T46/s1eK/jF4e0ufw/caR/bVvbLdqj5k0ySeISbQzAgtFk18+/Bj9vD/hZHweuPD/AIh+0aX46Twrc61bz3NuiW141vESZIFVmDKsgwQwU8HAr6y+EX7Mll8JfhZ4h+EkGrz6jpOuz6nOvmIFe3GqSyyyopBJbDSnbnHFeX+Ev2FfDmh6NBYa7rc2o3GnaHdaBpk7Qqhtba6DAnaGId1DEAn86RJynwv/AGq5dS0f4Xp8RdUli1jxTo76hLBb20ZhujDA8j5csCjfIWAA6jFbeg/t+fDL4naVqWl+AkvrHUZtJ1S80ue8hQRSy6cZYpFGGYkpJG2QwAIBq7pv7DWm6XL8P528R3TnwBYz2Nv+5X/SFnhkh3v83BVZM9+RXI+E/wDgnjpXhQ6QYfFd5KNHh1e3izAnzjWJJ5ZGPz87DOcA+go1DQ9G/Yt/advPj18NdJm1pjqOrC3ZtRvbZI1tY5g5Xyzggq+OcBce9VPiT8efGeuftaab+yt8MpItPli0R9f1TUJUEjLbiUQLFEjDDMXZW6jHNcX8A/2Dz+yrYa1F8J/FFzBBqtjJE9o1uhha+blbwJuwrjq2Byc8nNdlffsm+J/Enijwn8ZrrxM+nfEDQdPOm3WqW0CtFe2zEsYpoSVVgWw3IOCAetMR5d+1f8Xf2k/2bvgnf+N5dcsXnGvaVZ2lz9lRv9DvLmG3lMke3G8eYxGM8jrXzn4h/a6/aM03X77TrHxjaSwW9xLHG50uUFkRyFJxARyBmv0J+Of7J9z8fvhdB8OvFnie5hZNSstSluo4Ebe9lPHOkaxlgqKWjAOD07V9c2unQRW0cUyrI6qAzbQMkDk4HTNKxWlj/9L+/iiiigArl/HH/Il6v/15XH/otq6iuX8cf8iXq/8A15XH/otqa3A/Bdf+Rd/Ze/7KLe/+kGpV/QhX896/8i7+y9/2UW9/9INSr+hCqmJbBRRRUDCiiigAooooAKKKKACiiigAooooAKKKKACiiigAooooAKKKKACiiigAooooAKKKKACiiigAooooAKKKKACiiigAr57/AGsf+TZ/Hf8A2BL3/wBEtX0JXz3+1j/ybP47/wCwJe/+iWqoboT2OW/Yr/5NE+Gf/YsaV/6SRV9O18xfsV/8mifDP/sWNK/9JIq+naT3GFFFFIAooooAKKKKACiiigAooooAKKKKACr46CqFXx0FAC1/Np/wQ4JH7V/7X2P+h9P/AKLr+kuv5tP+CHJx+1d+19j/AKH0/wDoukzSPws/o8vbmO1i82RgFHUnAwPrWZZaxaX6GWxnjnTdtzGwYfTI7/Wv5s/+Dmn9qP8AaX/Z0/Zg8Oaf8A7q70ax8Ral9l1fVbIsssMIjkcKHT5k3MqjcD3x3r8Uv+Dbn9tH9sTxH+2d/wAKT1bXNV8W+DdXtZZdS/tGeS6WyKKWSVZJC20swVQAejc0yVHS5/oGk4YSAU0yk5XGOM1+G3/Bab9pf4w/sz2vwe1v4Taxd6bH4h8Wx6ZqkNooaS4tDbzSNGgLKA5KDHINb/7RPxR+Kvw2/wCCdnxM+PngbxNqcGqJbLqGkR6iB9q08JNHEyON7bg2SeTxkYqeZbByPQ/asSHG0jI/xpwbaRx3r+cT9gr9tn44/HX9qzwT8MfBviGbWvD/APwgdhqnjaHVU8meDUrq3hkV7ItudlYyAnbhRk+lfDOt/wDBSr9ovwxrfxW8IWfjW8PjfT/iTbeHvBltNCG0+S3eQNNBcuzbFxCJMMwJ3AYFHOP2bP7JyAPeonfc+wjj1r56vfGnxF/4RCO01jTGiuG8PNdXWoW7r5UV+IvnROQSN2SDgdq8H/4J1eP/ABn8Rf2YLTxn8RtUl1bVLjVNViaaY4Oy2vpoYkwSQMIqrx1PNUTY/QDjbtPI6Cm9Ovc1+aHgj9tTwpoPgXUNdlstUmuLjxTeaFBHeNvAuIppVyW3tsiOw7fwGB28U+Kn7YnxL8YSfCv4gfDzS9S0pbnxfq2jXulOVUXyafaXobo5BjMsAZD1IwcCk5Iajc/ZrcCSKmwNo3Cvy+0j9vDxJ438X/Cmx8E+HNlj461HUtO1H7TIFltJdNW5WUKF3Bh5lucc5x2FfRfxg/ao0z4c+Lb7wNoOmyaxqejaNJ4g1CJCF8rT4nCOy5I3OMggdMd88UJktH1dO+xRjnmq3nkN9Wx/+qvyq+IH7QPjb47fGz4e+BvhncXFj4S8V+Hj4g+1W8rQ3IcHKI+0g4zhWUMRXWfsE+Kfij8Y9P1P4u/E/UrqK4tNV1TREsvMLW0sVjey28cpTO1ZNsQyQCTzk0xpH6esit94ZoCqBgCvgW9/bq0fSvjGnwn1XQriJrsXq2cgZGMkllFLK4baxVQyxNt5z0yBzjyXwN/wU5sPE2p2ceveC9T0ux1mz1O40q4k8phcS6V5xnhIWQ7WZYJCh6HjJGaXMFj9VcDGKWvzL+Fv/BRe28da9HoniHwfqGinVdDfXNIaYxEXUcZ2vESJCFkU7icnGFPOeK661/bP8V3dtHdxeFTtlUOPnY8MMjkAj8uKXOgsz//T/v4ooooAK5fxx/yJer/9eVx/6Lauorl/HH/Il6v/ANeVx/6LamtwPwXX/kXf2Xv+yi3v/pBqVf0IV/Pev/Iu/svf9lFvf/SDUq/oQqpiWwUUUVAwooooAKKKKACiiigAooooAKKKKACiiigAooooAKKKKACiiigAooooAKKKKACiiigAooooAKKKKACiiigAooooAK+e/wBrH/k2fx3/ANgS9/8ARLV9CV89/tY/8mz+O/8AsCXv/olqqG6E9jlv2K/+TRPhn/2LGlf+kkVfTtfMX7Ff/Jonwz/7FjSv/SSKvp2k9xhRRRSAKKKKACiiigAooooAKKKKACiiigAq+OgqhV8dBQAtfzaf8EOcf8NXftfdv+K9P/ouv6S6/m1/4IcnH7Vv7Xvb/ivW/wDRdJlx+Fn76fFv4PfDv44+DLr4ffFLR7TXNHvRtmtLyJZY2H0YEZH0rx/9nL9in9mf9k20u7L9n3whpvhn7a+6d7OCOOSQE5wWVQcZ6D2rO/bU/bd+Av7CHwhm+L/x41M2VkHEVvBEA9xcynpHEpIBbGTyQMA818kf8E9v+CzX7I3/AAUS8Q33gX4Uz3ul+IrJDMdO1SNIppYgRh4/LkkVhgg4zkUybM+qf2sf2HvhF+2NJ4Un+K0t6p8Gamur6b9juHg2XaKyq7bGGcByOaxvHH7CPw4+Jvw88YfDP4g6vq+qad44WOPUTLeS7lji2EJD8/7sEoCSuMnnvXqaftV/BVvj8/7L66sD41S0+3tp21t4tjjEu7G3blgOvemfHH9qr4Jfs56x4d0H4u6wuk3Pi28XT9KV0ZvtFywLCJdoIDYUnnsKTimF2eE6T/wTW/Z+8OfELwJ8WfDP9oaf4j+H2lR6JY3tvdyxyXNhFH5UcF4VYG4CKF2+ZnBUelcDP/wSN/ZM1Pwl4+8Fa9YXl7Z/EPV017UWluZGkh1GN1dLi1csWgdSo5jI7jvX1Gn7ZP7PI+OU/wCzReeIoLXxvBai9XS5wySyQ7Q+6MkbX4OcBs+1YfxB/bi/Z3+F3giw+Inj7Wv7L0jUtUOj2880b4e9Eph8rAUnJkUqD0zSaQ9T0DQvgTp2haLY+HV1XUrq3sNHOjKs91JJ5kW3aJJCzEvKE43HnPOa8h+Ev7Dngf4M6Rp3h3wnr2tLpGm3dxfR2Ul5M0bS3MjyyeYC+GG9ywBBAOMdK91t/jh4EvfHkHw0s7lpdYubVbxY1RiFibBG58YBwQdpNelanqlppVlJe6lcJDDAhkkZzgBVG4sfQAc/pVCTPzM+O/7DGoQ/C+TwT8FBLd22q+IZNb1aKe+ngmYzM8h+zyoGYYlYHblRgYr0L4ffsXXOpeFvC0XxZ1K6nvPCmpTanpaxTurW7zwS27K7ggufLmbLHkmverH9qv4OagILizvZZLK5uBbQ3iwuYJJS20KpA7nvgD3r6Ojuolm2bxk9Bnmiw+Znxd4a/YP+EnheHwqmly30cng/V7/WrCUXEgcXGotO04Y7uVY3D9c9eld/8Tf2VvAPxO8bw/ELUJLmx1X+z5NJuZbWRo/tVjKdz28wUjepPrnpX0yt1AULqwZR1IIwPxpj3UGA+9duOuRg0CbufMkH7Jnw0sPiD4d+IuiLPYXHhfSjo1hBBKyQrbHsUBC5HXOM1w+i/sbad4F8CQ+Bfhjr2paTCuvTa5JKtzLvaS5uXuZ0+99x3dsrnGD0r6t8beOvD/w/8H6h458TymLTtMha4nkALbY1GScDrxWB4e+K/hXxU2iNoZknh1/T49TtJgp8toJVDIST0JBBxQCZ8k3P/BPv4T6L4nn+JHhybUpNWt7jUNRs4pbyUwLdX0E0UgKFiNjGZjjGBnjpXk3wJ/Yj17wd+z9JYeO4xeeMbW21yLT0ad3t7ZtSkuCpQsMj5JsZC8Zx0r9LfF3jLQvBXhfUfGOvTeXYaVbyXNyy/MVjjUsxwOeAOlU/CPxC8I+NfAtj8QtFu420nULWO7inchR5UiB1Zs9PlIPNKyC7Phb9nz9hjRtM+B+n+GfjKJbjXxo8mjyyRzO32eGRy5EDnBUk8kjHUjvXsmifsd+CNA0a00Ky13XhDZQxwRj+0LgfLGoUfx+gr6Z1nxb4b0DwxN4w1S9ih02CLz3uCRs8vGdwPQgjpXzhH+2H8O7mNbmxstSngkAaOWODKOh5VlOeQRyPalZBdn//1P7+KKKKACuX8cf8iXq//Xlcf+i2rqK5fxx/yJer/wDXlcf+i2prcD8F1/5F39l7/sot7/6QalX9CFfz3r/yLv7L3/ZRb3/0g1Kv6EKqYlsFFFFQMKKKKACiiigAooooAKKKKACiiigAooooAKKax2jNVpbpIUaSYhUQEsxOAAOpJ9KALWRRla/n8/4KAf8ABxZ+wt+w5r0/w8ju5/Gvii2JSWy0cJIkLj+GWR3QA5/u5r8hfDf/AAeW/DW58RLb+KPhPf22llsGWCdJJguepRnVfyaq5GJyR/b9RX5q/sB/8FWf2Qv+CjXhltX+AevKdVtkDXWkXmIryEnGcplgwBP8LGv0kWUMaTQyaiiikAUUUUAFFFFABRRRQAUUUUAFFFFABRRRQAV89/tY/wDJs/jv/sCXv/olq+hK+e/2sf8Ak2fx3/2BL3/0S1VDdCexy37Ff/Jonwz/AOxY0r/0kir6dr5i/Yr/AOTRPhn/ANixpX/pJFX07Se4wooopAFFFFABRRRQAUUUUAFFFFABRRRQAVfHQVQq+OgoAWv5tf8AghwMftXftetj/mfT/wCi6/pKr+bX/ghscftX/tfH/qfT/wCi6TNI/Cz0/wD4L6f8EzPiZ/wUS+AmiH4MXUa+JfB96b22spiVju1ZHjZAQDhwJCRkDp1r8l/+CEf/AARP/ap/Zq/alj/ac/abs18NR6FBNBYWCS75LiWUFGL7cDZtZm5PUDiv7V7h4lAMnA9/WqMLQhm3gglu/wDn8qZPM7WPwL8S6d4v8D/8FvdU+Omr6BqLeFF8BjTv7TiiDwtciaCTyxg7s7VI6da8/wD+Cm8vxR/ab1D9mnx54N8FaqY9H+Ib3t7CY1321lDFdW6XEvzcB8qwAzwwziv6Ptq5JDf/AFqjmaILheWx684pITZ+Hn7cv7Ddl+2Z4r8U+Ovhr5/hv4seAp7PVPCfiGNTE3mx2qbrdpFO54pctGyHK/N04r4m/bv+Gf7Vfxh/4Jm/Cvwf4w8N3g+In/CY21xrMenIrm2dL0tNdqMoNoIMq456dK/qdWRFiUuMU0vCjgHvx9KTiNSPwq/4Jz+P/wBp/wCBvxx8VfsjftOaNfeIYvM/tLQ/HSwpsv7W5AuFt7pi28SQh/LHDYCYzX3z+034Dvfiv4X8d/D3wJcaha+KNV8MywwSNIwsjllIRF3YEjkbS23O0nmvuDykUeXjj/P61SljtjIICfujOfX6/wA6pK2gnK5+MFz4/wDjZYfsq/DT4V/C/RLvRfFui3Ok6Vq9hLbI8ZitDHFdSkkldjbGkVh82SOBWtH4b+N3/CW/HXxx4Um16fWdHubb/hHLe5upfszwG1iN0IYS5jJLGTZwPmx0r9kD9nuFMTk/L37/AJ1IsMZwFGAOeO309KTQ7n4Q2Xi344af+zrqfxO+HR8U3n26+0861pt8ii5tkRY47oWa+cw5cMzYK7uT1q94j8L/ABEu9I+Fdj4a1jxjd6FqWtaxPfPPM9vcR2kun30kMUvlzMdsdwYxHkkDC9O37lw2VtGWZRnJz9D/APX7+tWJVixhOuMcenpRYEz8wPhdL8Tdc/4J0eINN8cQahd68tnrNlHHdEyXckaTTR2wJZiWLRhOSeleaeGL34teHvF/w0gspNV0vR4PhgYr0Fj9ltr+GAbWkj3bfNTbwcHpjNfsTGkarhTz3/z7VR1bSNN1/TLnRNXiWe1u4nhmjblWRwVZSD6g0wTPwC+B/wAQfEnxFtPE7+INb1Z9Tk8IaxYJpc0krx6ldM0hju1Tc0QLRfdGcgHFL4J+GfxTT4ba98MtNt9ek07VPhjaym2uJ3KLqcP2cNHAC5EbbFYYXHev2e+Gf7PXwt+FEgfwfaSRKmRCssrSrCpP3YQ2RGO2FxxxXuPkQg/h/n8aVhXPzC+JHhe51z/gmLF4Ut9N1B7xfDdhbtZ5P2ozRrCrrndnO4Hv0r6a+CPhrRNN+C/hDTr59Qtp7fRdPjkhaWQNGyW0YZDz1UjBr6iIiUdfangrjg0xqTP/1f7+KKKKACuX8cf8iXq//Xlcf+i2rqK5fxx/yJer/wDXlcf+i2prcD8F1/5F39l7/sot7/6QalX9CFfz3r/yLv7L3/ZRb3/0g1Kv6EKqYlsFFFFQMKKKKACiiigAooooAKKKKACiiigAooooAjl+7jGc1/N9/wAHI/8AwUc8W/sLfsex+DfhZP8AZPFfxCmbTLe4Q4e3tyrPLKp65ITZx/er+kGTgZr+FP8A4PMPBHiK4s/g/wDEKFHbS7aS5sZGAO1ZpBJIue2dqmrhuKT0PxF/4Ir/APBFjxr/AMFX/GusfED4gavcaN4F0e4xqOojMlze3DnJjRiQSSclssAMHrX9SnxS/wCDRb9g3WvAdxp3ww1nWdE11YT9nvJZ5J4zKB8u6NpNoUn0zjtXn3/Bof8AtA/DC/8A2Q/EX7PpvoLbxTpWrS3clqzBZZYJ5HdZFB+8AHUY7V/X3e3MFhA11dSrHEgyzMcAAepPAA65qpzaehMYo/x8fFHhr9qP/giv/wAFAk06e6k0rxL4NvklE1u7CK/sXOQT03JLC27DDgkelf6yP7I/x70j9p/9nbwf8edEAWHxPpdresg/glliVpE4/usSPwr/ADT/APg5x+P/AMMf2g/+ClWpyfCq8i1ODw/p0Gl3NxDgq9yscasoYH5trKVr+9n/AIIceB/EXw+/4JgfCnQPFCNFdNpSXO1/vCOcCROv+ywp1dtRx7H64UUUViUFFFFABRRRQAUUUUAFFFFABRRRQAUUUUAFfPf7WP8AybP47/7Al7/6JavoSvnv9rH/AJNn8d/9gS9/9EtVQ3Qnsct+xX/yaJ8M/wDsWNK/9JIq+na+Yv2K/wDk0T4Z/wDYsaV/6SRV9O0nuMKKKKQBRRRQAUUUUAFFFFABRRRQAUUUUAFXx0FUKvjoKAFr+bX/AIIcf8nXftfZH/M+n/0XX9JVfzb/APBDfn9q39r4f9T6f/RdJmkfhZ1f/Bwt/wAFF/jR+wR+z7oEXwIiFvrXi++Nl/abruW0QRvIWXg/OdmB069a/ID/AIIF/wDBYD9sD46ftY2/7MHx+1STxhpWtwzXEN7Kn7+zljVnJLckIdpUc9xxX9ef7W/7IXwO/bQ+FU/wg+Peix6xpM7B0B4lhkHSSJ+qMOmQQcZr5d/YV/4JJ/sef8E+dVvvEvwF0aU6zqCGGbUL+VrmdYtwOxHkLMoGAOCOKZGljmv+Cqn7aHxT/Y++F1j4z+DVlBqNxp97a3muxyYLRaO1wkM8qjByw3g9vXNeZf8ABQX/AIKMa18MPhd8Gb/9ndoWvPjdq1hp9lqsqrJDZW93Ablpdpypk8tSgB6E9eK/QTxr+yZ8M/iDceMW8fhtYj8ZWhsZ47pRKLeExCIrBuJ2ZA3fLj5uetfOOlf8Eqv2cdP/AGY9F/ZX1eTUNV8P+Gbwahot1dXEj3unzrIZI2t5yxkTYTtADAbPl6cVLTKTR7xZfBL436NLHZ6V4/nns5bIwXBuoVaUXJYE3EbEsRxkBMgc1+aX7N/xF/aW+Kn7fnxj/ZpvvHs40n4cx6RPpztboGkM0NrLcCTDfx+Y4B561+wHwz+El54EKXWseI9Q16eOEW6NdO20IuOSm5gz8cueTXjfwi/Yl+Gnwa/aU8a/tQeHLy9l8Q+Pkhj1NZZXeErAqJHsQsQuFjXoBRyii0e/fELx9rXggJLb6LcajaJbXFxcXMRXZD5ELyANlg3zlQowD1r8tfAPxz+Nvxg/Yz8RftrQ69/Z2pWE2q3FnpaqPsy2umXUsIgk6bmkii5ypw579a/WDxB4GbxB4l03Xpr+eKOw8wPaIxEFwroyYlXOGA3dwegr5e/4Ye+HNloup/DvQry9sPCesXcl9daNDIwt2kmlM8wX5gFSSUlmAHJJ4piOD+F/7cl54/1Dwr4W07wbqNzqGt+FLLxReSR+UILe3uIomflpFOVeQKBtrXsP2+PDAuvFmm3mg30d14X0mXWmt18tnltI5lhJU79u7LA4zj3r2TTf2WPAum/Ea7+IGmTXFq0/h0eGRaxOywR2KhAFjUHAYbBhsAivEvDf/BOn4V+F11NLbVtVmfVdHn0OR5LiRitpPcC4KjLnLBgACe1CuNWLPgz/AIKAeC9b0bXtV8R6FqGj/wBi6XYawI5lRmmtdRSFomUI7d50DZxjntVzTv27PBzaf4i1HxHo95pg8PyWEHmShDFcSanHFLbpCysdx2zLuyBhgR2rjviD+xOnhrwH4jvfhLLNd69qmg2Ph6OK6uJFjNpZeQnysNx8wxQ8HH3u9cT8H/2HtZ8Q/B/V/hT8YLi8h0a+S2e1gMh+22tzavG0c8dwrF8qY+PmBxxSd7jdrH1f4H+O138XPg54t8T2Ok33hzUdGivoNl4iq3mQpJsljwxyp2hhnHWvk/4AftI6vfeHfg9p/wARbzUbzVvFd7qUH2mEKIJWtY7p9twN4PCRZXCtyB0r7t8CfBe38IfDO5+Gl/rOoaz9rt5Lee+vp3luHEqFCd7szZAOAc9q8P0X9iTwL4RsvA7eHb68af4eXF5d6X5sr7Xmu45kbziCSVxO3YnpxVCVupyEH7dPhzxtrsfgfwpo+o41lNXgtNQVF2QTaYZ4pGmBfco8yFtnBzx0zXh37Ln7dPiuT4bnwz8RrC81DX003XNTsr+YIsV6unXU6CLh2ZTtj7joKh/Z9/ZJ+OHhn4manrfiWaTSYdRu9Re+xIbiC4gvHlIEBfBjI3g5Cjoa+lvCX7AHwq8G3elXFjfX8w0iz1Gxjjllcq8WpySyThvm5IMzbc9OOlJXG7HSfD79oPx18QP2Orv9oG40ZLHVzo93qMVkGDqGijd05PUfKCa/Pnwb8aP2l/GfhDSvGF0NRjl1WzgvHWOfCK08ayEKN4wAW44HFfqR4I/Zv8MeBfgZdfAPSr+7l0m5trm08yWRmlSG63AqrliRtV8Lg9q8x8OfsXeD/C3h6w8Mabq+pm2063itYtzknZCgRckvycCmSz//1v7+KKKKACuX8cf8iXq//Xlcf+i2rqK5fxwR/wAIXq//AF5XH/otqa3A/Bdf+Rd/Ze/7KLe/+kGpV/QdgnKmvwOufhr8avFH7PXwZ+JfwS0OLxHfeBfGF3q1xp8kphMsJgvLY7GweQ0ynnHAr6ml/as/b2t42nm+ByqijLM1+oAA7k9quSEnofqbRX5P2n7ZX7bN/H51l8G7aaPYX3R6mjDavXkHt3PT3qfS/wBsD9uLXLf7ZovwWhu4s43w6ijgEdRlSRkUuRjufqzRX5cL+1P+32f+aFj/AMDlp3/DUv7ff/RDB/4HD/GjkYH6i0V+TGtftpftteHpUh1j4KLE0gyo+2lsgf7oNZH/AA3l+2D/ANEaH/gW3/xNLkYuZH6/UV+QB/by/bBx/wAkaH/gW3/xNa2kftqftsa9cNa6P8FBNIq7iPthXjp3Ao5GLnR+tNFfl1/w1L+33/0Qwf8AgcP8aP8AhqX9vv8A6IYP/A4f40/Zso/UWivy6/4al/b7/wCiGD/wOH+NH/DUv7ff/RDB/wCBw/xo9mwP1For8uv+Gpf2+/8Aohg/8Dh/jR/w1L+33/0Qwf8AgcP8aPZsD9QZSQOK+Bf+CjH7Cfw1/wCCh37MOufs/fEFFSS7jMunXm3L2l2nMcinqM8qcHO1jXm5/ak/b6PX4GD/AMDhTP8AhqH9vnr/AMKMH/getHIwP80L49/sXf8ABRT/AIJE/tAHVIrXWNDvdMmf7B4g0YymC5hz8pLRYbay4JVgBW98Qv8Agtj/AMFW/jD4Tn+G3iD4h6vJZ3ieRKllBJDO6njaXi+fnv696/0efFXxu/bM8c6S+g+M/wBnq21Wyl+/BdXUcsbfVXBBr550b4deL/DmsjxBoX7Hnhezvw25Z4YrRJA2eoYRgiru+xHKfxtf8Eb/APghD+0N+278Y9M+Mf7QGlXfh34d6Zdrf3c2oqVudScNvCIp5+d/mYsRkA561/p4+FvDmi+EPD1h4S8NQLa2OmW8VrbwoAFjiiUIigDoAoAGK/M60/aa/bq0+OOxtPgOsUaKFREvVCqAMAADgCtAftQft8A5HwLAz/0/rUyu2NM/Uqivy6/4al/b7/6IYP8AwOH+NH/DUv7ff/RDB/4HD/Gl7NlH6i0V+XX/AA1L+33/ANEMH/gcP8aP+Gpf2+/+iGD/AMDh/jR7NgfqLRX5df8ADUv7ff8A0Qwf+Bw/xo/4al/b7/6IYP8AwOH+NHs2B+otFfl1/wANS/t9/wDRDB/4HD/Gj/hqX9vv/ohg/wDA4f40ezYH6i0V+XX/AA1L+33/ANEMH/gcP8awdb/bM/be8OCNta+CYhEpwv8Apu7P/fINHs2K5+sdFfkAP28v2wu/waH/AIFt/wDE0v8Aw3l+2D/0Rof+Bbf/ABNLkYudH6/UV+SGm/tu/tpazeCw0z4LCWVhkL9sI/mAK6kftTft9Hp8DB/4HD/GnyMaZ+o1fPH7WJz+zR47P/UEvf8A0U1fIP8Aw1L+33/0Qwf+Bw/xrzz4s/Gz9vz4m/DLXvh5H8Ekt21qxmsxK1+MIZkKbjjPAzmnGDTuDPtv9iv/AJNE+Gf/AGLGlf8ApJFX07Xhn7M3gzXvhv8As8+CPh/4pRY9S0XQ9PsrtUOVWaC3jjkAPGQGU9q9yU5GahjFooopAFFFFABRRRQAUUUUAFFFFABRRRQAVfHQVQq+OgoAWv5tP+CG7Y/av/a+/wCx9P8A6Lr+kuv5tP8AghwM/tX/ALXv/Y+n/wBF0maR+Fn7z/Gz45/Cn9nrwJd/En4x65beH9FsxmW6umwoyeAAASxPoAa8V/Zc/b3/AGTf2yY7w/s6eM7LxFNp/wDx8Qw7kkQA43bZFUkcjkV+Nn/By9+xz+0d+1Z+zH4b1D4CWs+tR+F9S+2ajpEDfPPEY3QOqkhXKs6nB9M1+Lv/AAblf8E/v2wvBn7ZiftA+MtBv/B/hXR7WaC7+2DyjfM6lVhCKTuCsQ2W6baZKSsf2h/ED9tr9mb4V/EC8+GPxB8U2+na3p9qL64tnSUtFasyqJWKoRt3MMnPGa63xX+0/wDBHwpb6Be6n4itWj8UIsmkrETI96jIZA0SoCSuwFs+1fh9+0N+zZr37Q//AAV68Q+E9Yj1DTfBniT4d/2JfanBAGjlL3FvK9sJCwKkqh+YdMYroPHH7JGs/sp/8FHPgf8AFLQdNudQ+EnhLwm/ha2dcz/2VcRxkJM68tmREKl1BPz46Zqbsq0T9kW/a/8A2d/+Ffa/8S/+Ekt10jwsxXV5dr7rMqcHzowpcYz1CkfhXN2f7dX7LV7rng7w9beLrVrvx/F53h5cSYv02GTMTbdv3VLYJB4r8xf2Sv2ZPFPxW/bT/aY+M/ibSJdL+GfxJ06DQrK1uUCC9kjtoYJ7wQ8gAmNwrHDHIJHNfmM3/BOn9s+0/Zhl06ztJI/E/wCzv43a4+HUgYiS9027vWUq5H8EdrcOmORhaL6D5Vc/qI+Iv7Yv7P3wn8N3fi74ieIYtL02yvl06a5mSTYlzI2xE+VTnLEIMZ5NbumftT/BbU9J1nV4dW2xeH7QX9+zxSr5VsVDCU5XldrA8ZPrX43f8Fd/hH8QdY/4JraJ4P0LSbnUvFOpa1oup30NlF5jx3DXsF1dMBkArCd+PZRwK9+8M67dR/soePPhJdyah4q8RJ4Nv5JNWmtTE7faYiIbIEnJZPMVMDI+XrQ2ybK1z7k+Hv7dH7LnxS1PRNJ8FeL7O6n8TKz6UCJEF4I92/yi6AMQFbjOeDX1U955amSTjaT+WM/5xX8XH7I3wW+OHw/8Q/sq+Ov2hPCepa14C8PfbILGG0t1hutA1ib7SgluwrKZIXjd1yS2C444zX9dfju88Np478JNqFzfx3DzytbJau627nyJCftCqQpXbkjcD82OKaZMlYt/DD47fDL4zTarB8OtSTUW0S5ezvdqsvlTxkhkO4DkEY4zXaaZ4u0vVtY1HRbTd9o0soswZSBmRQ4Kk8EYPODX5EfsM/FHS/g9J8TtN8ZaVqEF5qXjO7ezgFuxaeOadwsqH7u35gSSQcdqs/En4lfFnwivx61OLVdSsrawvtEk0h7hmKLFIlobqK2yTguzSIduMEmmDR+pPxK+MXgH4P6LbeIfH96LG0vLqGzjcqWBmndY41+UH7zMAM+td7eavpunhZr2eOFHYIDIwXLHgAZPJPtX88/iHUNZ+Kv7O/iVbLW9U1251LxRoUsWls1xJcaXAl1bNKoaXHoZNyngdDVnxXovxg8ReCpNK1w+INS03wt8R4pLaR5pWnNjKxOS7NukiV3AweAB6Ci45Kx/Qy1wofDLgep9af5wV8tyoHWvzh/a78UfEvSviH4D0rTP7Qg8C6h9oj1a6sGYTxy/ZpjBuZCHA3hDx34NfEetn9qu9sfAmjfEPU9ft5GsfEZnewmlh82CE3jaU0zRsD5hjWA85JPU80rkn9AKuCMioS0ROScH6V8N/svfHyWX4d+Avh58TGvB4r1fSvN3XMbbn8jKN5j8/OdueevXNfWNzqbLcSKLuNAGI2kjI56HmmB//9f+/iiiigArlfHAH/CGaw3/AE5XH/otq6quS8dH/ijdWHT/AEKf/wBFtTW4Hyb+wWP+MatK55+03n/o5q9S/aX1LxTpHwL8Sy+C9Bn8S6jNZSQRafbMqyymYbPkLMqgjduOSOlfmB4W/bS+Dn7OH7HU3hbxJr66Z4nmtNUlsIgjOyyfvHibgYxnHNfMH7Jf7Ovx2+O/7L3hT9oj4r/tP+JfDlx4nt1uHjLiOBHkG/Yha4UeuBgcCtHHqSn0JP2bv2bf2lfgd4r0y08UeGPEl7pk3gTUYr+2gv2MP225uYJ4LZS0oKyiMMjYG0cgMR1+0f8AgkJ8MPip4B+HPivVfir4c1jwddatqXmQaHqMqyw2sC7gnkMsj5LLgyEhctnr1ryT/hjrVQP+TyNf/wDAmP8A+S67rw//AME6/i34tsBqnhf9qvxbqNsSR5tswkTI6jct0Rmnz3TTEkr3P2kRSPYU7cDxX85HxY8A/tM/sO/tV/Au0h+NniHxrpfjnxI+kajp+qr+5aH7FdT5GZX+YPCvav6NCuG49azcbF3IngjZtzIGPqRTltoO8a/kKnoqQIDbQY/1a/kKakMatuVAPoMVZooAKKKKACiiigAooooAKKKKACiiigBDnIxQCT1paKACiiigAooooAKKKKACiiigAqJ4IZDukUN9RmpaKAIPs0Gc7F/IUv2a3/uL+QqaigCuYIQ2VjAPqBVgcDFFFACEE9DikAwadRQBGq9c08ADgUtFABRRRQAUUUUAFFFFABRRRQAUUUUAFFFFABV8dBVCr4+7QAtfzbf8EOQv/DVv7Xu7j/ivT/6Lr+kjrxX82P8AwRn3eD/29v2u/hrqv7vUH8UxaqsbcEwTRIVb6HeKTNI/Cz+kKZFPzHtzn2+tUokhlG+Fw67s5B/ljp74r+cf/g5J/ba/aR/ZG/Zp8O6f+z5cT6O3ivUDZ3+sW+RJbRCN5NqOvMZYoBuBHBx35/GP/g3W/wCCjX7Zvj79seL9nv4h+IdT8a+F9btppriTUJpLp7F0UyLIJJCxVXK4wCPvUyVHS5/e6fIAK7wOfWmTLbJH80gUfXFfzsfGfxf4+17/AIKy/EH4LN4y1fSvDll8N5Natra3vpYYbe+Qw7bgIrgcZOfXJr8+vHP7en7VPxO/4JYeCvjL4i1nUdN8R2HxDHhw6hp7tayarY2uqPaBsKybjLCgJZj8zHPfNTzFezZ/ZfGIJI8hsj1BqTCP0PT0r8Fv+CXvx4+IHx8/aY+NcFpr2oW3gnSGt9PsfD+uytJq1lfLFEJ7gbmfMErCR0If+NeKz/8AgnD8bP2pPHvwh/aAk0PVf+Ex8WeHvG+paZoS6tO4hjSK4kijRmAkKpGgzgKenSmncTifvysaRqcnFU5EhlYqXBU9s+ntX4sfDj4sf8FpdJ+I+lfDv4xfD7whqOkXtwjXniHTb+cR21v950ELWqbn7A4696+A9a+KXxb1D9ov9sWwHj/WNLh+G+nWep+HV+2y+TaT/Y7a5ZRFv2sksjMpUj+PpTbBQuf1SKsSZLuB9T6fzNSIYXYEMDgdq/kQ+On7cH7Q/jH4K/sd/GrxFe6xpN/421KWLxFpulTPbSajBBp93IcIGjGZGiWRQepxX3b/AMEyPip8RP2k/wBn74u+JfHnjy6s/DNx4hv4NL+0XDLrOiWVtJJHLFdOzZjcsjFSsjcEYNTzDdNpH9Ae1H+VGypzXmPxT+G3gT4peGZPBnj5POsZWRiFco6tGwdWV15UhlByK/Kz/gmRb/tCeE/gr43bXfFp8dW48RSt4ZbWb9rm4XSzOUzcXGZXO5SXjDE8bRxXR/tr658Uf2aPi34d/aX8PXl3qnh3XhD4f1fRHuGa3gnumVILqGNzsBWYxg4wTyeTTTJ5dbH6a/DT4a+Cvh9YSW3hYyzGTG+4uZmuJ3x0DSvliB0AJ4xXo+YGYh3AK8nJ6D3/APr1+YE3xb8Wfs3Tr8F/BVlP4w8WT2T+IbmK8uyMxzXQEkcBlbHy+ZnaMAAeteb+MfHPjPUvi58W3m1C/sFf4eLqSWa3LAWdyYYX/d7WwHUk5Ye+DTsJqx+vyRRxttiO8PznPOP6/wCFXjbh49h4/Gvyv8H/ALW3iHwz8NfDvgvQLZNZ13R/h/ZeKdRmvZWV5oEhiEnlthi8p3Zycd+arfED/goprvg/RrXXYPDsL2ms+GbTxDpAmldZbkySRC4ttoUjzIY2kk4JyqZpXFY/UG50Kwnv01doke5gG2NyPmQd9p7fhXPT+HvBs8zzXFvZNI7FmLbckk5JPvmvJfgj8ZJ/jz4TufGWjxxJolzbQSWlzDIxZ2lgV5l5UEGKQsmc5ytfxHfG39on9ofSvjN4u0vTfG+ux29trV/FEovnACJcSKoH73sBRZAf/9D+/iiiigArifH5Y+ENXjXg/Ypz/wCQ2/8A1V21cV8QMjwdqx7Gyn6f9c2pxeoH8nfxi+D+ofFPwJqOoeHdBvNT1XRfD99JFdwxxm1tY8hnFzvdTIMA4+VsHBHSvkuy1bVfB/wS/Zo+FfieZfFPhjXbO+8SJp+pKJY4p7PT7kiEh92+FmbcFYYAA44r9QfG/wC3l4U/Z1/ZsuPgpJ4bn1TVNf0rVDJdxbFxA4dQ24sCwUsowe1fC/gH4C+I7b9l/wDZf8f6C8PivxXrmptp1rDqsr29pBYS6Zdl7ZSiyGNQqjLKucgetdSbsYtdjwb4U/ErxR4t+Anw+/ab8Q6B8KJLDxb4mTSLnQItMshex27SvHlcWwbdhQe1f0nf8Eq/DejeCZ/jF4K8LwLZaTpfjG7is7SMBYoI/Nm+WNRgKvsAK/AP4ffsV/su+Hv2jNP8E+B/BXw8HjTRtRN3aWv/AAkerGFb5CzELusBCZF+YNg/ezya/eL/AIJHXvjfUIfjFefEm2tbPW38Y3ZuobN2kgRvNm4V3VGbHclRWc9i4nJ/8FSgP+Gp/wBlg/8AU8yf+my/r9tj1NfiV/wVJ/5Om/ZY/wCx5f8A9Nl/X7anqazlsikJRRRUDCiiigAooooAKKKKACiiigAooooAKKKKACiiigAooooAKKKKACiiigAooooAKKKKACiiigAooooAKKKKACiiigAooooAKKKKACiiigAooooAKKKKACiiigAq+Pu1Qq+OgoADkjIr+ZH9q/Xp/wDgnL/wWW8I/tVXwa3+H/xzsY/C2vXKr+7ttQhRTbO/Yb/s6Lu/2sV/TfXx5+3F+yB8Nv23/wBnfXfgH8SIh5Woxb7O6A/eWl3EweCeJuqsjqDkEHGR3qZK60Kiz0z4zfAb4N/tO/DS4+HHxj0a08R+HtRRWMFzGkqEcMsiFgcHoQw5rxj9lH/gnp+yT+xQl837OXhK10KfUuLi5Ch7h1yG2GUjdtyAduccCvyY/wCCdX7e3xJ/Zf8AiIP+Can/AAUfuP7K8XaF/ovhTxHcHFprunR8W+JSOJxFtBDddp5z1/o3iu4ZY1lhIdHAIYHIII4II9aalccrrQ+PfG37B/7OHxA+LuofHTxJpc7+JdWsRpd3dR3EiGaz+XMDgcGM7RlTwaufEv8AYX/Zi+Kvwx0L4O+KfDUCeGfDdzDeafYWmLeGGe3YPHIEjAG4ON2cdeetfYPlrQI1pk8zPl7Qf2P/AIE+F/jTeftDeHdJNj4s1KwTTry+gkMbXMEaqiedtx5jKEXDNkjAq/8AAP8AZT+C/wCzU+vyfCDTn00+J7+TU9RBlZxNdTMWeUg/xMSST719JbBR5Y7/AOf1oC5A8YwY/avhy9/4J2fsq3/jfxN8Qr/Qnm1Hxk8UmtiSZ2ivjDs8sTxnKuqhFAVgQABX3YVDdabsWgR8lfE/9iz9nb4uax4L13xnoSPN8Ppln0BYGMMdk6RtEvlomFGI2Kcfw8Vyc3/BPr9lppfG7adoDaenxGIOvx2UzW8d242kyMkeBvbaNzdW5yeTX3AYweD/AJ/Wk8oUrId2fF3wQ/YK/Zu/Z28A6r8NPhFpdxpWmazPBcXO25kMrNblTGBJncFGwDA4xx0r2P4v/AL4b/HPwvY+C/iRayXthp9xb3UMYkZMS2rrJEzEddrqpGe4zXt5jBGKUxjGBTSE2fNPxW/ZS+Dfxn8RaH4u8b2czar4e+W0u7ed4JvLySYpHTDSRsTlkY4J5Iq1qX7Mnwh1jxBrfie7sH+1+ItLGi3zLIyh7NQq+WAOBwgHFfRhjGKTylJoHc+YLr9j34GXcejK+nSxNoWnrpNtJFO6O1io2i2lYHMkWB9xsr7V2viP4AfCXxU+gSa7ottP/wAIurx6YGjXFukkD2zKnHAMTsuB2Ne2kA9aaybu+KBHnPgH4a+Cvhl4PTwH4Fsk07SYjKUghGxVMzM7kY6ZZiePWvz+8Qf8Eff2DvEuvXviPWfCRmvNQuJLmeQzvl5JWLux+rEmv1GEa0wwIef8/wA6AP/R/v3JAGTTRIjHANfxMv8A8Hjfw4Zc/wDCqNQ/CaP/AOLr82vjV/wdQftf6n+0XL8UP2d7WLSfCE9vDE/h/VESYeZGqrI6yYkK7mBPHrWbqxNfYS6n+kbuXOK43x7x4O1d16/Yp/8A0W1fx3/stf8AB3n8HvET22iftX+Brzw9O2Fe90pluYN3QswkaJgPopr+k34Fft0fs0fts/CbWPFX7PfiAazBFp8zSoYZoniyh4bzEVT+BNVGab0JlTa3P50f2oPhH8VfFPgrQdT8EeHZ9f0XWNM1S31qSKKNmsYrdXkWZJpGVkG6JVIXn5ule/8Awi0065+yX+x5oSzNCL7V3txKpy6+Zo98gbnGSM5571xvxy/bK+PXwP8AhTpvwV8C/Z10XxPpWrBRLCsv2iQh/MXeQXXC7jnGOK7H4RX40L9kr9j3WlQymx1d5xGpJLGHRr5gq9yTjArvu0jDRIpeHf8Agl9+1kdQ0P8AZy1Hw14bt/DXhzxVP4gHj2KaQ6rcwyXEk6xMhgB8xg4EimTaDkAkV+pf/BM7e3in43CQ8jxpdDrn/lrP+X07V+XHhj/gpr+2DFHoP7RmpazoVz4W1/xXPoB8DpEg1WGEXEkKyEiPzN42h2JOcZ5r9SP+CZwx4q+Nw/6nO67Y/wCWs35/U8nvWE27ajil0PIv+CpIx+1N+ywP+p5f/wBNl/X7anqa/Er/AIKlf8nTfssf9jy//psvq/bU9TUS2RSEoooqBhRRRQAUUUUAFFFFABRRRQAUUUUAFFFFABRRRQAUUUUAFFFFABRRRQAUUUUAFFFFABRRRQAUUUUAFFFFABRRRQAUUUUAFFFFABRRRQAUUUUAFFFFABRRRQAVfHQVQq+OgoAWqzoxY8ZBqzRQB8Q/ts/sC/s+ft6/DX/hXvxv0kSzWp83TdTg+S90+ccrLbzLh0ZT/dYZGR0NfixY/EP/AIKn/wDBIy4Xwt8S9Iuv2hPgzZELbazZEHXtOtlOFE8cm3zdi/LnzWJFf1BsAagdFkBVxkEYI9R6UuUpS6H5pfsxf8Fdf2E/2pLeK28IeM4NI1lvll0jWVayvIX7o6ygJkH0Y1+j2meINE1qEXOjXkF3GeQ0MiyA/ipIr8/P2m/+CUH7BX7Wdy2qfFz4e6bJqrZYalZQpa3oY/xfaIlEmQfevz/P/BBe7+Hszy/sxftB/EHwLCP9VaDUbm9t09BtluQMD6UtR2if0MCQGl3rX88I/wCCZX/BVTRv9F8O/tZ6hNAOFN3p0bv+JLmnn/gnH/wV2xx+1bN/4Kov/iqL+Q+Rdz+hvetG9a/nj/4dx/8ABXj/AKOtl/8ABVF/8VR/w7j/AOCvH/R1sv8A4Kov/iqdw5F3P6HN60b1r+eP/h3H/wAFeP8Ao62X/wAFUX/xVH/DuP8A4K8f9HWy/wDgqi/+KouHIu5/Q5vWjetfzx/8O4/+CvH/AEdbL/4Kov8A4qj/AIdx/wDBXj/o62X/AMFUX/xVFw5F3P6HN60b1r+eP/h3H/wV4/6Otl/8FUX/AMVR/wAO4/8Agrx/0dbL/wCCqL/4qi4ci7n9Dm9aN61/PH/w7j/4K8f9HWy/+CqL/wCKo/4dx/8ABXj/AKOtl/8ABVF/8VRcORdz+hzetG9a/nj/AOHcf/BXj/o62X/wVRf/ABVH/DuP/grx/wBHWy/+CqL/AOKouHIu5//S/eJv+DYj/glB1HhPUOP+ojP/APFV+Ynx1/4NK/AXxA/aVfU/g34mXwT8MVt4EFpmS8v2mCL5pBkAABbdj5+9f2nMgameSuck5qXBM09rLufz7/sw/wDBtZ/wTW/ZzeDVde0CXxxqsBDfaNaYyxFh3+zuZIxX7MWvwj+GPwl+Guq6F8MNAsNAs0sZ1ENhbx26YEbY+WNVFe6lc1yPjnA8H6uo7WVx/wCi2qoxSJcm9z+Wn40/sSfF345fBmH4+eDLqOGDw5o2qraSG6mha3YE+duiRSkgdQ45Peu0+Arq37M37FsrY2/2+pOcYx/ZN5+HvX6c/CmeCP8A4Jv+I4ZGCs2l60ApPJ4l7dTX5XfB7TBrn7Iv7HOgiRoTe6s9uZF+9H5uj3ybx7gnIxzXXGTa1MLWPv7wkf8AgkdL+2DLqfhyHw0nxRF7Mdy2uM3oLCQxymIRfaM7gxD5JJ5Neif8Ezn8zxZ8cHxjPjW7OPT97P19/Wvy+8Of8Ev/ANrA3+g/s2avovhuDwh4e8VTeIV8bwyOdYnieeSdYyhgAD/OEc+bzyee/wCon/BNEBfFnxvUEkDxpdAE88ebPispbFxPH/8AgqV/ydN+yx/2PL/+my+r9tT1NfiV/wAFSv8Ak6b9lj/seX/9Nl9X7anqaiWyGhKKKKgYUUUUAFNLY4p1V5X+YLQA/cWGKTcSfXFfzYftPf8ABTH9rb4MftZ/E34PeGtV0u5i8G29jeaPon2BpLjVftiRObfz44XEZAkJ3Mw4XrXZ/s6/8FGf23fiH8c/AnhLx3oWlP8A8JTcyLrXh7TsyS6DaiKR45Z7sxKrSMyoDHvJG4+laeyYuZXsf0OcsfrQ3Hy5rwn9pz4q6l8EPgN4n+KejQLdXejWnmwxvwrSO6xru68AuCfpX4jap/wVD/aE+Fvwd8Q+K9a1bQvHPiKy07TtVt9Ls4JbS5QXc1uktsFa3RJNizNhwxzt96UabewnI/ouyfumlBOTnpX89XxY/wCCs/xM8T6rYeGf2eY7C1l1ays/3t2u+WwvpZYY54ZomQjMbO4GTzjNe6a/+2d+0v8AAvwb8bPB/wAVn07XvFvw00SHWbDULaMQwXC3CxMqSRBFClPNA6HOKbpvqCmnsftCWLDpT93HPFfxZav/AMF3P2+vgj8OdB8XfFUeEvFkvxA8Orqujrob7pNLncxkLfIIECgKxByW5xX1d4L/AOCm3/BUzwF4u8M/CH4reGvDnjDxR8U/CcfiPwkdKcwRwtIIXK3e6CPhI3YnAfkYp+xYvaI/qe5UbqaGYc1/LN+zb/wWF/a5uPiN8Ufgl8bI/D/ibW/BGhJqwvtDEkdvaXP2q3t5bOcSwQMzIZmBZVYZXr3r9dv2vP2tPH/wZ/YSsv2jvCf2az1m+stKnMk6GWGBr9oRI2zaxYKJDgbeal02PmR+kWecnrT85xk4NfiN8Rv2jv2zfhh+z3pXxItPGWjeJLvxhqlnYaReLp4to7dbjl3eJolLHAIAZe9fWX7Kfxs+Ouo/Gvxt+zV+0Lc2Wra34Uhtb2HU7CMQxzQXUccgVowqhWXzAOOuOtJxsO5+g+5jyKTcSRnivyF/4KW/tK/tUfAT4l/CPwj+zzqmmWNv8QdafRLj7fbrNskFrcXSyAlHOD5GzA/vZr85vCf/AAV//bP+J/iz4lfDDwxo2iadrXwMt7i68UTStvi1FYLpIAtsPKOzdG+9jhcONo45pqDYOSR/UqWIOe1NfOa8h+AHxWg+OXwO8JfF+1gNsnibSLPUvKP/ACzNzAkpT8C2K4L9sfx38R/hh+zX4w+InwpuILbXdD06W9tnuUEkWYcMQykMOVB7VNtbDufTJZjkdhTjkHPpX8vVx/wVW/b2+F3gTwjP400vw/4lv/iD4Ws/E+l3UZa2W2jkktxPDJGkOCQsj7DznA5BNf0m/DTxPc+Nfhv4e8Y3qBJtX020vXVega4hWQgdOMtxxTlBoSZ2+e1AfFfil+0f+3D8a/CPx18Y6H4V8Q6N4T8M+BLjTrWQalbSXDahNexRzspeOCUwqqswDeoHrXmlv/wWF8Q2uv8AxJ8I+I9Ks7WXQoNPuPDOo7z9j1E3IhaWEOVBDgSOUyuSF5xVKk+gudH787jkle9Oyw7V/PZ4M/bv/bb8T/DrX/2pReaMPB3hjVbOyutCMCieSO5njtm2ziPdvR5AxGQOCM+v6v8A7TH7X3w2/Zf+CjfGb4gtJHbvbrNbwrG8jSO6bwn7tWxxnk4FS4Mq59Zb269qM5Ge9fjr8Tf+CkfibXfhb8JvjR+zhY2moaB4x1i0sdca98yKa0juYHYrErRkOyyBVzkDGSDXpP7c/wAb/wBp34KXkvjLwHrmiaH4bsoo/s1tdxm4vdVu22/6PGnlMUySQGVugycc0/ZsSZ+oOcqKYGbORX85f/BTn/goX+1n8G9P/Z88NfCzVNM+G+p/FSRF1m81uJJobBjYzXLK25XwN8YUHGfYV+avw4/4K6f8FOf2j/j14X/Y2+FniTw7YeIJ9Z1DTJPFa2iy6fqSWcdxIrxIYeMiEA7V/GqVJic0j+2Asc470gY9fav43vH3/Bxh8c/gL+yp4o8P+PPDSeIfjP4c1+/8OpPp0DNpzfYZ5YjeS4jCoCsW7bt71+vn/BNb/gpP4y/bSfwNZaxFbSjWfBra1qU8KGPbqENzFbSIilF+TLMQRxSdJoOZH7TckZNJuYcV+PH7Q/7U/wC0EP26E/ZM+FPizTPCUcmjJqFs15YG8e7nYx5TcInEYCuxyzAcVg/ET4/fty23xi8c+AvBGv6LDbfDDQbPU9RE9qrf2hK1rDcThW8smIHcwXHtSUGNs/apmxxUZ4IavFf2fvijcfHL4GeGfissAsp/EOl296Ys7hHJNErlQe4DHj2r+fz4if8ABTT9u74JXXxs+LPiJtE8Q+C/gvrUFnfaekS291NZ3aq0bxyCLl0MiKQWGeTSUbg3Y/pwDEjOKceBmvwG/Y6/4KYftE/Ff4x/DKy+MOnabH4X+NVjd3+gRWRzPYLCZJIknPlruLQxktycMcZPWv326ZolGwJ3GgsSW9KCf1r8av2+f2mP2w/hZ+1f8L/gf+zvqWk2dn4+F5FjUIFkKz2trPcgbjG5AfyCPYH2rzb9g/8A4KdfH39qH9oSy+FfxD8Nado+lx2up2tzNbzNJJJqWk3rWU7KDGFETNG7LhumMgdKahpcLn7wBjjNNJJ6145+0B8TLr4O/BXxN8ULGAXU+i2MlxFExwGkAwoJ9MkZ9q/FFv8Ago7+0Z8NPAuseJfGWv8Ah7xNrc/hu21/T9EhgltbiGS6aCRLdXNuscwEUpBYv1ojBsG7H9CGSef0o5JzX87vj3/gsN498Q+AfDmqfCDTrWw1rVdAt7jUba+GZdO1OS+hs3V0KtmMeYxU/wAXy8YNffP7Mnxy/aNtv2g7n9nL9o28sNdu7nw8niKy1CwhW32xtJFE0MkaqoyGk4IJ6UOm1qJSufpVuORu7VbWZV4Br80fi/8A8FOPgH8Hv2nvDn7MevTTNqOuM0ck6wTFbeTaSqnCYbOAMjOM1e+CP7SXx38d/tDfF34M+J9IsIU8IxW0/h9oZGP2hLm3jljM5MalSxkBIG7ApcrHzI/SHzwTkGpVlQjJNfjt8Iv2kv2utL/a10v4D/FW50nxXDqsEtxqUWjR7V0FdpeISzeXH5hPypgnOWzjiv16jYMDilKNhmh5kfrR5kfrVOikBc8yP1o8yP1qnRQBb3xetL5kfrVOigC55kfrR5kfrVOigC55kfrQZY/WqdKOtAHIaD4+8MeKvEGr+GdDuxNe6FLHDexgH928sYlQHIHVWBrvEBC4JzXxX+z1Fv8A2h/jHz/zFNNP/lPhr7VVQowKqUbAhaKKKkAooooAKKKKAP/T/v4ooooAK5Hx2o/4Q7V2HX7FP/6LauurkvHX/Im6vn/nyuP/AEW1NAfzSfEF/GFx8FLDW9HaaOy8MaVrE8+zVHtIZFuFkT9/bIwDgGQYJU84r4k/Z/8AFHib4Tp+yH4IW/n1jRtV+1+I4rS4O6S1uLXTrlTHAxJIR95CYxxjiv1jX9jP4G/GX9jHWPjP41sriTXLLSdWjEkE7xrLFFvKRyopCugZFO1uMgHqK+S/2Of2Eviz4/8A2RPgN+0p8HtRs9W8beGpkv4hrskkdtHYtayw/ZINiTbQPMQ/dAIXJ5rrjJWM7Md4Z/4KY/tfRR6D+0bqPiLQbrw/4g8XT+Hm8ApCg1OCETywq+8R+Z5qhA7k4HX5jxn9S/8AgmeFXxZ8bwv/AEOl0enP+tn6+/rXzlp/7GX7TejfF5/jvp3wg+FMPi+SRpTqSTTibzH+84b+z872ySxz17mvuf8AYL/Z0+MHwH0XxnrXxtn0+TXPGOtzavJFpjvJBEJXkYLukjjJOHGfl61jO1io3Pkj/gqV/wAnTfssf9jy/wD6bL6v21PU1+JH/BUjd/w1P+yzkcf8Jy//AKbL6v23PU1M1ohoSiiisxgaxdd8RaD4W0mbXvEt5DYWVuN0s87hI0GcZZmwBWwxI6V+Tn/BbbwbqPjn/gmx8RdG0y6jtXFvbzMZXaNZI4rqF3j3KCcsoKj604xu7AfeulftMfs865fxaXo/jbRbm5mOI447yJmYgZwAG54rxrV/+ChP7GGl6rd6Jf8Aj6yW5spnt50SG5fZLExV03JCy5VgQcE1/Ap4O8cfsnftLeL/AIWfCT9nb4ZWXwv8U2OpW0194luboIsi21u/mopj3EtK4wAcda/tN/4JY/C/4ca1+zBd3+taDYXlwfFPiJWmmt43dsanOMlmUk1rKnZXZCkzy3wP49/YJ8EftF/EL9pAfFv7fqXxBs4rOe3ksrpUtVhjWKNom8onKqg7D1r5s+Bnwx/4J+/s+fFuy+Ifgb9oDW10yPU7jWbzRn/tA297e3JkLvO20mRQ0rFUZSq8Y6Cuq/aS/wCC2/8AwSx/Zc+Pusfs3/EHwnd3HiXRJVhnhsdJt5gzMMjYN4Y8e1L+zn/wWz/4JbftN/tCaF+zN4E8IXtr4o8QztBbQ3+kW8ADrG0p35csPlQ9qLOwOx+gvxi/bM/YL+NXwz1r4W+J/iBAljrduYJXjt7wOvIZWU+SOVZQetfm3pPw7/4J4tab/iL8a7jxVqMFrZ6fZXk1ndwta2VlNDMkKKqEEloEDOSCRnPWv6AP+FL/AAiH/MsaX/4Cxf8AxNfGv7Z37Qn7DP7B3w4PxM/aGs9K021kYR2ttHZxSXNzKeiQxhfmPX0pQkOSufmT8V/hB/wS1+InxI8TfFvwp8UG8J654me2mleytbt4ori2ZG81IjGq5Ypk9M5z1rtLz/hhrUPhR8TPC3iv43vr/if4kaeun32u3tndK0cMewIqxeWyhVVFHXtW1+yN/wAFgP8AgmD+1v8AFKH4L6N4fPhTxHejdY23iDTIrQ3Y4OIiN4JxyM4yK/XH4l/B34Tp8NPEc0fhrTAw0u8KkWsQIxA/+zxim5dwSP54PCn/AAbxfs+ar8P7LxP+yv45WysvEfhWDRdUuxALmO9aMwyC6i8w5iZpIQSABwSK9x8Af8EQfjNPqNp4v+OPxt1LWPEXhfw8nh/wlfadD9ibS4o/LCt+6dfM+WPac9QTn3/R3/glLDFD+xJ4XjhAVEnvVUAYAAuHAAHoOgr9GMEMKJVX3CMEfypfDL9i79mP4EfFT4hXv7XXx4g1bx3r+jR6BcGw06S1+zw+ZDOJp1tkKS3DNCrMzncSSSa+j7pf2TPEPwNvPgN4+/aSu9b0t4bOKwkk0ueOSyNjJE8TIQp3keUAQSOCa+uP2KfAPgbxT+0V+0De+JtHs7+ZPEVmA9xCkjAfZjwCwPFeJft3/wDBVr/gmx/wTw+MVt8D/j14Xdtbu7VLuIWGm28qGNwpA5ZTn5hxiq5ncnlR5/4wvf2V/iX8NJPh58Sf2k7vVnhvLe+069/sqeKSymt8YKKqkNkZByR1r339m740/sP/AAF8ReIPiB4i+MTeL/FPiXylvdVvrS7jZooFCRRrGI3VQqqo4POM18Q6L/wcE/8ABJTWPHGj/D6bwXqljqWuXMFrapd6LbwhmuGCofmfO0lhyBX9E1r8H/hDc2yXH/CMaZh1DDNpFnBGf7tTKXRjt1R+M/7bHiT9ib9sbxT4J8XSfHWfwnc+Bbx9Q08WFjdP/pTwyQeaWKIciOVwPrXygv7K/wDwS90s3eo+Efjbf6TqniGOWHxRfR2940uuRz3C3Ui3OUG3MijnLYAxX7u/tD6/+yT+y/8AC7UvjF8arDRdF0HSk3zTy20WSeAFRduWYngAV+QXwM/4Ljf8EoPjd8VtM+Fsfh6bw4+uT/Z9M1DWNJigs7p+doSXLE7sfLkCmr2C2up+l3gD9uP9gn4a+BdH+HnhXxzaw6bodlBYWqfZrv5YbeNY0H+o/uqK4b9of9rv9in4+/BjxB8HJPinHokXiC1a0lu4LO6eRI3I3bQYl6gY6jrX3rD8H/g/PGssXhvSmRwGDC1iIIPIIO3oRXI+OvB/7Pnw58K3/jvxto2j6dpOmQtPdXE1tEqRxr1Ynb+GKzW5d9D+d61/Zt/YCTwWvhnVf2jNQvruz0eDw/p17Np9yxstNgaJxDDGVKgs0KZcEHqO5r9dPg7+2x+xj8J/hnovw6uvijFrH9i2kNmt3NaXaSSJCgRCyiFhnaB3r8xI/wDgvp/wSJf4kJ4KfQLhNKlvPsSa+2jxjTDIG2Z83Odu4Yzt96/fXwz4B+Afjfw/ZeLPCmiaPfabqMKXNtcQ20TJLFIoZGU7eQQQeaub6MmOh+Nnxruv2FPi18T9f8e6P8brjw7ZeL0to/EGm21pdyQ362qoqAs0amM7YwCVGa5fxj8Lf+CR/jD4Wa38KNS8cK1hqt9YX9tIIb0S2UunqscXlN5WcGNdrcjOea/dC9+EvwZ0+3kv73w7pUUECl3ZrWIBVUZJJ29ABkmvwa+NH/BdH/gk18G/iZffDg+H5vEMek3BttQ1TSdJinsbaRW2sHlJX7rcHANNSv3JcDL0D4c/sH6M954bj+P16PBeo30GoXnh4Wd2sM8luwkQPMF3YMirIwxywr9N/F/7aX/BPnx34HuPh14p8ZWV1pdzB9mkha2vP9XgLgHyOOO/Wvb/AIDah+yj+0p8MtL+Mnwa0/Rtb8P6zCstvcQ20RHI5Vht+VlPBHqDXsTfBj4RhT/xTOlgf9esX/xNTJlJH47/ALQXiz9gL41+B/A3w68N/FseEdG8DXtrd20FlY3TiUWibI43JiXA24y3JNcR+0he/sc/tC/HXw/8dW/aDudGufDMCx2NiunXFxaxyhQGnEboF81vm+bbnDEZrX/bA/4K6f8ABMf9j34mzfB7xFoB8T6/ZYa/t9A0uK7+xrxkzH5AMZweuK+6/wBjb48fsP8A7eHwoj+L37O9jpWp6eHMNxE9nEk9tKpIMcyFflYEH1qul2Kx8I/tE/Aj/gn3/wAFQ/ib8LfCXxD+IMPiW68HySyjSmt5YxqzNaTQuW81EUH94ZcDO3bgcDNeMyf8G7GjeCL/AEC6/Z5+Lms+Cf8AhEdSvr3Q2t7ZHeyivzMZIEYyglV85lU/3fSvuD9sPwL4K8K/tf8A7Ntz4Z0mz0+WTxRdqz28KRsR/ZV9wSoBIr9eWHJIpObVrDUE9z8cvAn/AATZ/Zn/AGQv2LPG3wu+I3iJryHxKLy817xTq0YkuGutQdjJPglyD5kuFAPcCvjrwP4C/Yd+FOg+CYPgn+0JceFL7wj4eHh83VrptxILuAukpd1KKAxdAc8/Wv1E/wCCptvDc/sUeJobmNZEe60kMrDIIOp2vBH6V9CWHw6+DPhn4VQ+LdX8M6abfTtIS7m22kROyGASPjIHOAcUKem4OK2PyA8Uaz+y7qvxNtvjL4c/aUutH8THSo9JvryPSp5PtccZjYMylQFYmMZxmszx9F+yF43+IWrfEC1/aNvdLm8Taba6Zr0dvp9zi/itoo4SSdoMZkWPB25xk9a8Qg/4OJv+CQ93qmoaPpPgvV76bTZJI7j7NolvKE8pijE7ZDgZHU191f8ABPX/AIKPf8E8v+Clvi3xB4L/AGdfDOL3w1bC7vF1DTreECNnSPjaznO5x1xTctLsLH0X8OP21f2CPhX8PtJ+Gvg/x3bW+n6NZx2VsDBeMyxwoI0JJg5OBnmvyU1v9nr/AIJ3eNPG/i3WfiL8fr/WfDvjnVl1fXdBNndQ2148alIYpCqn5Ixtx8pztHFf0cN8GfhGvA8M6X/4Cxf/ABNfln+3X/wUT/4J1fsA+IrLwR8WNFt9W8TX6b4tG0bTorq7EZG7e6YUAY55NKLV9BNHzj+zR4G/4Jofs2/FvTPidpnxcn1i28MxXUHhzTLu2vPI0qK7kaR0hPltkAMyLwMKcV+pX/Dxn9ijp/wn1rj/AK9rv/4xXgH7Bf7an/BP3/gojo2o3fwH0uyTUtHOL7StQsIoL2DkDLR4YYyQOCetfof/AMKc+Eh4PhjS/wDwFi/+JqZvUtH4lftg337FH7WHxd8LfGNfj3c+FNQ8HxTpp62FjdMFa5ieGR92xDkpI4HHGa8++CfgD/gn58APi54Y+KHw6+OdxBB4dt54WsHsLl0u3vHaa6lmkKbi01wzSnIOCcZr9BP23v2sv2CP+CfnhG28SfH+w06K51J9ljptpYxTXl0/PEUQAz0PJIr5+/Ye/wCCnX/BN79vLxzdfCr4daHHoPiq2jMg0rXNOitbiVBjJjHzBuOcZ6ValoQ1qfVHxK/ba/YJ+Kvw+1f4ceJ/Hds+n6xbPazBbe8DbXHUEQcEHkfSvzQsfhz/AME99TtUs/id8c7vxNFpthFpejCezu4zp1rDIjoilUJkIVAgLYwD7V++q/Bn4SYGfDOl8f8ATrF/8TXzn+1P8TP2MP2N/hVd/GH4+2ejaNo9r8qlrWIyTSHpHEgXLOewpRktkNq+5+SXxf8AhP8A8Esvib42vPiFpPxIbQ9YvtEs9FluLa3vCrCxlglhnMflKpkBt0yepOcmvoz9nf4mfsU/BbxxefFbxn8bZvGvia6sE0uO9vrO7iEFmhRvKSNY3XlkUluuea8m/Zk/4LPf8Etf2mvi5Z/BWw8PSeFtX1dtumHXdKitYrskEr5TAv8AeHTOM1+5cXwZ+EhjB/4RnS+f+nWL/wCJpyemolHqfBHin9qD/gmx4z+I+jfFfxH4rsZ9d0EMLO4NteZTeCpyPI+Y4JwT0rwvwD8W/wBjbwT8ePiF8dh8bpLi78e2i2rW7WN0Es/LjSKJ4m8vLMioMZAr9KPivpn7MvwT8A6n8T/ifpei6PoWjwtPdXU9tEqIi/8AAeSTwAO5r8N/Bf8AwXm/4JJ+NPifY/D8+H7jSrLU7r7HZ63e6RHHp077tqlZck7SRgZWpinYbR6X+yVqf7Iv7J3jHU/E2m/tD3XiODWrme7v4NQ065MtxLMzNl7go8hCbsKpyAAAOK/bL4PfG34U/HLw0/if4Sa3BrtjDIYZJYN42SLkFWV1VgeOmKXSfhV8E9asbfWNL8PaRcWt1GssMsdtEVdHAZWUheQQQRXwB/wTV0rTdH8ffHXTtHt47W3j8XgJHEoRF/c9gOKUtU5AtND9WsgnFLTF+9T6zKCiiigAooooAKKKKAClHUUlKOooA+Pf2d/+ThvjH/2E9N/9N8NfaNfF37O//Jw3xj/7Cem/+m+GvtGrnuJBRRRUDCiiigAooooA/9T+/iiiigArlvHCg+C9XJ/58rj/ANFtXU1y/jj/AJEvV/8AryuP/RbU1uB8Qfsi+ENP8f8A7Gn/AAg+rMyWurjUbSYp94JNI6MR74NfH3gb/gjXdfDLwzbeCPh58ePHmj6PYjZbWdtf3CRQp2VQLgAAduK+7f2Chn9mnSv+vm8/9HNX2QEC81bk09BLY/Hg/wDBKXx8ev7RXxD/APBjc/8AyTWff/8ABLfxtp8El1fftH/ECKKJdzO+pXCqoHUkm5AA9zX7FahqNppdhPqV+4igt42lkduiogyzH2AFf5wH/BdX/gvf8Yv2gfi9rv7Mv7KOuXGheAdGnewu7yxcxXGozxHy5Pnjw3lbwQBnnjinGTeoN2P6Lr/4af8ABPf4N/Hrwl8RP2iv2ptQ8Tap4HvmvtO0/WdSnuYY7kxSQliBLKuQkjDkd6/db4R/tZ/s2fHxfM+D3jfSdfJ/gtbhd/4I21j+Vf5Rv7P/APwRZ/4KUfta+FP+FofDj4d3tzpt3+9S71BliafdzuG9ixz1yRXi/wAS/gJ+3b/wTA+LFnfeMtO1n4c6/bSB7S8gkaNJSvOFkibDAj+FiMiqcE92SpH+y1vIwvWrKEkc1/MT/wAG+P8AwWn1H/goJ4IvPgV+0FNGnxI8Nwq6zLhRqFqpCCTHH7wZXdxzyc1/TrH92spRsUncSTtX58f8FRfG1j4C/Yc8da3qEGjzq9olsg11PMsUa4mSIPKvly52b9w+U8gV+hEgBHNfB/8AwUi/ZK1f9t/9kbxL+zZod/Dp03iD7OhnnzsCR3EckgOAx5VSBx1og9Qex/Ft4P8A2FfH/wANtI+E/wCzp8WYvAOnaHr/AIifxLpvj6x3Nd6jvjnuls4WFqoRRu2qrSKAF6cYr+wT/gk0Cv7Kl1HjG3xV4iHPtqc9fkRc/wDBBb47+Gh4Y+CWj/EqG8+CXhO9i8QQ6deRtNqlrfQW7h4bWVgSsDyOxwJF4x8tfb3/AATt/bH/AGavgl8BtR+HnxV8Troms2fijxA0trcWt2XVX1GdkJKQsDuUgggmuib5loRFNM/mP8R/tN/spfsp/wDBxv8AEf4lftdWMNzoDBbe3uZ4VnSyuWVCsxRs9FDLkAnmut1D9qz9kj9rf/g45+DHxA/ZFigOkW7yW97fW8KwR3lx9ik+YKACSMHlgDX9B3xvtP8Aggd8TfiA/wARPjPYeGtY1/xFcCN7y60uZ5ZpdpYZZ7bJ4U+tbvwr8Gf8EI/gf4/074n/AAs0zw1ouv6S7SWl5a6TPHLEzKVJVltQRwxHWouPc/eo9TX8gH/BwV4U1L4fft3fs+/tcfF/QLnxN8H/AApcSRazbxRm4it5nVwk0kJ+UgHnNf0PD/gpF+xIOD49t/8AwFvf/jFcb46/b6/4J0eLvDdx4e+IvjDStQ0q8Ailt7+yuXhk3cBWWS32nPbis4JpjdmfyNf8FNv2gv2c/wDgph+2L8AvB3/BNrSW1fxNoOrW91qGr6bZm2S1tEyTFJIFU/KpA7jjFf3P+NLe8sPgxrNrqEnmzxaJcJI3Ul1tmBJ/Gvzz+E3x4/4JJ/AO4udT+DEnhzwvc3I2zS6bpE1q7DPQtHaqcE+9ejeP/wDgov8AsZaj4A1/TtP8bQTTz6ddxxotteHLNEygD9xjqcfWnNDRP/wSnH/GE3hn/r4vv/Sl6/Revzo/4JVpPD+xJ4Wa4jeIyyXcqCRWRikk7sp2sARkHPIr9FC/HFTPew1sj8xP2DeP2gf2gz/1Mln/AOkxr+VT/guz8Vvgn8Fv+C8/wn+J/wC0Ppy6t4P0nT4JdRtnRZFKGFVV2RuGCOytj2r+i79nT9p/4Ffs9ftL/HfQ/jVry+H7rUdetJ7ZJ4LhvNjFuQWVo42Ujn1p/wC0BqX/AARY/an8ax/EH4+xaB4o1iGEQJd32mXE0ixgABQz2xIHA4ra2tyT+V3/AILNft5/sF/tj/tW/ADT/wBj5bTUL/RPEGnvfapaW626CAyhUgPCs20sowRgY9q/0R9MB/sq1z/zyTj/AICK/nv0L4R/8G9PhzxTa32gaF4SttW02RLyEx6TKssTIwKSAC1yMHHNfp/F/wAFHf2IIoVhj8e24VQAB9kveAOn/LCspa7DT7n4+f8ABzV8H/ij8QP2afAXjjwzplzr3hbwf4ptNT8SaZbAu0tigcOTH0dQWXINfkl/wVI/bg/YI/bh/Zl+Gf7L/wCwx4cXV/iLdanpn9m29hp3kS6R5QBcSSbVKbQCDjIr+uTVf+Chv7CWt6fLpWr+NrO5tp1KSRS2d4yOp6hlNvgg+hr5w+G3xq/4I3/DLxvc+OfhZ/wimj68rnzruw0eSK4VpOTueO1DAt157ValoJo/R/4A+HvFHhL4FeDPCvjaQy6xpmiWFtfMSWJuIreNJck8k7wee9fnF/wXL+Efxc+NP/BNb4i+C/guk1xqrWsUzW8DESTwxTxvKigdcop4r6b/AOHj/wCxHz/xXtv/AOAl7/8AGKik/wCCjv7EMmUl8e25BBBBtb3BB4IP7jp7VCve9hn8jPxA/wCCi3/BL7X/APgjrB+yJoHg8N8TZdGtdFh8OLpYF9Dq8RjSWYttwpLo7bw24596/qD/AOCNPwt+LfwZ/wCCb/wx+Hvxt8xPEFppiPLHMxZ4opRvhjYnnKRlVx2xXnyfFj/gi+vxM/4WIsXhIeKg32kXn9jP9r3dPM3fZd+cnlvU19Sx/wDBR39iEdPHtuPb7Je//GKqUm0NHp37X3hHxn49/Ze8feDvh5K0Ot6lol3BZlSVbzWjOACORu6fjX8X3/BOj9uv/gnr+xt/wTk8Y/so/theFxpfxQsJdVtdU06903zrjVbmaaURPG5U7+WUgsRX9eh/4KN/sRFtx8e2/wD4C3v/AMYr5d+JXxt/4I0/EHxtaeN/ij/wimra/JIFgvL7R5JLl3UbgFd7UsSAucZ7UQdtGJo+PP8Ag2F+EnxZ+GH7CGqah8RtOuNG0vxL4gvdT0HT7nKyW9hNPM8YKHhAyspABxiv6MvEVreXvh+/stOfy7ia3lSJum12QhTn2OK+JtN/4KHfsKaVaRafpvji0gggRY44o7O8VERRhVVRBgAAdBWj/wAPIf2JOc+Pbf8A8BL3/wCMVM07gj+TT/gnd+0d+y9/wTR+PX7Q3w4/4KU6MdL8Y674hv8AUbLVdRsvtS6jYTTO8cUUhViQyupwcdK+zf8Ag248Ka34m+Pn7Qv7Tfw90C48M/Cbxjq0v/CP2csfkRyP54PnRwj5QpVWxwOuK/XP4zftF/8ABIn44ajY3Hxzu/DXiS7RttrJqulSzvuAJ2xmW2JyACcD0r2Lwj+3b/wT4+H/AIdtvCXgnxbp2k6ZZrsgtbWwu4okH+yqW4A/KtG9LJCSPNv24v8Ak7r9moH/AKGm7/8ATVf1+qTAEnNfh58ev2kfgt+0R+2R+z1p/wAFNa/4SCXSvEV1c3fk29wghiOmXqb3aWNABuZR16kV+4RcFsCpqPRIaPz1/wCCpIH/AAxd4jP/AE+aT/6c7Wvo7x4RH+zBrR/6lW4/9IWr5u/4KlPIP2KfFU6xvIlvPpkz+WpchI9StmdtqgkhVBJwM1Dov/BQn9hvUfANp4b1vxtbSRT6dHbXETWt4QQ0IR0YeR3GQc8UrXirBfU/io/4IIf8FCP+CdX7HmifGTwr+2BFZ2mu6rrF5NbXl1arcfabUSuDbKSGILHHykBeOtfcv/Bsn4/+F3xR/wCCkP7S3xA+C9gNK8LavbyXOm2qoqBIXvoCpCLwoOcgD1r9WdR+Bn/Bu/I9xrGq+HfCIDyNLNNJpMmN7tlizG1xksevrX0h+zh45/4I3/snapfeI/2bp9C8K3OrwiK6m0/TbiIzRZVlDGO2G4ZVSKqTTWgkfsyvzEFulfxS6j8RPhV/wTy/4LkfFL4x/wDBRTSnm8O+NNNj/wCEX1+6tjeW1uAsJ8tWIYowRWTAHt0r+n7/AIeQfsRf9D7b/wDgLe//ABivGfjJ+1j/AMEtPjToX9n/ABw1fQvEun22XCapplxcRx47jzbZgKmDaG1c/BL/AIJo6z4U/a1/4LleNv2uf2LtCm0T4S2eirZ6hdpB9ktb+6CxIxSNQAxaQF8kds1/Zi2OSK/NH4S/tlf8Ey/hF4Ui8P8Awb1/RvD+jy4mSDTdOuYIW3DIbbFbKDkHg16f/wAPIP2Ixk/8J7b8/wDTre//ABiid2CR/ON/wV6Gl/s4/wDBZr4Q/tlftS6DPr3wctbBrPz/ACTdW9hdmFkEkkRBC/OCcgHrnrXg3xQ+LfwV/wCCjv8AwWo+CHjf/gm3pLva+CvNn8UeILK2NpbSQmGQBHcBS5G5U+Ye1f08+Pf21f8AgnH8VPDs3g/4keJdL13S7n/WWl9p91PC31R7cqfyrgfg1+1D/wAEnfgdb3un/AbVPDvhtJTsuhpOmTW5Lddsnk2w54zg1UZO2wutz9UAeuOa/lI/4OX/AIZ+O7vWfgX+0DqGjXPiP4b+BPEcV14msLdTKoi/eASvD0ZRuGc1+7S/8FHv2IgoQePrfA/6db3/AOMVma1+39+wR4n0e58PeIvGdlfWN4hjmt57K7kjkU9VZWtyCPrUJNMpn8lH/BU/9rD9jr/gpD4o+B3wa/4J2aF/a/j+y8RWF4L7TrH7MdNsoVJeKWQKpUIvBAyBiv7pPAlhqmleCdH0rXH829tbK3hnckndKkSq5yeTlgeTX5RfBP8AaO/4I4fDLxFqPiT4HSeGPD+pxStDc3Om6PLBKHOdw3xWoYZ7+tfUyf8ABSD9iJV2jx7b/wDgLe//ABinISPzv/4OOvgr8YvjX/wTp1Gx+ENpPqX9j6la6jqljbE+Zc2MMqmVAo4fH3ip7Cvwd/bd/wCCgP8AwTa/aJ/4JbeHv2S/2f8Awmuo/FG8sdL0zTNKttNEV3p2owmFZZGbaNpyj5IPOa/ruuP+CjX7DlzA9tc+OrWSORSrI1peEMCMEEGDkGvl3w/8Xv8AgjL4X+I7eO/DMfhOx8UAm4a8g0aRLsbjy5ZbXfyT19TRF2QnqfXP/BPD4f8AxE+F/wCxX8M/AXxWkd9f0zQbGG7EjFnR1gT5GJ5ynT8K8D/4Jzf8lJ+PP/Y4D/0Sa9qH/BR/9iTcD/wntvn/AK9b3/4xXzt/wS78T6P431740+OPDDvcaTqvizzbS5aN4lmQREFkEiq2M8dKdtHcb6H61UU0MScGnVkMKgdjg+1T15D8c/jJ4M/Z8+E+v/Gb4h3K2mjeHrSS7uZGOPlQcKPdmwB7mmlcDuPEXinw54Q0qXW/FN/Bp9nCNzzXMixoo92YgV8R65/wVP8A+CenhvWG8P618WtBhu0bYYzK7c+hKoR+Rr/Nl/4KYf8ABYn9rL/gpr8Ybvwn4Zv7/TvBUl21to2gaa7r9oj3FY3mWMjzHkHzYbOM9eK53wb/AMG+/wDwVQ8e+BofiJpPwvnitJ4vPjiuJI0nZcZGE3HBI55IrRU11I5z/Vn+Gfxp+FPxl0dde+FviGw120YZD2cyyce6g5H4ivVI+VzX+OH8F/2gf26v+CTfx9jk0WXVvBetaXOGvNHu2dba5QH5leIExuGHRgGxxX+or/wSw/4KJeBv+Ck37LOlfHDw0i2mrRAWus2ORm3vE+V+n8LkFl9iOlKcLbFRlc/SqlHUUxST1p46isxnx7+zv/ycN8Y/+wnpv/pvhr7Rr4u/Z3/5OG+Mf/YT03/03w19o1c9xIKKKKgYUUUZB6UAFFFFAH//1f7+KKKKACuX8cf8iXq//Xlcf+i2rqK5fxx/yJer/wDXlcf+i2prcD5N/YI/5Nq0r/r5vP8A0c1fZJ6V8bfsEf8AJtWlf9fN5/6Oavsk9Kc9xLY+Hv8AgpJ42174b/sH/FPxv4ZJW+stBuPKI6gyFYzj/gLGv8tv/gi58CvB/wC1R/wUu+Gvw3+JyLcaZfahJfXUUvKztFFJMFYHqC4BPXkV/rV/HL4Y6T8avg74m+E2tqGtdf06ezYHpmRSFJ+jYNf5FXj/AMEftC/8EhP2/wASyW0mm694G1h59OkfKx3dpuYIQ2OVkhOcYPJ5q6ZMz/YV0jStL0HTYNH0WFLa0tY1ihhjUKkaIMKqqOAAMDAr8n/+C3P7M/wt/aO/4J2fEOD4j2cUtzoOntqOnXbAGS3nidcMrHn5gSuMgc18Ffssf8HRP/BPX4sfDmz1T446pN4H8SpCv260uYS8fmgDcYmjL8MeRwPevxq/4Lf/APBxv8Of2jfg5qX7KX7FxuJtJ10CLV9amURK8CEN5UABLcsFySF4BpKDTG5I/CX/AIIN/EPxN8Pv+CpXwmvfDsjq2o30lncKp/1kL28rMD/wIA/hX+u8ABkLX+bF/wAGtP8AwT18W/Gf9qyL9sPxRZSW/hTwGrmxnlUhbi+ceViP1CIzgn2r/SbQ5XmioEFoK33ajZSDgc1NRWZRCY8jBHXrXE3nwx+HV9O91eaDYTSyEs7vbxsxJ7kkcmu8opp2A/Jv9v74bfD6w8afA1bTQrCIS+OFVwsEY3L/AGde8HC8jvX6RN8JvhiGOPD2nf8AgNH/APE18Kf8FCv+R1+BP/Y8r/6bb2v0uPU0inseeD4T/DHv4e07/wABo/8A4mvze/4KdfDP4eaf8D9HmstDsIifEWmLlII1ODcJnoP0r9Y6/NP/AIKjf8kL0U/9THpf/pQlDbEj0r9rXwh8A9O+CfinwzrP9m6DqF5pF1JZyRiO2uN8KFwYXG0htygcHJr8O/is/wC1f8Pf+CbXgGT9mnwedbbUNGGpa/4ouBFLfWiFRLhPPO5mdsZO4YBOPf8Aoo+OP7MnwQ/aLtrC1+Mnh+11saXMJ7Zp0VmjYZ4DEE7eeR0r0i58CeEL3wS3w5m0+AaI1uLT7GqARCBQFCBQMBQABjFaKpZIhx1ueC/sQeLvEXj39kj4eeL/ABZZyWWoX2g2Mk6S7dzuYEJkO0kfP97r3r6pGAM+lYvhvw1ovg/w/ZeFfDNulrp+nQR21vDGNqxxRqFRQB0AUACths44qG7u5S2sfiZ/wU10b4f+MPij8H4vDOrmPV38XxWOqWljMUklt/slxPtuIkILLujX7wx09q+MtQ/aou/iX+1ZK3j/AMNyeFfhLoHiSTQrOTSo7bzbu+t5Xt2e9/eR3AheRG4VHBJXIxyP36/4ZW+AJ+M0n7QTeGbJvFzoq/bzEpcFVCBxxw+0Y3dcZHeuHf8AYd/Zeuvi7/wuu78I2J8Qef8AahKI18szkH96Y9u0yNkszHndk5zWqqIhxPnLwj8Nfh1N/wAFM/E1l/Ydi0C+DIpFTyE25M1rzjb1561+iEfwm+GG3nw9p3/gNH/8TXxV4P4/4Kg+KD/1JUR/8j2lfozWNzRnnjfCX4Yn7vh7Tgf+vaP/AOJr88/2P/hn8O7r9oz49wz6DYMsOt6WqKbePCg2IzgbeMnk1+p9fnT+xx/ycl+0B/2HdL/9IRQ2xxWjPtX/AIVN8L/+he07/wABo/8A4mmn4TfDDOP+Ed07H/XtH/8AE16HRVJshn5d2nw0+HR/4KcT6edCsDD/AMIFI2z7PHjd9utecY6+9foAPhN8MR/zLunc/wDTtH/8TXxrZ/8AKUSf/sQJP/S60r9DqiMmXJHn3/Cpvhf/ANC9p3/gNH/8TX5rftw/Db4e2f7QX7O8FpodhGs/jGdZAtvGAy/2TfnB+XkZGceor9aq/Mv9uj/k4j9nL/sc7j/00ahVXYR3PvAfCb4ZBiD4e04/9u0f/wATTj8Jvhhj/kXtO/8AAaP/AOJr0M9TSUXZJ+SP7c3w0+H9n8cv2e4rfQ7BFm8ZTK4W3jAZf7Kvjg/LyM849RX6Un4S/DHJB8O6cf8At2j/APia+EP28P8AkvH7O/8A2Oc3/ppv6/TU9TSTZUkcbpXgDwVoN19u0PSLOzmHAkhhRGx9VANdXtIOP5VNSHgZpt33JOT8X6l4X0nQbi98ZyQQ6WoAne4x5QBYAbs8YyR+NfzJfFa2sPhvaftL+M/hjqkmoxWuqaJa6X+98+JY9RNrJcRWjlikTMXdQVKgZ5Ir+mrxj4M8M/ETw1feDPGljFqOl6jGYri3nUOkiHB5U5HXBFeFeGf2O/2cvBXwkv8A4HeGvCljB4a1Mlrqz8pCszFt4LnHJU4K56YGK0hOxMo3P54/hwjzfCv44/DTXdHn07TdJ0rSru00zWpU1G8jkmnszJKt0HmAjYu37sScZHHFf0X/AAW+FPwzl+DfhCaTw/p7M2i6eSTbR5JNtH7V8fftGfsxfBT9m/8AYv8AiJYfCLQ4dK+3QWrXEgAaWTF3BgM+M4HYZx+VfoH8EP8Aki3g/wD7Amn/APpNHUTld3LUbRL/APwqb4X/APQvad/4DR//ABNfOn7W/wALfhta/sz+OLiDQNPRk0i4IK28YIO36V9mV84ftf8A/Jr/AI6/7A9x/wCg1EmwW5yn7LPws+Gtz+zN8PLifQNPd38NaUzMbePJJs4sk/L1Ne8/8Km+F/8A0L2nf+A0f/xNcH+yn/ybB8Of+xZ0n/0jir32mm7A9zzofCX4Zbh/xT2ncf8ATtH/AIV+a37AXw0+Ht749+NS3Oh2Egi8VFFDQIcDy24HHH0r9bx1FfmV/wAE9/8AkoHxu/7G0/8AotqG2NbM+7x8JvhmB/yLunf+A0f/AMTUn/Cp/heP+Ze07/wGj/8Aia9BprdvrTuybn5I/wDBPf4b/D/UfFPxkS90OxlEXi6VVDQRnaMPwMiv0tX4TfDADH/CPad/4DR//E18Ef8ABOn/AJGz40/9jfN/J6/Tqi7KktTz0/Cb4YdvD2nf+A0f/wATX55eHPhj8PG/4Kd65YtoVgYU8BhwnkJt3G9thnGMZwetfqfX52eHP+Uo2v8A/Ygr/wCltrSbYRPtAfCf4Y5z/wAI9p3X/n2j/wDia6rSdA0bQLb7DodpFaQ5zshQIufoOM1s0U3JiuNVccmnUUUhBX81f/B1F8SPE/gH/gmLfaT4dkaOLxDqltY3e0nmEMJcfTcgzX9Klflt/wAFh/2N5P24v2E/Gfwa0xQ+sC2+26YD/wA/NsyyheM8sqkD64q4biZ/Fj/waX/sw/C743ftieKvif8AEG0hv7nwHpi3WmQzKGVLiR44/MAPGVWQgelf6RylgNo/nX+QZ/wTh/bp+M3/AASH/bFm8V6hpcwWGR9K8R6RJ8jywq/zbQ3BIdQ6k44HWv75PBn/AAcxf8ErvEfgOPxfqvjCbSrxog8mnXEDG4V8fMg2llYg5Ay1VKLexMGrHw5/wdufs1fDPxJ+yPof7SVxaxW/irQNTjtY7tFUSTQShlMTHgnBbI5PAr4K/wCDNnx94jT4qfFn4aGRjpL6dDqHl87VnEsEefrtJ5r80P8Agur/AMFt5v8AgplrenfB/wCD1ncWHw80G68+LzwBNf3OCodkUt8oDHapPUDjNf0tf8Gq37AnjL9mr9mrXP2j/ihp8mnaz8QnX7HBMMSLYIRsZgem8orj2NNr3dQT1P6wkx+NSDqKiT3qUdRWTLPj39nf/k4b4x/9hPTf/TfDX2jXxd+zv/ycN8Y/+wnpv/pvhr7Rqp7iQUUUVAwPSqwJPWrNV6LAFFFFKyA//9b+/iiiigArl/HH/Il6v/15XH/otq6iuS8cybfBurr62Vx/6LamtwPlL9gj/k2rSv8Ar5vP/RzV9lV8Z/sEN/xjVpI/6ebz/wBHNX2ZTluJCYFfmH/wUa/4JQfsqf8ABSrwgmjfGvTPs2t2aFbHWrQBbuDjgbwVLp/slsdK/T2mlQTzUre4z/Pk+KP/AAZ0ftCWmvS/8Ke+JOj32l7z5R1NZYJgh9RHFIM/8Cr6W/ZR/wCDP3w/oPiS11/9rjx4urWls6u2maOrCObafutKwiYD14r+4UoDSeWKt1GTyo8e+BnwH+E37OHw3074SfBfRbbQtB0uNY7e2tkVB8oxubaBuZurMeSck17EmdvNAUCnAY4qGygooooAKKKTJzigD80/+ChX/I6/An/seV/9Nt7X6XHqa/M7/goU2PG3wJzx/wAVyv8A6bb2v0uLHceOKCnsh1fmt/wVFGfgVov/AGMel/8ApQtfpTX5p/8ABUZ8fAzRV/6mPTP/AEoSk9ghufpYwGTSbRTd+5yB60+rZCCkIBpaKkYm0Hik2r6U6g8DNAH50+Ef+Un/AIp/7EqL/wBH2lfotX5y+EJM/wDBT7xSf+pLj/8AR9pX6Mq24ZpIqQtfnT+xx/ycl+0B/wBh3S//AEhFfom77OTX50fsbvn9pD4/nHXXNL/9IaHuOL0Z+jVFFMZscVS3M2fnpZ/8pRJ/+xAk/wDS60r9Dq/PCyOf+Cok/wD2IEn/AKXWlfobk56VES5Dq/Mv9uj/AJOI/Zy/7HO4/wDTRqFfppX5kft1vt/aH/Zz9vGdx/6aL+qCG5+nB6mkqNZN7cU8nAJoJPzM/bw/5Lx+zv8A9jnN/wCmm/r9NT1NfmH+3fNu+O37PDAdPGk3/ppvq/ToNu5pIuWyFooopkCYFG0daWigD4w/4KEgf8MdeN/+ve2/9LIa9/8Agh/yRbwf/wBgTT//AEmjrwD/AIKEnH7Hfjcf9O9t/wClcNe9/BFyPgt4P/7Amn/+k0dBb2PVK+cP2v8A/k1/x1/2B7j/ANBr6Pr5r/a/k/4xi8dJ/wBQi4/9BpPYlbmv+yn/AMmwfDn/ALFnSf8A0jir32vAP2Umz+zD8Ol9PDOk/wDpHFXv9C2BijqK/Mr/AIJ7/wDJQPjd/wBjaf8A0W1fpiHIYDFfmZ/wT3cD4gfG7P8A0Nh/9FtQxrZn6bU1u31oDZ4NI3GKZJ+ZH/BOn/kbPjT/ANjfN/J6/TqvzC/4J1NjxX8aT3/4S+b+T1+natuGaCp7jq/Ozw5/ylG1/wD7EFf/AEtta/RFm281+dPhmTd/wVE19iMf8UCv/pdbUmET9GKKKKZIUUUUAFRlFOQ3OakooA/BH/gp3/wb/wD7JX/BRPUJviQoPgzxy686pp8YC3DDgfaI1Khz/tHJr+abX/8Agzt/a0h10x+GviL4dn08sQJZzOku3sSqwMuce9f6IrLu60hQZ4q1UYmj+Sz/AIJ7f8GrX7PP7OPi+w+Kn7Tutf8ACf63p0izQWAj2WCSLyCwJHm4PIDJX9Y+m2Fjpunw6ZpsKW9tbIsUUUYCoiIAFVQOAABgAdqt+WKcq7Rik5NjsOxzmlHUUlAOOakD4+/Z3/5OG+Mf/YT03/03w19o18U/s8yFf2hvjGQM/wDEz03/ANN8NfaoIPIq57iQtFFFQMKr1YqvQAUUUUAf/9f+/iiiigArG17TBrGkXWlk4+1QvCT6B1K5/WtmigD8+fhv+zJ+0n8JvDI8GeCPiPBDpkU80sEculW8jIsrl9pZsk4zjJrvf+FXftgf9FMtP/BPbV9k0VSYHxt/wq79sD/oplp/4J7aj/hV37YH/RTLT/wT21fZNFFwPjb/AIVd+2B/0Uy0/wDBPbUf8Ku/bA/6KZaf+Ce2r7JoouB8bf8ACrv2wP8Aoplp/wCCe2o/4Vd+2B/0Uy0/8E9tX2TRRcD42/4Vd+2B/wBFMtP/AAT21H/Crv2wP+imWn/gntq+yaKLgfG3/Crv2wP+imWn/gntqQ/C79sHt8TLT/wT21fZVFFwPwn/AG7vh7+09Z+Mfgqmv/EC2u3k8aKtuV0uBPKl/s+8O/j7w2gjB9a/Q1/hf+2BuOz4l2mO3/Entq8V/wCCh3/I8/An/seV/wDTbe1+mtHMNrQ+Nv8AhV37YH/RTLT/AME9tX55/wDBST4dftN2HwV0ibxL4/tr6I+INOCqul28eGM67TleuDX7q1+aH/BUv/khGi/9jHpn/pQlKT0CKuz2QfC79r8sXHxLtBn/AKg9t/k07/hV37YH/RTLT/wT21fZNFPmEfG3/Crv2wP+imWn/gntqP8AhV37YH/RTLT/AME9tX2TRRcD42/4Vd+2B/0Uy0/8E9tQfhd+2B/0Uy0/8E9tX2TRRcD8OvC/w5/acP8AwUf8SWEPj+2XUV8IRs1z/ZduQY/Otfl2dOuPyr76X4W/tgAY/wCFmWnH/UHtq8t8Jf8AKUPxR/2JcX/o+0r9HaSkNnxo/wALf2v2GG+JloR/2B7avgf9k34e/tQ3X7Qfxyg0n4gWtvcRazpouZDpdu/msbIFSAfu4HGBX7h1+cX7Gn/JyXx+/wCw5pf/AKQ0OQW0PVP+FXftgf8ARTLT/wAE9tSf8Kv/AGwAefiXaf8Agntq+yqKfMI/EO0+Hn7UB/4KQTWC/EG2XUR4Hkc3H9lW+PK+22oKbOnUg568V95/8Ku/bA/6KZaf+Ce2rzG1/wCUo9x/2IEv/pfaV+im9c0lIbR8c/8ACrv2wP8Aoplp/wCCe2r86/2z/h7+07a/Hr4BQ618QLa5nm8XTLauNLgQRSf2VfEsQOG+UEYPrX7uBga/MX9uz/k4r9nL/sc5/wD00X9EmEVqe4j4Xftf9viXaD/uD21Kfhd+2B/0Uy0/8E9tX2TRTuI/B39tX4c/tN2fxq+AsOs+Pra6nm8XTLbONLt0EMn9mXpLkD73ygjn1r9GB8Lf2vxwvxMtMf8AYHtq8Q/by/5L1+zv/wBjnN/6ab+v05qYz1aBo+Nv+FXftgf9FMtP/BPbUf8ACrv2wP8Aoplp/wCCe2r7JoqrgfG3/Crv2wP+imWn/gntqP8AhV37YH/RTLT/AME9tX2TRRcD8f8A9u34cftT2n7J/jCfX/iHa3dqsFvviGlW6Fv9Khx8w5GDzXtfwe+GP7Ws3wj8KTWHxItYoW0ewKIdItmKqbdMDJ64HrXof/BQz/kzvxt/1723/pXDX0B8Df8Aking/wD7Amn/APpNHRcdtDwj/hV37YH/AEUy0/8ABPbV8+ftVfDP9q+3/Zz8aXGrfEW1uIF0qffGNJt0LLjkbhyK/Uyvm79sH/k2Dxz/ANgi4/8AQaTloCPlb9mT4Z/tZXH7OXgG40z4j2kFu/hzSzFGdJtmKIbSIquTycDAr3H/AIVd+2B/0Uy0/wDBPbV6T+yh/wAmv/Dr/sWdJ/8ASOKvoChSE0fGY+F37X5I3fEu06/9Ae2r87P2Ffh7+05eeOvjEmh+Pra0ePxQROx0u3fzH2H5sH7v4V+79fmF/wAE9/8AkoPxt/7Gw/8Aos0ORSWjPcl+F37YOT/xcy0/8E9tTx8L/wBr8EE/Ey0/8E9tX2NvWmsQVyKfMSfg/wDsE/Dz9pu98UfF1dA8fW1o8XiuVZy2l28gkf5vmAP3fwr9GV+F37YGP+Sl2g/7g9tXhX/BOUAeLfjTj/ob5v5NX6gUXKlGzsfGp+F37YB4PxMtP/BPbV8C6D8Ov2nW/wCCkmt2EXj+2GojwQrtc/2Xb4Mf2y3GzZ064Oa/cSvzk8M/8pS9f/7EFf8A0utqTYkj1L/hV37YH/RTLT/wT21H/Crv2wP+imWn/gntq+yaKdxHxt/wq79sD/oplp/4J7aj/hV37YH/AEUy0/8ABPbV9k0UXA+Nv+FXftgf9FMtP/BPbUf8Ku/bA/6KZaf+Ce2r7JoouB8bf8Ku/bA/6KZaf+Ce2o/4Vd+2B/0Uy0/8E9tX2TRRcD42/wCFXftgf9FMtP8AwT21H/Crv2wP+imWn/gntq+yaKLgfG3/AAq79sD/AKKZaf8AgntqD8Lv2wP+imWn/gntq+yaKLgfMHwE+CHi/wCF2seJ/FHjnXRr+reKLqG5uJ1gS3RRBCsCKqIcfdUV9OqoVcCnUVIBRRRQAVXqxVegAooooA//0P7+KKKKACiiigAooooAKKKKACiiigAooooAKKKKACiiv5hNP+PHxZs/2ifEfwe+GHxD8UJ8SD8ev7B8O2OsXd/c6FceFrO10+/1iwlkvg9g5hspLuWJIpP7Q3+X5ZKDisNH2ldUFu1f/wAnhD7k5pvtFSfSzdVclF1nsnb/AMlnL8oNLzaXmfqL/wAFD/8AkePgT/2PKf8Aptva/Tav53/27P29fhp4u/ac+F/wz8MWVxe6b4O+JbaLq+qR72EF9Bpdy058lY2/0SAv5c1w0i7JFYCNkBkr2SP9onxR8f8A9vH9l/4t+DNP1HSPh9440HxXe6ZNJqswXVLUWMEtrNdaOuLeFmRxPbyM0k3luFkETAxhYeLq2cNnrfycXJf+BJad1e17FVI8rcZbrp6Oz+7r262P28r80P8AgqX/AMkI0X/sY9M/9KEr9L6/Kz/gr7bfa/2WoLbzZYd+sWIEkEjwyqfNXDJJGVdWHUFSCK58TWVOnKo+ib+4qhDmmorqz9U6K/mD/YI/aG+Lvjh/gDo3xC8ZeLLGx+J3wp1G51//AISm7u2j8S64ba3uIZvD96Hka2ureL7VLPHFPbfuSjRwsVZ48X9kr9qHxB8IdS/Zk8VeItY1LxPrvjH4BRw2OhX+tyq2va7JqelJAsS3crwm8dJJWecruMYZpXCKWX0Hhmq/sHvdr5pVtLebo2XV80dE9DBSvSdVdEn8m6av8ufXouV6n9S1FY/h651280O0uvE1pFYahJErXFvBMbiOKQj5kWYxxFwDxu8tc+lbFc8lZ2GndXCiiikM/ODwp/ylB8U/9iXF/wCj7Sv0Xz2r86PCn/KUHxT/ANiXF/6PtK/RfHeob0GyVG3V+cv7Gn/JyXx+/wCw5pf/AKQ1+jEYAzivzn/Y0/5OS+P3/Yc0v/0hp9io7M/R2iiiqIPzptf+Uotz/wBiBJ/6X2lfodjvX542v/KUW5/7ECT/ANL7Sv0OqEVIkQd6/Mn9uv8A5OK/Zy/7HOf/ANNF/X6bR96/Mn9uv/k4r9nL/sc5/wD00X9Oewkfp1RRRVCPzG/by/5L1+zv/wBjnN/6ab+v05r8xv28v+S9fs7/APY5zf8Appv6/TmojuxsKKKKsQUUUUAfF3/BQv8A5M88a/8AXvbf+lcNe8/BD/ki3hD/ALAmn/8ApNHXg3/BQv8A5M98a/8AXvbf+lcNe8/BD/ki3hD/ALAmn/8ApNHSZXQ9RHUV86/tg/8AJsHjn/sEXH/oNfRQ6ivnX9sH/k2Dxz/2CLj/ANBpX0EjR/ZQ/wCTX/h1/wBizpP/AKRxV9AV8/8A7KH/ACa/8Ov+xZ0n/wBI4q+gKa2HLcK/ML/gnv8A8lA+Nv8A2Nh/9Aav09r8w/8AgnwMfED42j/qbD/6A1DYLZn6aVIgBXFR1KnSlEk/MP8A4Jzf8jb8af8Asb5v/Z6/T+vzA/4Jzf8AI2/Gn/sb5v5NX6f1RpV+IK/OTwz/AMpS9f8A+xBX/wBLrav0br85PDP/AClL1/8A7EFf/S62pMmJ+jdFFFMkKKKKACiiigAooooAKKKKACiiigAooooAKKKKACq9WKr0AFFFFAH/0f7+KKKKACiiigAooooAKKKKACiiigAooooAKKKKAA1+Zd7/AMEtPg9rfhPx54Y8UeMfFepz+N/GMfj6DU5JtNt7/QfEMCwpDfaRNZ6db+S0awRqFnWdGUMrqyvIG/TSilFWlzrfa/zUvlaUYtPdNJrYrmfLyva9/wAGvybT6NNpn88/7WH7DPhr4NfHf4c+LND8aeI73RvH/j8ahr/hq7exbSbrV5tIuYbvUUVLNLmCS8Ee64ghuEtWdmYQrmvtz4I/8EvfBfwK8U/DXWPD3xM8a6jpPwh/tG38J6NqEmkS2ljp2pQpA+nNKNMW8nt4o0CQmW4aZFVVEuBzN/wUP/5Hj4E/9jyn/ptva/TarpzcPh7JfJaJfJaR7JuKsnYVT3t/N/N7v1e77vV3YV+W/wDwVt0h9f8A2arHQ47uaxN5runw/aLcRmWLfMq7k81JI9wzxuRh6g1+pFfmh/wVL/5IRov/AGMemf8ApQlY1YKUXGWzLpSakmiX4Sf8EwfhR8KfCXw58IzeMvFXiWL4RaRdaT4Nm1eTSjJpBu7VrF7uNbTTbaKe6W1ZoUe6jmRVZsJlmJ8rh/4Iu/s53XhDwr4C8W+L/F+v6R4N8Ft4H0qC8m0qN4LRbmC8t71Li00y3uItQtLi1glt7mKWPY0Skq2X3fr9RW85ylN1G/eet+t7SV/W05a76/dnD3Y8q2/RNO3pdJ22v6nD/Dbwhq3gHwJpfg3XPEOpeLLrTbdYJNX1cWv267KceZcfY7e1tzIR1KQoD1IzknuKKKJzcpOT3ZMIKKUUFFFFQUfnB4U/5Sg+Kf8AsS4v/R9pX6L1+dHhT/lKD4p/7EuL/wBH2lfovUPYbJI+9fnN+xocftJfH8/9RzS//SEV+jCECvzE/Zg1pvD/AMbf2jtaRBK1pqunyqpOAzLp+QCewz1Pamloio7M/TwTRHowp4IYZFflZ4M+JH7WEGox/EvxF4p8NanoEkqSTaFabPNtoLhgqDz1Te0i71yDgnmv1G06XzrRJecMARnrg1RLR+e9r/ylFuf+xAk/9L7Sv0Or88bX/lKLc/8AYgSf+l9pX6HVCHIkj71+ZH7djAftFfs5Z/6HOf8A9NF/X6bx96/MT9u8lf2iP2dWPOPGVwfy0fUKcthI/T7IpAykZBr8f/En7d/7Q+keLp/DVh4f8JNHJd30Nq1zq80UzR2ksiAyxrAQjsqcDPJIr9RPAWu33irwZo/iLUUWG5vrK3uZo0JKK8sauyqSASFJwMgZ64ppg0fAn7eR/wCL9fs7/wDY5zf+mm/r9ONygZr8vv29ZY7f47fs9TysFRfGcxJJwAP7Jv8Aqf1r9ER418IO6qmq2ZLnCgTxkknoB83OalbsbR2AYHpS1DDyN1TVZIUUUUAfF3/BQv8A5M98a/8AXvbf+lcNe8/BD/ki3hD/ALAmn/8ApNHXg3/BQv8A5M98a/8AXvbf+lcNe8/BD/ki3hD/ALAmn/8ApNHSZXQ9RHUV85/thnH7L3jn/sEXH/oNfRg6ivnD9sMkfsw+Oc8f8Si4/wDQaURLc1f2TmB/Zf8Ah1/2LOk/+kcVe+iaMnAPNfj3p/jH4iX3wt+F3w28L/EWz+HFkvhLRpmuHtY7u5u5pLWALHGkoChPmwSGzkYxX3x+z34h8Y6pot94f8fajb6zqei3H2Z9QtkEa3A5IYoAArgcMBnnPJqhy3PpCvzC/wCCfBB+IPxt/wCxrP8A6Lav09r8wf8AgnsP+Lg/G4/9TYf/AEW1DBbM/TapU6VFUi52nFTEk/MH/gnRIq+LvjSCevi+b+T1+oG4CvxV/Zj8YeI/AXhX4/8Ainwi1umpWnitzC13u8hS0m0mQqrsFCkscKcVt/B39s/4+eOvjJYfD7U9X8IX9mLpILn+yp7qWaRGt2l3ReZaRoQGAUncMHIp8xrVXvH7IBgeBX5y+Gv+Upev/wDYgr/6XW1foXagqGdmzn/OK/Ni013RvDf/AAU48Q6t4guorO2TwGitLM4RBm+tQMseBzxQyIn6a71p2QelcFYfEbwFq+oR6TpWt2N1dTZ2RQzxyOccnCqSa7qMYXFMkfRRRQAUUUUAFFFFABRRRQAUUUUAFFFFABRRRQAVXqxVegAooooA/9L+/iiiigAooooAKKKKACiiigAooooAKKKKACiiigAooooA/Mn/AIKH/wDI8fAn/seU/wDTbe1+m1fmT/wUP/5Hj4E/9jyn/ptva/TagbCvzQ/4Kl/8kI0X/sY9M/8AShK/S+vzQ/4Kl/8AJCNF/wCxj0z/ANKEpPYcN0fpfRRRTJCiiigAooooA/ODwp/ylB8U/wDYlxf+j7Sv0Xr86PCn/KUHxT/2JcX/AKPtK/Reoew2SR96/MX9l61uLz43ftG2toI2ll1XT0RZhmMltPwA4wcqe/B47V+nUfevzY/ZG/5OD/aE/wCw1pn/AKQCqWwrnC/s/wDwduPA3xom8C+NfDPhe3sdas21B/7Ih2l7qKZNrSK0EQ4GSDknOK/V2HKxZ718bWX/ACczpH/YIn/9GrX2Un+qplVD88LX/lKLc/8AYgSf+l9pX6HV+eNr/wApRbn/ALECT/0vtK/Q6piEiSPvX5g/t4SeX+0N+zrM33V8aTLx1ydHv8D6e9fp9H3r8vP29/8Akvn7PH/Y8S/+me/olsETzDXvgJrnif4geIfFUHw3+Hl5d3d+5N1fLK0zGKQ+XIR9icCTCgsQeW7nrX60eD4dRg8M6bFqqwx3K20Kyrb58lXCAER5CnYDwvA47Cvm7Qv+Qpqn/X7L/wChNX1PpX/IPtv+uafypQ2HM/J//gpbNbJ48+Cst9GZ4F8TXpkiyV3r/ZF+uzcOVySDuHIFfNngb9hrx7J4r0Dx3AujDT9enguxbG8vA+mxRESJ9nIt8TSOFHmeYUALMASACfoj/gpv/wAjh8Gv+xkvP/TXfV9i/Dz/AJFHwP8A9ekP/oml9oafun1hZy7hs9B1+lXqy7D734H+dalaGYUUUUAfF3/BQv8A5M98a/8AXvbf+lcNe8/BD/ki3hD/ALAmn/8ApNHXg3/BQv8A5M98a/8AXvbf+lcNe8/BD/ki3hD/ALAmn/8ApNHSZXQ9RHUV82/thEn9mPxyo/6BFz/6Ca+kh1FfNv7YP/Jsvjn/ALA9z/6AaURLc+CNS+Fvirxh+z18M/HWkTaL5eleEtHNqupaVb30yTLbQNuWWVGaMcHG3oeetfp/8K9LgsPB2n3Qtre3uby2huLs20YjSS4ljDyPgAZ3MSckZ5r498Ef8mY+Af8AsV9K/wDSSKvtnwB/yKGmf9eVt/6KWqKmtTuq/MP/AIJ8gD4g/G3H/Q2H/wBFtX6eV+Yn/BPr/koPxt/7Gw/+gNSaCOzP0zqVPu1FUqdKUSD8Wv2ZLm+tfB37Qtxp/ks48TTrsuYlmiYMxDK6MCrKQTkEV6n+zt8KPH+keKtG1zQ4fC+l2FlGrSJY6TBbzeTcR+aUieOJdmWYFsEA815X+zH/AMiX+0P/ANjRN/6Ea+7/AIDf8ecf/Xpaf+k61VjWp8TPqwSAAMBwQMfjX4vftCeEZ/Hn7cPi7wbbWOnajLfeBYEEWqp5loM6lZ/O0eyQOV+8qlcFgMkda/Zz/lkn0Wvyo8Vf8pKtd/7EaD/042lKTFTWofsxfsCT/s//ABmtvELXWjXdjp0cl1DPbadFbX7z3OfMR3RBiFTI2xQ5AAUYHb9aEJI5rhoP+Rjf/rgn81ruE6UyZD6KKKCQooooAKKKKACiiigAooooAKKKKACiiigAqvViq9ABRRRQB//Z;" vertex="1" parent="1">
          <mxGeometry x="240" y="60" width="198" height="304.62" as="geometry" />
        </mxCell>
        <mxCell id="hVr08XyOdzgONjnNXrjA-4" value="" style="shape=image;verticalLabelPosition=bottom;labelBackgroundColor=default;verticalAlign=top;aspect=fixed;imageAspect=0;image=https://lockchoice.com/pub/media/catalog/product/cache/d89357ee2a959fccc98671c5f4e3e018/v/d/vdp-c37.jpg;" vertex="1" parent="1">
          <mxGeometry x="560" y="44.709999999999994" width="230" height="110.58" as="geometry" />
        </mxCell>
        <mxCell id="hVr08XyOdzgONjnNXrjA-10" style="edgeStyle=orthogonalEdgeStyle;rounded=0;orthogonalLoop=1;jettySize=auto;html=1;exitX=0.25;exitY=0;exitDx=0;exitDy=0;entryX=0.75;entryY=0;entryDx=0;entryDy=0;" edge="1" parent="1" source="hVr08XyOdzgONjnNXrjA-9" target="hVr08XyOdzgONjnNXrjA-2">
          <mxGeometry relative="1" as="geometry" />
        </mxCell>
        <mxCell id="hVr08XyOdzgONjnNXrjA-9" value="" style="shape=image;verticalLabelPosition=bottom;labelBackgroundColor=default;verticalAlign=top;aspect=fixed;imageAspect=0;image=https://lockchoice.com/pub/media/catalog/product/cache/74428eb1690bddb95d390f884a5965ea/n/f/nf-62-exit-button-of-access-control-system--nf-62-1.jpg;" vertex="1" parent="1">
          <mxGeometry x="690" y="340" width="140" height="140" as="geometry" />
        </mxCell>
        <mxCell id="hVr08XyOdzgONjnNXrjA-12" style="edgeStyle=orthogonalEdgeStyle;rounded=0;orthogonalLoop=1;jettySize=auto;html=1;exitX=0.5;exitY=0;exitDx=0;exitDy=0;entryX=1.01;entryY=0.394;entryDx=0;entryDy=0;entryPerimeter=0;" edge="1" parent="1" source="hVr08XyOdzgONjnNXrjA-11" target="hVr08XyOdzgONjnNXrjA-2">
          <mxGeometry relative="1" as="geometry" />
        </mxCell>
        <mxCell id="hVr08XyOdzgONjnNXrjA-11" value="" style="shape=image;verticalLabelPosition=bottom;labelBackgroundColor=default;verticalAlign=top;aspect=fixed;imageAspect=0;image=https://lockchoice.com/pub/media/catalog/product/cache/74428eb1690bddb95d390f884a5965ea/b/s/bs-ni-610-electric-hanging-bolt-lock--bs-ni-610-1.jpg;" vertex="1" parent="1">
          <mxGeometry x="520" y="250" width="140" height="140" as="geometry" />
        </mxCell>
        <mxCell id="hVr08XyOdzgONjnNXrjA-14" style="edgeStyle=orthogonalEdgeStyle;rounded=0;orthogonalLoop=1;jettySize=auto;html=1;exitX=1;exitY=0.25;exitDx=0;exitDy=0;entryX=0.5;entryY=1;entryDx=0;entryDy=0;" edge="1" parent="1" source="hVr08XyOdzgONjnNXrjA-13" target="hVr08XyOdzgONjnNXrjA-2">
          <mxGeometry relative="1" as="geometry" />
        </mxCell>
        <mxCell id="hVr08XyOdzgONjnNXrjA-13" value="" style="shape=image;verticalLabelPosition=bottom;labelBackgroundColor=default;verticalAlign=top;aspect=fixed;imageAspect=0;image=https://lockchoice.com/pub/media/catalog/product/cache/74428eb1690bddb95d390f884a5965ea/b/s/bs-35_wifi_mobil_app_card_passcode_4in1_waterproofaccess_control.jpg;clipPath=inset(26.33% 66% 27.33% 11%);" vertex="1" parent="1">
          <mxGeometry x="50" y="310" width="69.49" height="140" as="geometry" />
        </mxCell>
        <mxCell id="hVr08XyOdzgONjnNXrjA-16" style="edgeStyle=orthogonalEdgeStyle;rounded=0;orthogonalLoop=1;jettySize=auto;html=1;exitX=0.75;exitY=0;exitDx=0;exitDy=0;entryX=0.25;entryY=1;entryDx=0;entryDy=0;" edge="1" parent="1" source="hVr08XyOdzgONjnNXrjA-15" target="hVr08XyOdzgONjnNXrjA-2">
          <mxGeometry relative="1" as="geometry" />
        </mxCell>
        <mxCell id="hVr08XyOdzgONjnNXrjA-15" value="" style="shape=image;verticalLabelPosition=bottom;labelBackgroundColor=default;verticalAlign=top;aspect=fixed;imageAspect=0;image=https://lockchoice.com/pub/media/catalog/product/cache/74428eb1690bddb95d390f884a5965ea/n/f/nf-62-exit-button-of-access-control-system--nf-62-1.jpg;" vertex="1" parent="1">
          <mxGeometry x="130" y="480" width="140" height="140" as="geometry" />
        </mxCell>
        <mxCell id="hVr08XyOdzgONjnNXrjA-18" style="edgeStyle=orthogonalEdgeStyle;rounded=0;orthogonalLoop=1;jettySize=auto;html=1;exitX=0.75;exitY=0;exitDx=0;exitDy=0;entryX=1;entryY=0.5;entryDx=0;entryDy=0;" edge="1" parent="1" source="hVr08XyOdzgONjnNXrjA-17" target="hVr08XyOdzgONjnNXrjA-2">
          <mxGeometry relative="1" as="geometry">
            <Array as="points">
              <mxPoint x="445" y="417" />
              <mxPoint x="458" y="417" />
              <mxPoint x="458" y="220" />
              <mxPoint x="438" y="220" />
            </Array>
          </mxGeometry>
        </mxCell>
        <mxCell id="hVr08XyOdzgONjnNXrjA-17" value="" style="shape=image;verticalLabelPosition=bottom;labelBackgroundColor=default;verticalAlign=top;aspect=fixed;imageAspect=0;image=https://lockchoice.com/pub/media/catalog/product/cache/74428eb1690bddb95d390f884a5965ea/b/s/bs-ni-610-electric-hanging-bolt-lock--bs-ni-610-1.jpg;" vertex="1" parent="1">
          <mxGeometry x="340" y="470" width="140" height="140" as="geometry" />
        </mxCell>
        <mxCell id="hVr08XyOdzgONjnNXrjA-20" value="Front Door Circuit" style="text;strokeColor=none;align=center;fillColor=none;html=1;verticalAlign=middle;whiteSpace=wrap;rounded=0;" vertex="1" parent="1">
          <mxGeometry x="300" width="60" height="40" as="geometry" />
        </mxCell>
        <mxCell id="hVr08XyOdzgONjnNXrjA-21" value="Back Door Circuit" style="text;strokeColor=none;align=center;fillColor=none;html=1;verticalAlign=middle;whiteSpace=wrap;rounded=0;" vertex="1" parent="1">
          <mxGeometry x="170" y="440" width="280" height="30" as="geometry" />
        </mxCell>
      </root>
    </mxGraphModel>
  </diagram>
</mxfile>
